<svg width="585" height="621" viewBox="0 0 585 621" fill="none" xmlns="http://www.w3.org/2000/svg">
<g clip-path="url(#clip0)">
<path d="M358.6 84.7046C360.103 80.2772 369.122 62.1501 369.122 62.1501L432.424 181.271C429.835 188.038 419.313 183.61 418.561 183.192C408.289 177.512 357.096 89.0484 358.6 84.7046Z" fill="#ED9F7D"/>
<path d="M450.295 173.837L514.934 269.818L534.976 259.544L481.028 168.908L450.295 173.837Z" fill="#e35531"/>
<path d="M429 76.7688L482.03 160.805L510.424 161.39L458.313 87.1271L429 76.7688Z" fill="#e35531"/>
<path d="M474.764 155.375L479.107 196.14L548.589 195.89L501.488 147.857L474.764 155.375Z" fill="#252831"/>
<path d="M528.045 180.436L529.131 178.18V175.841L528.295 173.586L527.544 171.163L525.122 171.414H522.617L520.195 172.082L517.94 170.996L516.604 169.66L517.105 167.404L518.024 165.149L517.355 163.228L514.85 162.726L512.428 163.562" stroke="#E6A52F" stroke-width="2" stroke-miterlimit="10" stroke-linecap="round" stroke-linejoin="round"/>
<path d="M454.722 152.034L437.518 124.969C437.518 124.969 404.698 187.87 366.7 179.016C360.437 177.596 335.634 162.058 352.253 144.182C368.537 126.639 401.191 95.8983 422.82 75.8499C434.261 65.2409 452.3 66.1598 462.572 78.0218L502.323 126.723L454.722 152.034Z" fill="#5a77dc"/>
<path d="M56.287 180.519L54.0322 180.436H51.6938L49.439 180.352L47.1007 180.853H44.8459L42.5075 180.77L40.2527 180.185L37.9144 180.269L35.6595 180.77L33.3212 180.603H31.0664L28.7281 180.853L26.4732 180.937L24.1349 180.686L21.8801 180.937H19.5418L17.2869 180.77L14.9486 180.603L12.6938 180.269L10.3555 180.853L8.10063 180.185L5.76231 180.603L3.50747 180.853L0.918576 180.352L1.08561 182.942L1.00212 185.281L0.835085 187.62L1.33614 189.959L1.41968 192.381L0.835085 194.72L1.08561 197.059L0.918576 199.398L1.00212 201.821L1.25264 204.16L1.33614 206.499L1.41968 208.838L1.25264 211.26L1.33614 213.599L1.41968 215.938L1.50317 218.277V220.7" stroke="#1A1C28" stroke-width="2" stroke-miterlimit="10" stroke-linecap="round" stroke-linejoin="round"/>
<path d="M556.522 530.866L554.184 530.949L551.846 531.534L549.507 531.617L547.169 531.2L544.831 532.119L542.492 531.868L540.154 531.701L537.816 531.784L535.477 532.035L533.139 532.119L530.801 532.954L528.463 533.205L526.124 533.037L523.786 533.622H521.448" stroke="#1A1C28" stroke-width="2" stroke-miterlimit="10" stroke-linecap="round" stroke-linejoin="round"/>
<path d="M16.0342 519.087L19.1242 519.004L21.6295 518.502L24.1349 518.085L26.6402 517.918H29.062L31.5674 519.254L34.0727 518.669H36.5781L39.0834 518.753L41.5888 519.171L44.0941 518.085L46.5995 519.171L49.0214 518.586L51.5267 517.751L54.0321 517.918L56.5374 518.335L59.0428 518.502H61.5481L64.0535 518.335L66.5588 519.004L69.0642 518.001L71.5695 518.837L73.9914 519.087L76.4967 518.168L79.0021 518.669H81.5074L84.0128 519.004L86.5181 518.502L89.0235 517.751L91.5288 519.338L94.0342 519.171L96.5395 518.168L99.0449 518.001L101.55 517.834L104.056 518.586L106.561 518.168L108.983 518.837L111.488 517.918L113.994 519.254L116.499 517.751L119.004 519.004L121.51 518.419L124.015 518.502L126.52 518.837L129.026 517.918L131.531 518.837L133.953 518.419L136.458 519.171L138.964 518.669L141.469 518.252L143.974 518.419L146.48 518.837L148.985 517.751L151.49 519.254L153.996 518.085L156.501 517.834L159.006 519.004L161.512 518.92L164.017 518.586L166.522 518.837L168.944 517.667L171.45 518.335L173.955 519.087L176.46 519.004L178.966 518.502L181.471 519.254L183.976 518.502L186.482 519.087L188.987 518.001L191.492 518.669H193.998L196.503 518.335L198.925 517.918L201.43 519.004L203.936 518.001L206.441 518.335L208.946 518.586L211.452 519.087L213.957 517.834H216.462L218.968 518.669L221.473 517.834L223.979 518.335L226.484 518.168L228.989 519.004L231.495 519.338L234 518.168L236.505 518.252L238.927 517.667L241.432 517.751L243.938 518.252L246.443 518.753L248.949 519.254L251.454 518.669L253.959 518.837L256.465 518.669L258.97 517.751L261.475 519.004L263.981 519.171L266.486 518.669L268.991 518.586L271.497 517.751L274.002 518.252L276.507 517.918L278.929 519.171L281.435 518.168L283.94 518.085L286.445 518.001L288.951 518.168L291.456 519.254L293.961 518.252L296.467 519.254L298.972 519.338L301.477 519.254L303.983 518.168L306.488 518.252L308.994 519.004L311.499 518.252L314.004 518.085L316.51 519.004L319.015 517.918L321.52 518.92L323.942 519.087L326.447 517.751L328.953 518.085L331.458 518.252L333.964 518.669H336.469L338.974 518.335H341.48L343.985 517.751L346.49 518.502L348.996 518.252L351.501 519.004L354.006 518.92L356.512 518.335L359.017 518.669L361.522 518.168L364.028 519.087L366.533 518.502L369.038 518.586L371.544 517.918L374.049 518.419L376.555 518.001L379.06 518.419L381.482 518.001L383.987 518.669L386.492 517.918L388.998 519.171L391.503 517.834L394.009 517.918L396.514 517.834L399.019 518.085L401.525 518.335L404.03 519.254L406.535 517.918L409.041 519.004L411.546 519.338L414.051 519.087L416.557 518.419L419.062 518.168L421.484 518.586L423.989 518.837L426.495 519.171L429 519.087L431.505 518.753L434.011 518.252L436.516 518.168L439.021 519.004L441.527 518.168L444.032 518.837L446.537 517.834L449.043 517.667L451.548 519.171L454.053 518.502L456.559 518.419L459.064 518.837L461.57 517.918L464.075 518.085L466.58 519.338L469.086 518.92L471.591 519.087L474.096 517.667L476.602 518.753L479.107 518.502L481.612 518.168L484.118 517.751L486.623 518.085H489.128L491.634 518.252L494.139 518.419L496.645 518.669L499.15 518.586L501.655 517.751L504.161 519.171L506.582 518.252L509.088 517.751L511.593 519.254L514.098 518.669L516.604 518.419L519.109 518.252L521.615 518.837L524.12 519.171L526.625 517.751L529.131 518.085L531.636 518.335L534.141 518.669L536.647 517.667L539.152 518.837L541.657 517.834L544.163 518.586L546.752 518.837L549.34 518.586L549.424 515.996L549.507 513.49L549.34 510.984L548.839 508.478L548.422 505.972L549.925 503.466L550.009 500.96L549.925 498.454L549.758 495.948L549.173 493.442L548.923 490.936L548.839 488.513L549.674 486.007L548.589 483.501L549.591 480.995L549.09 478.489L549.424 475.983L549.674 473.477L549.257 470.971L548.672 468.465L548.422 465.959L549.925 463.453L549.34 460.947L548.839 458.441V455.935L549.507 453.429L548.505 450.922L549.34 448.416L549.173 445.91L548.672 443.404L548.756 440.898L548.839 438.392L548.672 435.886L549.925 433.38L549.674 430.874L548.505 428.368L550.009 425.862L549.674 423.356L549.006 420.85L549.674 418.344L548.923 415.838L549.591 413.332L549.424 410.826L549.34 408.32V405.814L549.006 403.307L548.672 400.801L548.839 398.295L548.505 395.789L548.756 393.283L549.674 390.777L549.006 388.271L549.591 385.765L549.507 383.259L548.923 380.753L550.009 378.247L549.591 375.741L549.257 373.235L549.09 370.729L549.34 368.223L549.507 365.717L548.839 363.211L549.758 360.705L549.09 358.199L549.507 355.692L549.257 353.186L548.505 350.68L549.424 348.174L549.674 345.668L548.672 343.246L549.424 340.74L548.923 338.234L548.839 335.728L548.422 333.222L548.756 330.715L549.674 328.209L549.09 325.703L549.925 323.197L548.505 320.691L549.09 318.185L548.672 315.679L548.422 313.173L549.006 310.667L548.589 308.161L549.09 305.655V303.149L548.589 300.643L549.424 298.137L549.006 295.631L549.925 293.125L549.842 290.619L548.505 288.113L548.422 285.607L549.006 283.1L548.672 280.594L548.756 278.088L549.674 275.582L548.422 273.076L549.842 270.57L549.507 268.064L549.925 265.558L548.589 263.052L548.756 260.546L549.758 258.04L549.507 255.534L548.589 253.028L549.591 250.522L549.09 248.016L548.672 245.51L549.173 243.004L548.672 240.498L549.173 237.992L549.257 235.485L548.923 232.979L548.672 230.473L549.925 227.967L549.424 225.378L549.925 222.872L548.589 220.366L549.09 217.86L549.257 215.353V212.847L549.674 210.341L549.591 207.835L548.589 205.329L549.09 202.823L550.009 200.317L549.173 197.811L549.507 195.054L546.752 194.553L544.246 195.222L541.741 195.723L539.236 196.057H536.73L534.225 194.553L531.719 195.639L529.298 194.47L526.792 195.138L524.287 195.222L521.782 195.89L519.276 194.637L516.771 195.723L514.266 195.389L511.76 195.138L509.338 196.057L506.833 194.553L504.328 194.637L501.822 195.723L499.317 194.47L496.812 195.806L494.306 194.804L491.801 195.973L489.295 194.553H486.79L484.285 195.389L481.779 195.89L479.358 195.556L476.852 194.971L474.347 195.389L471.842 194.72L469.336 195.556L466.831 194.887L464.325 195.973L461.82 195.305L459.315 194.887L456.809 194.804L454.304 194.637L451.799 195.806L449.377 195.723L446.871 196.14L444.366 194.804L441.861 194.887L439.355 195.305L436.85 194.971L434.345 195.89L431.839 195.054L429.334 195.639L426.829 194.637L424.323 194.553L421.901 194.637L419.396 195.973L416.891 194.72L414.385 194.804L411.88 194.47L409.375 194.637L406.869 195.054L404.364 194.637L401.859 195.556L399.353 195.639L396.848 194.47L394.343 194.553L391.837 195.472L389.332 194.553L386.91 194.971L384.405 195.472L381.899 194.971L379.394 195.054L376.889 195.222L374.383 195.389L371.878 194.804L369.373 196.057L366.867 194.887L364.362 195.556L361.856 195.806L359.351 195.973L356.846 194.804H354.424L351.919 195.973L349.413 195.556L346.908 194.637L344.403 195.138L341.897 194.971H339.392L336.886 194.887L334.381 195.806H331.876L329.37 195.723L326.865 194.553L324.36 194.637L321.854 195.723L319.349 195.305L316.927 195.389L314.422 195.806L311.916 196.057L309.411 195.556L306.906 195.973L304.4 196.057L301.895 195.639L299.39 195.305L296.884 194.637L294.379 195.89L291.874 194.553L289.368 195.389L286.863 195.89L284.358 194.637L281.852 195.138L279.347 194.971L276.841 194.637L274.42 195.639L271.914 195.806L269.409 194.72L266.904 195.054L264.398 194.72L261.893 194.971L259.388 195.472L256.882 195.723L254.377 195.806L251.871 195.472L249.366 195.639L246.861 195.806L244.355 195.973H241.85L239.345 195.305L236.839 195.138L234.334 195.89L231.829 195.806L229.323 194.637L226.818 196.057L224.396 195.222L221.891 194.637L219.385 194.47L216.88 194.637L214.375 194.47L211.869 195.806L209.364 195.89L206.859 195.305L204.353 196.14L201.848 195.806L199.343 195.389L196.837 194.804L194.332 194.971L191.826 194.887L189.321 194.637L186.816 194.971L184.31 195.305L181.805 196.057H179.3L176.794 195.973L174.289 195.556L171.784 194.553L169.362 196.057L166.856 195.138L164.351 194.72L161.846 195.723L159.34 194.47L156.835 195.389L154.33 196.057L151.824 195.973L149.319 195.222H146.814L144.308 194.47L141.803 195.639L139.298 194.72L136.792 196.057L134.287 195.89L131.781 194.887L129.276 195.806L126.771 194.72L124.349 194.637L121.844 195.389L119.338 195.305L116.833 195.138L114.328 195.389L111.822 195.89H109.317L106.812 195.138L104.306 195.89H101.801L99.2955 195.639L96.7901 195.472L94.2848 195.222L91.7794 194.637L89.2741 194.72L86.7687 195.89L84.2633 195.639L81.758 195.806L79.2526 195.222L76.7473 195.639L74.2419 195.389L71.7366 195.222L69.2312 194.971L66.7259 195.138L64.2205 195.556L61.7152 195.472L59.2098 194.637L56.7045 195.973H54.1991L51.6937 195.389L49.1884 195.556H46.683L44.1777 195.222L41.6723 194.553H39.167H36.6616L34.1563 195.89L31.6509 195.054L29.1456 194.72L26.6402 194.971L24.1349 195.89L21.6295 195.305L19.1242 194.47L16.2847 194.971L16.0342 197.811V200.317L16.4518 202.823L15.8672 205.329L16.7858 207.835L16.4518 210.341L16.0342 212.847L15.7837 215.27L17.2033 217.776L15.8672 220.282L17.0364 222.788L17.3704 225.294L16.7023 227.8L17.0364 230.306L15.9507 232.812L16.7858 235.318L16.4518 237.824L16.2012 240.331L16.0342 242.837L15.9507 245.343V247.849L16.7858 250.355L15.7837 252.861L16.2847 255.367L16.1177 257.873L15.8672 260.379L16.3682 262.885L16.8693 265.391L16.2847 267.897L16.3682 270.403L15.8672 272.909L17.3704 275.415L16.2847 277.921L17.0364 280.427L15.9507 282.933V285.439L16.1177 287.946L16.8693 290.452L16.3682 292.958V295.464L17.0364 297.97L16.7023 300.476L16.1177 302.982L16.3682 305.488L16.1177 307.994L17.2033 310.5L16.2847 313.006L16.6188 315.512L16.3682 318.018L16.0342 320.524L16.7858 323.03V325.536L16.7023 328.042L16.1177 330.548L15.9507 333.054L16.7858 335.561L16.4518 338.067L16.5353 340.573L15.9507 343.079L16.1177 345.585L16.4518 348.091L16.5353 350.597L17.3704 353.103L16.2847 355.609L16.1177 358.115L17.4539 360.621L16.2012 363.044L16.1177 365.55L17.3704 368.056L16.9528 370.562L16.2847 373.068L15.8672 375.574L17.2869 378.08L16.0342 380.586L16.8693 383.092L17.2869 385.598L16.2847 388.104L16.7023 390.61L17.0364 393.116L16.5353 395.622L16.3682 398.128L16.4518 400.634L16.8693 403.14L16.5353 405.646L16.2847 408.153L17.3704 410.659L15.8672 413.165L16.2847 415.671L17.2869 418.177L16.6188 420.683L16.9528 423.189L17.2869 425.695L16.2847 428.201L17.2869 430.707L17.2033 433.213L16.7023 435.719L17.4539 438.225L16.1177 440.731L16.3682 443.237L16.7858 445.743L16.7023 448.249L16.3682 450.755L16.2847 453.261L16.1177 455.768L16.8693 458.274L16.5353 460.78L16.7023 463.286L15.7837 465.792L17.0364 468.298L16.2847 470.804L16.8693 473.31L17.4539 475.816L17.2033 478.322L16.7023 480.828L16.7858 483.334L17.2033 485.84L16.2847 488.346L16.6188 490.852L16.8693 493.358L16.0342 495.864L17.2869 498.454L16.3682 500.96L17.0364 503.466L16.8693 505.972L16.7858 508.478V510.984L17.1198 513.49L16.6188 515.996L16.0342 519.087Z" stroke="#1A1C28" stroke-width="2" stroke-miterlimit="10"/>
<path d="M226.902 619.83L227.737 616.74L227.236 614.15L226.902 611.644L226.818 609.138L227.152 606.632L227.403 604.126L227.904 601.536L227.57 599.03L226.902 596.524L226.651 594.018L226.985 591.429L228.071 588.922L226.734 586.416L227.653 583.91L227.987 581.321L228.154 578.815L228.071 576.309L228.154 573.803L226.818 571.297L228.154 568.707L227.319 566.201L227.987 563.695L227.653 561.189L227.987 558.683L227.57 556.093L228.154 553.587L227.486 551.081V548.575L226.902 546.069L227.82 543.479L227.319 540.973L227.653 538.467L227.069 535.961L226.985 533.455L227.737 530.866L227.486 528.36L228.238 525.854L227.653 523.347V520.841L227.403 518.168M338.64 619.496L337.722 616.74L338.724 614.234L338.306 611.728L339.058 609.138L338.473 606.632L338.139 604.126L338.306 601.62L338.724 599.114L337.555 596.524L339.058 594.018L337.889 591.512L337.722 589.006L338.807 586.5V583.91L338.39 581.404L338.724 578.898L337.555 576.392L338.139 573.886L338.974 571.297L338.807 568.791L338.306 566.285L339.058 563.778L338.39 561.189L338.974 558.683L337.805 556.177L338.557 553.671V551.165L338.139 548.575L337.722 546.069L338.807 543.563L337.889 541.057L338.223 538.551L338.473 535.961L338.891 533.455L337.638 530.949V528.443L338.473 525.854L337.638 523.347L338.223 520.841L338.139 518.586" stroke="#1A1C28" stroke-width="2" stroke-miterlimit="10"/>
<path d="M21.2119 620.081L23.7173 619.747L26.2226 619.246L28.728 618.828L31.1498 618.661H33.6552L36.1605 619.998L38.6659 619.413H41.1712L43.6766 619.496L46.1819 619.914L48.6873 618.828L51.1926 619.914L53.698 619.329L56.2033 618.494L58.7087 618.661L61.2141 619.079L63.7194 619.246H66.2248L68.7301 619.079L71.2355 619.747L73.7408 618.745L76.2462 619.58L78.7515 619.83L81.2569 618.912L83.7622 619.413H86.2676L88.7729 619.747L91.2783 619.246L93.7836 618.494L96.289 620.081L98.7944 619.914L101.3 618.912L103.805 618.745L106.31 618.577L108.816 619.413L111.321 618.912L113.826 619.58L116.332 618.661L118.837 619.998L121.343 618.494L123.848 619.747L126.353 619.162L128.859 619.246L131.364 619.58L133.869 618.661L136.375 619.58L138.88 619.162L141.385 619.914L143.891 619.413L146.396 618.995L148.901 619.246L151.407 619.58L153.912 618.494L156.417 619.998L158.923 618.828L161.428 618.577L163.934 619.747L166.439 619.663L168.944 619.329L171.45 619.58L173.955 618.41L176.46 619.079L178.966 619.83L181.471 619.747L183.976 619.246L186.482 619.998L188.987 619.246L191.492 619.83L193.998 618.745L196.503 619.413L199.008 619.496L201.514 619.079L204.019 618.661L206.525 619.747L209.03 618.745L211.535 619.079L214.041 619.329L216.546 619.83L219.051 618.577H221.557L224.062 619.413L226.567 618.577L229.073 619.079L231.578 618.912L234.083 619.747L236.589 620.081L239.094 618.912L241.599 618.995L244.105 618.41L246.61 618.494L249.116 618.995L251.621 619.496L254.126 619.998L256.632 619.413L259.137 619.58L261.642 619.413L264.148 618.494L266.653 619.747L269.158 619.914L271.664 619.413L274.169 619.329L276.674 618.494L279.18 618.995L281.685 618.661L284.191 619.914L286.696 618.912L289.201 618.828L291.707 618.745L294.212 618.912L296.717 619.998L299.223 618.995L301.728 619.998L304.233 620.081L306.739 619.998L309.244 618.912L311.749 618.995L314.255 619.747L316.76 618.995L319.265 618.828L321.771 619.747L324.276 618.661L326.782 619.663L329.287 619.83L331.792 618.494L334.298 618.828L336.803 618.995L339.308 619.413H341.814L344.319 619.079H346.824L349.33 618.577L351.919 619.246L354.424 618.995L356.929 619.747L359.435 619.663L361.94 619.162L364.445 619.413L366.951 618.912L369.456 619.83L371.961 619.246L374.467 619.329L376.972 618.661L379.477 619.162L381.983 618.745L384.488 619.162L386.994 618.745L389.499 619.413L392.004 618.661L394.51 619.914L397.015 618.577L399.52 618.745L402.026 618.577L404.531 618.828L407.036 619.079L409.542 619.998L412.047 618.661L414.552 619.747L417.058 620.081L419.563 619.83L422.068 619.162L424.574 618.912L427.079 619.329L429.585 619.58L432.09 619.914L434.595 619.83L437.101 619.496L439.606 618.995L442.111 618.912L444.617 619.747L447.122 618.912L449.627 619.58L452.133 618.577L454.638 618.41L457.227 619.914L459.732 619.329L462.238 619.162L464.743 619.58L467.248 618.661L469.754 618.828L472.259 620.081L474.764 619.663L477.27 619.83L479.775 618.41L482.28 619.496L484.786 619.246L487.291 618.912L489.797 618.494L492.302 618.828H494.807L497.313 618.995L499.818 619.162L502.323 619.496L504.912 619.329L507.418 618.494L509.923 619.914L512.428 618.995L514.934 618.494L517.439 619.998L519.944 619.413L522.45 619.162L524.955 619.079L527.46 619.58L529.966 619.914L532.471 618.494L534.976 618.828L537.482 619.079L539.987 619.413L542.576 618.494L545.081 619.58L547.587 618.577L550.092 619.329V618.995L547.587 619.162L545.081 619.079L542.576 618.995L540.071 619.162L537.565 619.663L535.06 620.081L532.555 618.577L530.049 618.41L527.544 618.577L525.039 618.661L522.533 619.329L520.111 619.58L517.606 619.663L515.101 618.828L512.595 619.914L510.09 618.912L507.585 619.413L505.079 619.079L502.574 618.828L500.068 619.246L497.563 619.747L495.058 620.081L492.552 618.577L490.047 619.162L487.542 619.58L485.036 619.663L482.531 618.995L480.026 619.998L477.52 619.162L475.015 619.329L472.51 619.83L470.004 619.747L467.499 619.663L464.994 619.83L462.488 618.577L459.983 618.828L457.477 619.998L454.972 618.41L452.467 618.828L449.961 619.496L447.456 618.828L444.951 619.58L442.445 618.912L439.94 619.079L437.435 619.162L434.929 619.079L432.424 619.496L429.919 619.83L427.413 619.663L424.908 619.998L422.403 619.747L419.897 618.828L417.392 619.496L414.886 618.828L412.381 618.995L409.876 619.58L407.37 618.494L404.865 618.912L402.36 619.246L399.854 619.413L397.349 619.162L394.844 618.995L392.338 619.663L389.833 618.661L387.328 619.413L384.822 618.995L382.317 619.246L379.812 619.998L377.306 619.079L374.801 618.828L372.295 619.83L369.79 619.079L367.285 619.58H364.779L362.274 620.081L359.769 619.747L357.263 618.828L354.758 619.413L352.253 618.577L349.747 619.998L347.242 619.413L344.737 619.83L342.231 619.998L339.726 619.496L337.221 619.914L334.715 619.413H332.21L329.704 619.914L327.199 618.995L324.694 619.496L322.188 618.577L319.683 618.661L317.178 619.998H314.672L312.167 619.496L309.662 619.83L307.156 619.747L304.651 618.828L302.146 620.081L299.64 618.661L297.135 618.995L294.629 618.577L292.124 619.914L289.619 619.747L287.113 618.661L284.608 618.995L282.103 619.914L279.597 618.828L277.092 619.413L274.587 619.83L272.081 619.329L269.576 619.83L267.071 619.329L264.565 619.246L262.06 619.58L259.555 619.83L257.049 618.577L254.544 619.079L251.955 618.577L249.45 619.914L246.944 619.329L244.439 619.246L241.934 619.162L239.428 618.828L236.923 618.912L234.418 619.914L231.912 619.413L229.407 618.494L226.901 619.246L224.396 618.912L221.891 618.494L219.385 619.246L216.88 619.663L214.375 620.081L211.869 619.998L209.364 618.494L206.859 619.663L204.353 618.494L201.848 619.079L199.343 619.162L196.837 619.83L194.332 618.661L191.826 619.747L189.321 619.413L186.816 619.162L184.31 620.081L181.805 618.494L179.3 618.661L176.794 619.663L174.289 618.494L171.784 619.747L169.278 618.828L166.773 619.914L164.268 618.577L161.762 618.494L159.257 619.329L156.752 619.83L154.246 619.496L151.741 618.995L149.235 619.413L146.73 618.745L144.225 619.496L141.719 618.828L139.131 619.998L136.625 619.329L134.12 618.912L131.614 618.745L129.109 618.577L126.604 619.83L124.098 619.663L121.593 620.081L119.088 618.828H116.582L114.077 619.246L111.572 618.995L109.066 619.914L106.561 619.079L104.056 619.663L101.55 618.577H99.0449H96.5395L94.0342 619.914L91.5288 618.661L89.0235 618.745L86.5181 618.41L84.0128 618.661L81.5074 619.079L78.9186 618.661L76.4132 619.58H73.9079L71.4025 618.494H68.8971L66.3918 619.413L63.8864 618.494L61.3811 618.912L58.8757 619.496L56.3704 618.995H53.865L51.3597 619.246L48.8543 619.413L46.349 618.828L43.8436 620.081L41.3383 618.828L38.7494 619.58L36.2441 619.83L33.7387 619.998L31.2334 618.745H28.728L26.2226 619.914L23.7173 619.496L20.9614 618.661L21.2119 620.081Z" stroke="#1A1C28" stroke-width="2" stroke-miterlimit="10"/>
<path d="M336.135 195.89L334.047 194.72L331.959 194.887L329.872 194.72L327.784 196.057L325.696 194.72L323.608 195.389L321.604 196.14L319.516 194.887L317.428 195.89L315.34 195.556L313.253 194.971L311.248 195.138L309.161 195.806L307.073 194.887L304.985 195.806L302.897 194.887L300.809 195.138L298.805 194.887H296.717L294.63 196.057L292.542 195.222L290.454 194.887L288.366 194.804L286.278 195.723L284.274 194.971L282.186 195.054L280.098 195.89L278.011 194.72L275.923 196.057L273.835 194.72L271.747 195.054L269.743 195.806L267.655 196.057L265.567 196.14L263.48 195.305L261.392 195.806L259.304 196.307L257.216 196.057L255.212 195.973L253.124 195.305L251.036 196.14L248.949 195.973L246.861 196.307H244.773L242.685 195.639L240.597 196.057L238.593 194.971L236.505 195.389L234.418 195.054H232.33L230.242 196.307L228.154 194.804L226.066 195.723L223.979 196.224L221.974 195.305L219.886 195.973L217.799 195.222L215.711 195.973L213.623 194.971L211.535 194.804L209.448 194.971L207.36 195.222L205.355 196.224L203.268 195.973L201.18 196.14L199.092 196.057L197.004 195.806L194.916 195.138L192.829 195.305L190.741 195.723L188.653 195.305L186.565 195.973L184.477 195.723L182.39 195.138L180.385 195.222" fill="white"/>
<path d="M336.135 195.89L334.047 194.72L331.959 194.887L329.872 194.72L327.784 196.057L325.696 194.72L323.608 195.389L321.604 196.14L319.516 194.887L317.428 195.89L315.34 195.556L313.253 194.971L311.248 195.138L309.161 195.806L307.073 194.887L304.985 195.806L302.897 194.887L300.809 195.138L298.805 194.887H296.717L294.63 196.057L292.542 195.222L290.454 194.887L288.366 194.804L286.278 195.723L284.274 194.971L282.186 195.054L280.098 195.89L278.011 194.72L275.923 196.057L273.835 194.72L271.747 195.054L269.743 195.806L267.655 196.057L265.567 196.14L263.48 195.305L261.392 195.806L259.304 196.307L257.216 196.057L255.212 195.973L253.124 195.305L251.036 196.14L248.949 195.973L246.861 196.307H244.773L242.685 195.639L240.597 196.057L238.593 194.971L236.505 195.389L234.418 195.054H232.33L230.242 196.307L228.154 194.804L226.066 195.723L223.979 196.224L221.974 195.305L219.886 195.973L217.799 195.222L215.711 195.973L213.623 194.971L211.535 194.804L209.448 194.971L207.36 195.222L205.355 196.224L203.268 195.973L201.18 196.14L199.092 196.057L197.004 195.806L194.916 195.138L192.829 195.305L190.741 195.723L188.653 195.305L186.565 195.973L184.477 195.723L182.39 195.138L180.385 195.222" stroke="#1A1C28" stroke-width="2" stroke-miterlimit="10"/>
<path d="M316.092 126.389C316.092 126.389 294.212 162.309 319.516 185.866C333.797 199.148 444.032 194.971 444.032 194.971L484.118 254.448L524.203 229.889C524.203 229.889 507.334 205.998 490.214 182.775C460.818 142.845 460.484 143.597 453.636 141.759C441.443 138.418 376.388 138.835 376.388 138.835L362.692 117.952L316.092 126.389Z" fill="#5a77dc"/>
<path d="M465.495 192.214L466.58 194.303L467.582 196.391L468.501 198.479L469.67 200.568L470.923 202.489L472.176 204.41L473.261 206.499L474.096 208.671L474.848 210.926L476.351 212.764L477.27 214.852L478.188 217.024L479.525 218.946L481.028 220.783L481.612 223.122L482.865 225.044L483.7 227.216L485.287 228.97L486.039 231.225L487.124 233.314L488.627 235.151L489.296 237.407L490.632 239.328" stroke="#1A1C28" stroke-width="2" stroke-miterlimit="10" stroke-linecap="round" stroke-linejoin="round"/>
<path class="talking" d="M300.141 0.835358L300.559 3.09081L301.06 5.26272L301.895 7.3511L302.647 9.52301V11.862L303.398 13.9504L304.15 16.1223" stroke="#1A1C28" stroke-width="2" stroke-miterlimit="10" stroke-linecap="round" stroke-linejoin="round"/>
<path class="talking" d="M285.777 11.0266L287.113 12.8644L288.784 14.368L290.036 16.2894L291.707 17.793L293.627 19.046" stroke="#1A1C28" stroke-width="2" stroke-miterlimit="10" stroke-linecap="round" stroke-linejoin="round"/>
<path class="talking" d="M273.752 29.4044L275.923 29.7385L278.178 29.822L280.433 29.7385L282.604 30.1562L284.859 30.2397L287.03 30.4903L289.285 30.2397L291.54 30.3232L293.711 30.6574" stroke="#1A1C28" stroke-width="2" stroke-miterlimit="10" stroke-linecap="round" stroke-linejoin="round"/>
<path d="M281.268 84.1198L299.891 114.109C300.559 115.111 301.812 115.613 302.981 115.195L312 112.104L316.092 123.966L361.857 115.696L360.771 104.586L365.364 104.837L384.572 79.609L370.959 62.4007C370.959 62.2336 370.876 62.1501 370.709 62.0666C369.623 61.816 364.111 61.1477 336.218 59.477C336.218 59.477 332.21 62.9019 325.779 63.3196C322.69 63.4867 320.435 61.1477 320.435 61.1477C286.529 69.5847 281.268 84.1198 281.268 84.1198Z" fill="#e35531"/>
<path d="M307.908 98.5714L308.242 100.743L308.826 102.915L309.662 105.004L310.747 106.925L310.998 109.18L311.749 111.269L312.25 113.524L313.67 115.362L313.837 117.617L315.09 119.539L315.507 121.794L316.176 123.883" stroke-width="2" stroke="#1A1C28" stroke-miterlimit="10" stroke-linecap="round" stroke-linejoin="round"/>
<path d="M359.518 81.2797L359.184 83.5351L359.268 85.8741L359.602 88.1295L360.186 90.3015L359.852 92.6404L360.103 94.8959L360.019 97.1513L360.938 99.4068L360.604 101.662L361.272 103.918L361.188 106.173L361.355 108.429L361.606 110.684L361.522 113.023L361.606 115.278" stroke-width="2" stroke="#1A1C28" stroke-miterlimit="10" stroke-linecap="round" stroke-linejoin="round"/>
<path d="M298.638 117.534C298.638 118.035 298.221 118.536 297.636 118.536C297.135 118.536 296.634 118.119 296.634 117.534C296.634 117.033 297.051 116.531 297.636 116.531C298.221 116.531 298.638 116.949 298.638 117.534Z" fill="white"/>
<path d="M271.079 110.517C271.079 111.018 270.662 111.519 270.077 111.519C269.576 111.519 269.075 111.102 269.075 110.517C269.075 110.016 269.492 109.515 270.077 109.515C270.662 109.598 271.079 110.016 271.079 110.517Z" fill="white"/>
<path d="M287.197 96.7337C287.197 97.2349 286.779 97.7361 286.195 97.7361C285.694 97.7361 285.193 97.3184 285.193 96.7337C285.193 96.2324 285.61 95.7312 286.195 95.7312C286.779 95.8148 287.197 96.2324 287.197 96.7337Z" fill="white"/>
<path d="M347.075 141.425L349.33 141.174L351.668 140.757L353.923 140.005L356.261 140.088H358.516L360.854 139.671L363.193 139.587L365.448 139.504L367.786 139.253L370.041 138.835L372.379 138.585L374.717 138.668L377.056 138.501L379.311 138L381.565 138.167L383.82 138.084L386.158 138.334L388.413 137.749L390.668 137.666L393.006 138.251H395.261L397.516 138.418L399.771 138.167L402.109 138.585L404.364 138L406.619 138.501L408.957 138.835L411.212 138.585L413.467 138.334L415.805 138.585L418.06 138.752L420.315 139.002L422.57 139.169L424.908 138.919L427.163 138.835L429.418 139.253L431.756 139.42L434.011 139.671L436.266 139.838L438.604 139.921L440.859 139.838L443.114 140.255L445.368 140.59L447.623 140.84L449.961 140.673L452.133 141.508L454.388 142.01L456.642 142.427L458.981 142.678L460.4 144.516L462.405 145.936L463.323 148.108L465.244 149.528L466.497 151.533L468 153.287L469.253 155.208L471.09 156.795L472.259 158.717L473.929 160.387L474.931 162.559L476.685 164.146L477.938 166.068L479.358 167.906L480.527 169.994L481.779 171.915L483.45 173.586L484.535 175.591L486.039 177.345L487.542 179.183L489.045 180.937L490.548 182.691L491.968 184.529L493.137 186.534L494.724 188.288L495.559 190.544L497.313 192.131L498.482 194.219L499.902 195.973L501.321 197.811L502.49 199.816L504.161 201.487L505.163 203.659L506.499 205.58L508.253 207.167L509.338 209.255L511.092 210.843L512.011 213.015L513.096 215.103L515.017 216.523L516.353 218.444L517.522 220.533L518.775 222.454L520.028 224.459L521.865 225.962L522.7 228.134L524.537 230.139L522.199 231.058L520.028 232.061L518.358 233.731L516.019 234.483L514.015 235.736L512.011 236.906L510.34 238.743L508.002 239.412L506.165 240.915L504.328 242.419L501.989 243.171L500.319 244.758L498.231 245.927L496.06 246.846L494.056 248.183L492.218 249.686L489.964 250.522L488.21 252.109L485.955 252.944L484.034 254.281" stroke="#1A1C28" stroke-width="2" stroke-miterlimit="10" stroke-linecap="round" stroke-linejoin="round"/>
<path d="M198.591 268.398L200.679 268.064L202.683 269.401L204.771 268.482H206.775L208.779 268.064L210.867 269.317L212.871 268.231L214.959 268.064L216.964 267.814L219.051 268.649L221.056 268.816" fill="white"/>
<path d="M198.591 268.398L200.679 268.064L202.683 269.401L204.771 268.482H206.775L208.779 268.064L210.867 269.317L212.871 268.231L214.959 268.064L216.964 267.814L219.051 268.649L221.056 268.816" stroke="#1A1C28" stroke-width="2" stroke-miterlimit="10"/>
<path d="M298.471 64.9068V67.1622L298.555 69.2506L298.638 71.339L298.805 73.4273L298.889 75.5157L298.054 77.6041L298.805 79.6925V81.7809L298.555 83.8692L298.137 85.8741L298.972 87.9625L298.471 90.0508L298.304 92.1392L298.221 94.2276L298.471 96.316L298.722 98.4043L298.137 100.493L298.805 102.581L297.552 104.586L298.638 106.674L298.471 108.763L297.803 110.851L298.471 112.939L299.056 115.028L298.388 117.116L298.555 119.205L299.056 121.293L297.97 123.298L298.805 125.386L298.137 127.475L298.054 129.563L298.137 131.651L297.887 133.74L298.388 135.828L297.887 137.916L299.139 140.005L297.803 142.093L297.552 144.098L298.972 146.186L297.97 148.275L298.054 150.363L299.139 152.452L297.803 154.54L298.054 156.628L298.304 158.717L298.555 160.805L298.304 162.893L297.887 164.982L298.471 167.07L297.72 169.075L298.889 171.163L297.803 173.252L298.555 175.34L298.388 177.429L298.137 179.517L298.388 181.605L298.722 183.694L298.889 185.782L298.388 187.87L298.638 189.959L298.889 192.047L298.471 194.136L297.552 196.224L298.221 198.229L298.304 200.317L297.97 202.406L298.805 204.494L298.471 206.582L297.72 208.671L298.805 210.759V212.847L298.972 214.936L297.887 217.024L298.555 219.113L298.638 221.201L299.056 223.289L298.889 225.378V227.466L298.555 229.554L298.471 231.643L298.889 234.232L296.216 233.564L294.129 233.815L292.124 232.979L290.036 234.483L287.949 233.815L285.861 234.483L283.773 233.982L281.685 233.815L279.681 234.316L277.593 234.4L275.505 233.146L273.418 233.648L271.33 234.483L269.326 234.4L267.238 233.564H265.15L263.062 233.314L260.974 234.4L258.887 234.316L256.882 233.397L254.794 234.232L252.707 233.982L250.619 233.731L248.531 234.149L246.443 234.232L244.439 233.063L242.351 234.232L240.263 234.316L238.176 233.23L236.088 234.232L234 234.065L231.912 234.316L229.908 234.232L227.82 234.149L225.732 233.982L223.645 234.734L221.557 234.316L219.469 233.564L217.882 234.065L219.469 233.481L221.557 234.4L223.645 234.65L225.732 234.149L227.82 233.314L229.908 234.232L231.996 233.564L234 234.567L236.088 234.483L238.176 234.817L240.263 233.397L242.351 234.984L244.439 233.481L246.527 233.397L248.615 234.901L250.702 234.483L252.79 234.734L254.794 234.984L256.882 233.731L258.97 234.817L261.058 234.984L263.146 234.483L265.233 233.564L267.321 233.731L269.409 234.4L271.497 234.232L273.585 234.065L275.672 235.068L277.677 235.151L279.764 233.982L281.852 233.898L283.94 234.734L286.028 233.898L288.116 235.068L290.203 234.483L292.291 233.982L294.379 233.898L296.467 235.318L298.555 234.734L300.642 233.815L302.73 234.065L304.734 234.984L306.822 234.316H308.91L310.998 235.068L313.086 234.567L315.173 234.483L317.261 234.149L319.349 234.316L321.437 235.653L323.859 234.4L325.362 236.488L327.784 236.989L329.12 238.91L329.37 241.166L330.122 243.338L329.12 245.426L329.37 247.514L329.872 249.519L329.955 251.608L329.705 253.696L329.621 255.784L329.036 257.873L329.788 259.961L329.538 262.05L329.287 264.138L329.788 266.226L330.289 268.315L330.039 270.403L330.54 272.492L329.12 274.58L329.538 276.668V278.673L330.289 280.761L330.623 282.85L330.54 284.938L330.122 287.027L330.206 289.115L329.621 291.203L329.036 293.292L330.122 295.38L329.621 297.469L329.538 299.557L330.122 301.645L329.955 303.65L329.12 305.738L329.705 307.827L330.54 309.915L330.289 312.004L329.12 314.092L330.206 316.18L330.289 318.269L329.036 320.357L330.54 322.445L329.705 324.534L330.456 326.622L329.203 328.711L329.37 330.799L329.538 332.887L330.206 334.892L329.036 336.981L330.289 339.069L329.621 341.157L329.955 343.246L330.707 345.334L329.955 347.422L329.788 349.511L329.872 351.599L330.289 353.688L329.621 355.776L330.122 357.864L329.621 359.953L329.872 362.041L329.538 364.13L330.456 366.218L330.54 368.306L330.289 370.395L329.454 372.483L329.287 374.571L329.705 376.66L329.287 378.748L329.203 380.753L329.538 382.841L330.456 384.93L330.122 387.018L330.623 389.107L329.872 391.195L329.12 393.283L329.955 395.372L330.456 397.46L330.039 399.548V401.637L329.287 403.725L329.955 405.814L330.289 407.902V409.99L330.122 412.079L329.872 414.167L329.37 416.255L330.289 418.344L329.788 420.432L329.955 422.521L330.373 424.609L329.538 426.697L329.621 428.535L327.784 429.036L325.696 429.12L323.608 428.368L321.52 429.37L319.433 428.284L317.345 428.452L315.257 428.953L313.169 428.284L311.081 429.37L308.994 428.452L306.989 428.284L304.902 428.117H302.814L300.726 428.284L298.638 428.452L296.55 428.535L294.463 427.95L292.375 428.034L290.287 428.702L288.199 429.37L286.111 428.201L284.024 428.452L281.936 429.12L279.848 428.702L277.76 429.37L275.672 428.284L273.585 428.201L271.497 428.535L269.409 428.368L267.405 428.786L265.317 429.538L263.229 428.535L261.141 428.869L259.054 429.538L256.966 428.702L254.878 428.034L252.79 429.203L250.702 428.201L248.615 428.786L246.527 428.201L244.439 428.284L242.351 429.036L240.263 428.619L238.176 429.454L236.088 429.036L234 427.95L231.912 428.869L229.824 428.535L227.737 428.201L225.899 428.535L225.732 426.697L225.482 424.609L225.816 422.604L225.732 420.516L224.981 418.427L225.231 416.339L226.233 414.251L225.565 412.162L225.816 410.074L224.981 407.985L225.816 405.981L226.4 403.892V401.804L226.066 399.715L225.315 397.627L224.897 395.539L225.983 393.45L225.899 391.445L225.398 389.357L225.565 387.269L226.317 385.18L225.398 383.092L225.565 381.004V378.915L226.066 376.827L225.899 374.738L226.15 372.734L226.233 370.645L225.649 368.557L224.814 366.469L226.317 364.38L226.233 362.292L226.15 360.203L224.897 358.115L226.4 356.027L225.649 354.022L225.482 351.933L225.732 349.845L225.482 347.757L225.732 345.668L225.816 343.58L225.732 341.491L224.897 339.403L225.649 337.315L226.15 335.226L226.317 333.138L226.233 331.133L224.814 329.045L224.981 326.956L225.398 324.868L225.148 322.78L224.897 320.691V318.603L225.482 316.514L225.148 314.426L225.899 312.338L225.231 310.249L225.148 308.245L226.484 306.156L225.899 304.068L225.649 301.979L224.897 299.891L225.983 297.803L225.482 295.714L225.983 293.626L226.066 291.538L224.981 289.449L226.233 287.361L225.231 285.272L225.482 283.184L225.148 281.179L226.066 279.091L225.983 277.002L226.317 274.914L225.231 272.826L225.899 270.737L225.398 268.649L226.15 266.644L225.482 264.556V262.551L225.565 260.546L225.231 258.541L224.981 256.536L225.732 254.531L225.899 252.527L225.816 250.522L225.983 248.433L225.899 246.429L226.233 244.424L226.15 242.419L225.315 240.331L223.895 238.66L222.976 236.822L221.807 234.817L219.552 234.483L217.381 234.316V234.567H215.293L213.456 235.569L211.869 236.906L210.951 238.66L209.782 240.331V242.419L208.863 244.507L208.947 246.512L209.698 248.6L209.448 250.689L209.531 252.777L208.947 254.782L208.779 256.87L208.362 258.959L208.779 261.047L209.698 263.052L208.195 264.973L207.694 267.145L205.857 268.565L203.602 268.315L201.43 268.398L199.259 267.396L197.839 265.475L197.422 263.052L198.006 260.964L198.758 258.959L197.589 256.87L197.422 254.782L198.758 252.694V250.605L198.591 248.517L197.923 246.429L197.255 244.34L198.675 242.252L198.424 240.163L197.756 238.075L197.839 235.987L198.424 233.898L198.591 231.81L198.424 229.722L198.09 227.717V225.628L198.424 223.54L197.255 221.452L198.424 219.363L198.925 217.275L197.756 215.186L198.173 213.098L198.424 211.01L197.672 208.921L197.255 206.833L197.839 204.745L198.424 202.656L197.756 200.651L197.672 198.563L197.756 196.475L197.923 194.386L197.255 192.298L198.006 190.209L197.839 188.121L198.173 186.033L197.505 183.944L197.839 181.856L198.424 179.768V177.679L197.422 175.674L198.424 173.586L197.255 171.498L198.09 169.409L198.758 167.321L198.173 165.232L197.672 163.144L197.505 161.056L198.842 158.967L198.09 156.879L197.255 154.791L197.756 152.702L197.923 150.614V148.525L198.257 146.437L198.09 144.349L197.505 142.344L198.842 140.255L197.756 138.167L197.589 136.079L197.839 133.99L198.257 131.902L198.173 129.814L197.422 127.725L198.09 125.637L198.508 123.548L198.591 121.46V119.372L197.338 117.283L198.508 115.195L198.341 113.107L198.591 111.018L197.923 108.93L197.422 106.841L197.756 104.753L197.505 102.665L197.589 100.576L197.756 98.4879L197.505 96.483L198.424 94.3947L198.675 92.3063V90.2179L198.173 88.1295L198.591 86.0411V83.9528L197.589 81.8644V79.776V77.6876L197.923 75.5993L198.173 73.5109L197.756 71.4225L197.589 69.3341L197.422 67.2458L198.006 64.9903L200.178 65.6586L202.266 64.4056L204.353 64.5726L206.441 64.9903H208.529L210.617 64.6562L212.705 65.8257L214.792 65.408L216.88 65.0738L218.968 65.575L221.056 64.4891L223.144 64.5726L225.231 65.408L227.319 65.0738L229.407 65.408L231.495 64.5726L233.582 64.8232L235.67 65.408L237.758 65.3244L239.846 64.5726L241.934 65.6586L244.021 64.4891L246.109 64.6562L248.197 65.575L250.285 65.7421L252.373 65.575L254.46 64.9903L256.548 65.8257L258.636 64.9068L260.724 65.4915L262.812 65.7421H264.899L266.987 65.408L269.075 64.322L271.163 65.4915L273.251 64.4891L275.338 65.2409L277.426 64.4056L279.514 65.1574L281.602 65.3244L283.69 64.4056L285.777 64.6562L287.865 65.4915L289.953 65.2409L292.041 65.6586L294.129 64.7397L296.216 65.8257L298.471 64.9068Z" fill="white"/>
<path d="M229.908 234.232L231.912 234.316L234 234.065L236.088 234.232L238.176 233.23L240.263 234.316L242.351 234.232L244.439 233.063L246.443 234.232L248.531 234.149L250.619 233.731L252.707 233.982L254.794 234.232L256.882 233.397L258.887 234.316L260.974 234.4L263.062 233.314L265.15 233.564H267.238L269.326 234.4L271.33 234.483L273.418 233.648L275.505 233.146L277.593 234.4L279.681 234.316L281.685 233.815L283.773 233.982L285.861 234.483L287.949 233.815L290.036 234.483L292.124 232.979L294.129 233.815L296.216 233.564L298.889 234.232L298.471 231.643L298.555 229.554L298.889 227.466V225.378L299.056 223.289L298.638 221.201L298.555 219.113L297.887 217.024L298.972 214.936L298.805 212.847V210.759L297.72 208.671L298.471 206.582L298.805 204.494L297.97 202.406L298.304 200.317L298.221 198.229L297.552 196.224L298.471 194.136L298.889 192.047L298.638 189.959L298.388 187.87L298.889 185.782L298.722 183.694L298.388 181.605L298.137 179.517L298.388 177.429L298.555 175.34L297.803 173.252L298.889 171.163L297.72 169.075L298.471 167.07L297.887 164.982L298.304 162.893L298.555 160.805L298.304 158.717L298.054 156.628L297.803 154.54L299.139 152.452L298.054 150.363L297.97 148.275L298.972 146.186L297.552 144.098L297.803 142.093L299.139 140.005L297.887 137.916L298.388 135.828L297.887 133.74L298.137 131.651L298.054 129.563L298.137 127.475L298.805 125.386L297.97 123.298L299.056 121.293L298.555 119.205L298.388 117.116L299.056 115.028L298.471 112.939L297.803 110.851L298.471 108.763L298.638 106.674L297.552 104.586L298.805 102.581L298.137 100.493L298.722 98.4043L298.471 96.316L298.221 94.2276L298.304 92.1392L298.471 90.0508L298.972 87.9625L298.137 85.8741L298.555 83.8692L298.805 81.7809V79.6925L298.054 77.6041L298.889 75.5157L298.805 73.4273L298.638 71.339L298.555 69.2506L298.471 67.1622V64.9068L296.216 65.8257L294.129 64.7397L292.041 65.6586L289.953 65.2409L287.865 65.4915L285.777 64.6562L283.69 64.4056L281.602 65.3244L279.514 65.1574L277.426 64.4056L275.338 65.2409L273.251 64.4891L271.163 65.4915L269.075 64.322L266.987 65.408L264.899 65.7421H262.812L260.724 65.4915L258.636 64.9068L256.548 65.8257L254.46 64.9903L252.373 65.575L250.285 65.7421L248.197 65.575L246.109 64.6562L244.021 64.4891L241.934 65.6586L239.846 64.5726L237.758 65.3244L235.67 65.408L233.582 64.8232L231.495 64.5726L229.407 65.408L227.319 65.0738L225.231 65.408L223.144 64.5726L221.056 64.4891L218.968 65.575L216.88 65.0738L214.792 65.408L212.705 65.8257L210.617 64.6562L208.529 64.9903H206.441L204.353 64.5726L202.266 64.4056L200.178 65.6586L198.006 64.9903L197.422 67.2458L197.589 69.3341L197.756 71.4225L198.173 73.5109L197.923 75.5993L197.589 77.6876V79.776V81.8644L198.591 83.9528V86.0411L198.173 88.1295L198.675 90.2179V92.3063L198.424 94.3947L197.505 96.483L197.756 98.4879L197.589 100.576L197.505 102.665L197.756 104.753L197.422 106.841L197.923 108.93L198.591 111.018L198.341 113.107L198.508 115.195L197.338 117.283L198.591 119.372V121.46L198.508 123.548L198.09 125.637L197.422 127.725L198.173 129.814L198.257 131.902L197.839 133.99L197.589 136.079L197.756 138.167L198.842 140.255L197.505 142.344L198.09 144.349L198.257 146.437L197.923 148.525V150.614L197.756 152.702L197.255 154.791L198.09 156.879L198.842 158.967L197.505 161.056L197.672 163.144L198.173 165.232L198.758 167.321L198.09 169.409L197.255 171.498L198.424 173.586L197.422 175.674L198.424 177.679V179.768L197.839 181.856L197.505 183.944L198.173 186.033L197.839 188.121L198.006 190.209L197.255 192.298L197.923 194.386L197.756 196.475L197.672 198.563L197.756 200.651L198.424 202.656L197.839 204.745L197.255 206.833L197.672 208.921L198.424 211.01L198.173 213.098L197.756 215.186L198.925 217.275L198.424 219.363L197.255 221.452L198.424 223.54L198.09 225.628V227.717L198.424 229.722L198.591 231.81L198.424 233.898L197.839 235.987L197.756 238.075L198.424 240.163L198.675 242.252L197.255 244.34L197.923 246.429L198.591 248.517L198.758 250.605V252.694L197.422 254.782L197.589 256.87L198.758 258.959L198.006 260.964L197.422 263.052L197.839 265.475L199.259 267.396L201.43 268.398L203.602 268.315L205.857 268.565L207.694 267.145L208.195 264.973L209.698 263.052L208.779 261.047L208.362 258.959L208.779 256.87L208.947 254.782L209.531 252.777L209.448 250.689L209.698 248.6L208.947 246.512L208.863 244.507L209.782 242.419V240.33L210.951 238.66L211.869 236.906L213.456 235.569L215.293 234.567H217.381V234.316L219.552 234.483L221.807 234.817L222.976 236.822L223.895 238.66L225.315 240.33L226.15 242.419L226.233 244.424L225.899 246.429L225.983 248.433L225.816 250.522L225.899 252.527L225.732 254.531L224.981 256.536L225.231 258.541L225.565 260.546L225.482 262.551V264.556L226.15 266.644L225.398 268.649L225.899 270.737L225.231 272.826L226.317 274.914L225.983 277.002L226.066 279.091L225.148 281.179L225.482 283.184L225.231 285.272L226.233 287.361L224.981 289.449L226.066 291.538L225.983 293.626L225.482 295.714L225.983 297.803L224.897 299.891L225.649 301.979L225.899 304.068L226.484 306.156L225.148 308.245L225.231 310.249L225.899 312.338L225.148 314.426L225.482 316.514L224.897 318.603V320.691L225.148 322.78L225.398 324.868L224.981 326.956L224.814 329.045L226.233 331.133L226.317 333.138L226.15 335.226L225.649 337.315L224.897 339.403L225.732 341.491L225.816 343.58L225.732 345.668L225.482 347.757L225.732 349.845L225.482 351.933L225.649 354.022L226.4 356.027L224.897 358.115L226.15 360.203L226.233 362.292L226.317 364.38L224.814 366.469L225.649 368.557L226.233 370.645L226.15 372.734L225.899 374.738L226.066 376.827L225.565 378.915V381.004L225.398 383.092L226.317 385.18L225.565 387.269L225.398 389.357L225.899 391.445L225.983 393.45L224.897 395.539L225.315 397.627L226.066 399.715L226.4 401.804V403.892L225.816 405.981L224.981 407.985L225.816 410.074L225.565 412.162L226.233 414.251L225.231 416.339L224.981 418.427L225.732 420.516L225.816 422.604L225.482 424.609L225.732 426.697L225.899 428.535L227.737 428.201L229.824 428.535L231.912 428.869L234 427.95L236.088 429.036L238.176 429.454L240.263 428.619L242.351 429.036L244.439 428.284L246.527 428.201L248.615 428.786L250.702 428.201L252.79 429.203L254.878 428.034L256.966 428.702L259.054 429.538L261.141 428.869L263.229 428.535L265.317 429.538L267.405 428.786L269.409 428.368L271.497 428.535L273.585 428.201L275.672 428.284L277.76 429.37L279.848 428.702L281.936 429.12L284.024 428.452L286.111 428.201L288.199 429.37L290.287 428.702L292.375 428.034L294.463 427.95L296.55 428.535L298.638 428.452L300.726 428.284L302.814 428.117H304.902L306.989 428.284L308.994 428.452L311.081 429.37L313.169 428.284L315.257 428.953L317.345 428.452L319.433 428.284L321.52 429.37L323.608 428.368L325.696 429.12L327.784 429.036L329.621 428.535L329.538 426.697L330.373 424.609L329.955 422.521L329.788 420.432L330.289 418.344L329.37 416.255L329.872 414.167L330.122 412.079L330.289 409.99V407.902L329.955 405.814L329.287 403.725L330.039 401.637V399.548L330.456 397.46L329.955 395.372L329.12 393.283L329.872 391.195L330.623 389.106L330.122 387.018L330.456 384.93L329.538 382.841L329.203 380.753L329.287 378.748L329.705 376.66L329.287 374.571L329.454 372.483L330.289 370.395L330.54 368.306L330.456 366.218L329.538 364.13L329.872 362.041L329.621 359.953L330.122 357.864L329.621 355.776L330.289 353.688L329.872 351.599L329.788 349.511L329.955 347.422L330.707 345.334L329.955 343.246L329.621 341.157L330.289 339.069L329.036 336.981L330.206 334.892L329.538 332.887L329.37 330.799L329.203 328.711L330.456 326.622L329.705 324.534L330.54 322.445L329.036 320.357L330.289 318.269L330.206 316.18L329.12 314.092L330.289 312.004L330.54 309.915L329.705 307.827L329.12 305.738L329.955 303.65L330.122 301.645L329.538 299.557L329.621 297.469L330.122 295.38L329.036 293.292L329.621 291.203L330.206 289.115L330.122 287.027L330.54 284.938L330.623 282.85L330.289 280.761L329.538 278.673V276.668L329.12 274.58L330.54 272.492L330.039 270.403L330.289 268.315L329.788 266.226L329.287 264.138L329.538 262.05L329.788 259.961L329.036 257.873L329.621 255.784L329.705 253.696L329.955 251.608L329.872 249.519L329.37 247.514L329.12 245.426L330.122 243.338L329.37 241.166L329.12 238.91L327.784 236.989L325.362 236.488L323.859 234.4L321.437 235.653L319.349 234.316L317.261 234.149L315.173 234.483L313.086 234.567L310.998 235.068L308.91 234.316H306.822L304.734 234.984L302.73 234.065L300.642 233.815L298.555 234.734L296.467 235.318L294.379 233.898L292.291 233.982L290.203 234.483L288.116 235.068L286.028 233.898L283.94 234.734L281.852 233.898L279.764 233.982L277.677 235.151L275.672 235.068L273.585 234.065L271.497 234.232L269.409 234.4L267.321 233.731L265.233 233.564L263.146 234.483L261.058 234.984L258.97 234.817L256.882 233.731L254.794 234.984L252.79 234.734L250.702 234.483L248.615 234.901L246.527 233.397L244.439 233.481L242.351 234.984L240.263 233.397L238.176 234.817L236.088 234.483L234 234.567L231.996 233.564L229.908 234.232ZM229.908 234.232L227.82 234.149L225.732 233.982L223.645 234.734L221.557 234.316L219.469 233.564L217.882 234.065L219.469 233.481L221.557 234.4L223.645 234.65L225.732 234.149L227.82 233.314L229.908 234.232Z" stroke="#1A1C28" stroke-width="2" stroke-miterlimit="10" stroke-linecap="round" stroke-linejoin="round"/>
<path d="M244.899 368.306C246.903 366.803 249.409 366.051 250.578 363.712C250.327 364.213 249.743 363.962 250.578 363.962C250.912 363.962 251.246 363.879 251.58 363.879C252.248 363.879 252.916 364.046 253.584 364.046C254.252 364.046 254.252 364.297 253.835 363.879C254.085 364.046 254.252 364.297 254.42 364.464C254.837 364.881 255.338 365.466 255.839 365.884C258.011 367.387 260.432 367.22 262.854 366.636C265.193 366.134 267.113 364.464 269.368 363.795C269.953 363.628 270.537 363.461 271.122 363.378C271.038 363.378 270.537 363.127 271.205 363.545C271.539 363.712 271.957 363.795 272.291 364.046C272.291 364.046 272.375 364.213 272.625 364.464C272.792 364.631 272.792 364.798 273.043 364.881C273.627 365.132 274.379 364.881 274.963 364.881C275.882 364.881 277.051 365.383 278.137 365.466C279.473 365.55 280.726 365.466 282.062 365.299C284.066 365.048 287.156 366.301 289.244 367.22C290.163 367.554 291.415 368.473 292.501 368.64C293.587 368.807 294.756 367.722 295.507 367.471C297.01 366.97 298.096 367.304 299.599 367.22C301.27 367.137 302.021 367.053 303.691 367.387C304.944 367.638 306.03 367.972 307.282 367.889C308.786 367.805 310.205 367.805 311.709 367.972C312.794 368.056 312.794 366.385 311.709 366.301C309.955 366.218 308.201 366.385 306.447 366.301C305.195 366.218 303.357 365.383 301.938 365.383C301.186 365.383 300.434 365.55 299.683 365.633C298.848 365.633 298.013 365.55 297.261 365.633C295.424 365.8 294.171 366.469 292.584 367.304H293.419C291.666 366.552 289.912 365.717 288.158 365.048C286.739 364.547 284.567 363.795 283.064 363.712C281.31 363.628 279.39 364.13 277.803 363.879C276.968 363.712 276.133 363.378 275.297 363.378C274.796 363.378 274.212 363.378 273.711 363.461C274.212 363.378 274.462 364.046 273.961 363.378C273.794 363.211 273.711 362.96 273.46 362.793C270.454 360.454 266.529 363.545 263.773 364.798C263.105 365.132 262.186 365.299 261.267 365.466C261.1 365.466 260.766 365.466 260.349 365.466C260.015 365.466 258.428 365.383 259.013 365.55C258.261 365.299 257.175 364.798 256.758 364.38C256.006 363.795 255.505 362.793 254.587 362.542C253.167 362.125 250.244 362.041 249.242 363.211C248.824 363.712 248.574 364.464 248.073 364.881C248.49 364.464 246.987 365.299 246.736 365.383C245.901 365.8 245.15 366.469 244.315 367.053C243.229 367.554 244.064 368.975 244.899 368.306Z" fill="#1A1C28"/>
<path d="M245.4 404.978C246.653 404.059 247.572 403.057 248.741 402.054C249.576 401.303 251.163 400.885 252.165 399.966C251.914 400.05 251.664 400.133 251.33 400.217C251.664 400.3 251.998 400.3 252.332 400.384C252.916 400.551 251.998 400.133 252.582 400.467C253.167 400.801 253.668 401.386 254.169 401.72C255.088 402.472 255.923 402.973 257.008 403.391C258.428 403.892 258.846 403.558 260.098 402.806C261.101 402.222 262.103 401.72 263.105 401.136C262.687 401.052 262.353 400.969 261.936 400.801C262.687 402.054 263.439 402.89 264.441 403.892C264.692 404.143 265.109 404.226 265.443 404.059C265.944 403.725 266.445 403.308 267.03 403.057C267.531 402.806 266.779 403.057 267.03 402.973C267.28 402.89 267.531 402.973 267.781 402.973C269.034 402.973 269.786 402.973 271.038 403.391C272.876 403.892 274.128 404.561 276.133 404.477C277.135 404.477 277.97 404.226 278.972 404.31C280.058 404.393 280.893 404.477 281.978 404.31C282.981 404.226 283.649 403.892 284.567 403.475C284.734 403.391 284.985 403.224 285.235 403.14C284.567 403.308 285.319 403.224 285.486 403.224C286.071 403.308 286.572 403.308 287.156 403.308C288.242 403.391 288.242 401.72 287.156 401.637C286.238 401.553 285.319 401.386 284.4 401.637C283.899 401.804 283.398 402.138 282.897 402.389C282.647 402.472 282.145 402.639 282.73 402.556C282.48 402.639 282.145 402.639 281.895 402.639C280.809 402.723 279.891 402.639 278.805 402.556C277.886 402.472 277.051 402.723 276.133 402.723C273.961 402.806 272.375 401.72 270.203 401.303C269.285 401.136 268.199 401.052 267.28 401.219C266.278 401.386 265.61 401.971 264.775 402.472C265.109 402.556 265.443 402.556 265.777 402.639C264.859 401.72 264.19 400.969 263.522 399.883C263.272 399.465 262.771 399.381 262.353 399.548C261.602 399.966 260.85 400.384 260.098 400.801C259.597 401.052 259.096 401.386 258.679 401.637C258.428 401.72 258.261 401.887 258.011 401.971C257.844 402.054 258.595 402.138 258.178 401.887C257.76 401.553 257.092 401.553 256.591 401.303C256.424 401.219 255.756 400.634 255.422 400.467C254.837 400.05 254.086 399.214 253.334 398.797C251.497 397.961 250.244 399.298 248.657 399.966C247.655 400.384 247.321 400.969 246.569 401.72C245.985 402.305 245.233 402.89 244.398 403.391C243.73 404.143 244.565 405.563 245.4 404.978Z" fill="#1A1C28"/>
<path d="M245.651 350.513C246.904 349.594 247.822 348.592 248.991 347.59C249.826 346.838 251.413 346.42 252.415 345.501C252.165 345.585 251.914 345.668 251.58 345.752C251.914 345.835 252.248 345.835 252.582 345.919C253.167 346.086 252.248 345.668 252.833 346.002C253.417 346.337 253.918 346.921 254.42 347.255C255.338 348.007 256.173 348.508 257.259 348.926C258.679 349.427 259.096 349.093 260.349 348.341C261.351 347.757 262.353 347.255 263.355 346.671C262.938 346.587 262.604 346.504 262.186 346.337C262.938 347.59 263.689 348.425 264.691 349.427C264.942 349.678 265.36 349.762 265.694 349.594C266.195 349.26 266.696 348.843 267.28 348.592C267.781 348.341 267.03 348.592 267.28 348.508C267.531 348.425 267.781 348.508 268.032 348.508C269.285 348.508 270.036 348.508 271.289 348.926C273.126 349.427 274.379 350.096 276.383 350.012C277.385 350.012 278.22 349.762 279.223 349.845C280.308 349.929 281.143 350.012 282.229 349.845C283.231 349.762 283.899 349.427 284.818 349.01C284.985 348.926 285.235 348.759 285.486 348.676C284.818 348.843 285.569 348.759 285.736 348.759C286.321 348.843 286.822 348.843 287.407 348.843C288.492 348.926 288.492 347.255 287.407 347.172C286.488 347.088 285.569 346.921 284.651 347.172C284.15 347.339 283.565 347.673 283.148 347.924C282.897 348.007 282.396 348.174 282.981 348.091C282.73 348.174 282.396 348.174 282.145 348.174C281.06 348.258 280.141 348.174 279.056 348.091C278.137 348.007 277.302 348.258 276.383 348.258C274.212 348.341 272.625 347.255 270.454 346.838C269.535 346.671 268.45 346.587 267.531 346.754C266.529 346.921 265.861 347.506 265.026 348.007C265.36 348.091 265.694 348.091 266.028 348.174C265.109 347.255 264.441 346.504 263.773 345.418C263.522 345 263.021 344.916 262.604 345.084C261.852 345.501 261.1 345.919 260.349 346.337C259.848 346.587 259.347 346.921 258.929 347.172C258.679 347.255 258.512 347.423 258.261 347.506C258.094 347.59 258.846 347.673 258.428 347.423C258.011 347.088 257.342 347.088 256.841 346.838C256.674 346.754 256.006 346.17 255.672 346.002C255.088 345.585 254.336 344.749 253.584 344.332C251.747 343.496 250.495 344.833 248.908 345.501C247.906 345.919 247.572 346.504 246.82 347.255C246.235 347.84 245.484 348.425 244.649 348.926C243.897 349.678 244.732 351.098 245.651 350.513Z" fill="#1A1C28"/>
<path d="M242.728 389.106C243.897 387.352 245.4 385.849 246.152 383.844C245.651 383.927 245.15 384.011 244.649 384.011C245.651 385.347 246.486 386.6 247.238 388.104C247.488 388.522 247.989 388.605 248.407 388.438C249.91 387.686 251.163 386.935 252.833 386.768C253.083 386.768 252.833 386.684 253.334 386.851C253.584 386.935 253.835 387.102 254.169 387.185C254.837 387.519 255.422 387.937 256.173 387.937C258.094 387.937 258.929 386.851 260.516 386.016C260.934 385.849 260.098 385.932 260.85 385.932C261.268 385.932 261.852 386.016 262.27 385.932C263.021 385.765 262.353 385.765 262.437 385.932C262.771 386.35 263.105 386.684 263.439 387.018C265.61 389.274 268.784 387.686 271.289 386.851C271.874 386.684 272.375 386.517 272.959 386.35C273.46 386.266 273.961 386.099 274.379 386.016C274.88 385.932 274.379 385.932 274.295 385.932C274.546 385.932 274.88 386.099 275.131 386.183C276.467 386.517 277.469 387.352 278.889 387.77C280.893 388.271 281.728 387.937 283.482 386.851C285.068 385.932 285.904 385.097 287.073 383.677C286.572 383.593 286.071 383.51 285.569 383.51C285.904 385.431 285.987 387.269 286.238 389.274C286.321 390.36 287.991 390.36 287.908 389.274C287.657 387.185 287.574 385.097 287.156 383.092C286.989 382.34 285.987 382.424 285.653 382.925L284.985 383.76C284.901 383.927 284.066 384.679 284.567 384.345C283.983 384.846 283.231 385.18 282.563 385.598C282.229 385.765 281.895 385.932 281.561 386.183C281.394 386.266 280.308 386.767 280.809 386.684C281.394 386.6 280.392 386.517 280.141 386.517C279.891 386.433 278.972 386.35 278.889 386.35C277.385 385.765 276.467 384.93 274.88 384.679C273.627 384.512 272.291 385.013 271.122 385.431C269.953 385.765 268.032 386.684 267.113 386.768C266.445 386.851 265.36 386.684 264.692 386.517C265.36 386.684 265.026 386.684 264.692 386.183C264.357 385.765 263.94 385.264 263.522 385.013C262.687 384.345 260.85 384.261 259.848 384.596C259.096 384.846 258.595 385.682 257.927 386.016C257.51 386.266 256.34 386.517 255.672 386.6C256.424 386.517 255.839 386.517 255.255 386.183C254.921 386.016 254.587 385.765 254.253 385.682C253.584 385.431 253 385.347 252.332 385.431C250.578 385.682 249.075 386.517 247.488 387.269C247.906 387.352 248.24 387.436 248.657 387.603C247.822 386.099 247.071 384.846 245.985 383.51C245.567 382.925 244.732 383.008 244.482 383.677C244.064 384.763 243.814 384.93 242.895 386.099C242.31 386.851 241.809 387.686 241.225 388.522C240.724 389.106 242.143 389.942 242.728 389.106Z" fill="#1A1C28"/>
<path d="M224.681 555.676L168.478 585.748L180.169 603.875L243.304 579.399L224.681 555.676Z" fill="#BB7937"/>
<path d="M473.88 584.913L472.878 587.001L471.876 589.09L470.707 591.011L470.039 593.266L468.953 595.271L468.452 597.527L466.615 599.197L465.612 601.202L464.61 603.374L463.274 605.212L461.854 607.05L460.017 608.47L457.846 609.305" stroke="#1A1C28" stroke-width="2" stroke-miterlimit="10" stroke-linecap="round" stroke-linejoin="round"/>
<path d="M477.722 592.097L477.137 594.436L475.634 596.441L475.133 598.863L474.047 601.035L472.878 603.207L471.124 604.878L469.454 606.632L467.784 608.303" stroke="#1A1C28" stroke-width="2" stroke-miterlimit="10" stroke-linecap="round" stroke-linejoin="round"/>
<path d="M303.683 499.958L201.047 554.088L224 599L332 554.088L419.43 529.028L303.683 499.958Z" fill="#e35531"/>
<path d="M186.349 601.453L175.576 613.983L169.146 618.327L132.735 564.029L138.413 560.186L174.24 582.574C174.24 582.574 186.6 601.87 186.349 601.453Z" fill="#252831"/>
<path d="M286.814 537.799L305.687 601.787L327.233 601.954L316.794 535.126L286.814 537.799Z" fill="#BB7937"/>
<path d="M326.231 595.438L330.824 611.31L330.908 619.079L265.602 619.831L265.518 612.981L303.85 595.271C303.767 595.271 326.649 595.438 326.231 595.438Z" fill="#252831"/>
<path d="M297.503 597.527C297.754 598.613 297.921 598.613 298.171 599.699C298.422 600.785 297.837 600.952 298.088 602.121C298.338 603.207 298.839 603.124 299.09 604.209" stroke="white" stroke-miterlimit="10"/>
<path d="M293.662 598.028C293.912 599.114 294.079 599.114 294.33 600.2C294.58 601.286 293.996 601.453 294.246 602.622C294.497 603.708 294.998 603.625 295.248 604.711" stroke="white" stroke-miterlimit="10"/>
<path d="M290.405 599.615C290.655 600.701 290.822 600.701 291.073 601.787C291.323 602.873 290.739 603.04 290.989 604.209C291.24 605.295 291.741 605.212 291.991 606.298" stroke="white" stroke-miterlimit="10"/>
<path d="M429.285 411.828C429.285 411.828 466.03 464.455 459.6 482.499C453.169 500.626 416.173 474.145 416.173 474.145L417.593 413.749L429.285 411.828Z" fill="#BB7937"/>
<path d="M434.797 477.487C434.797 477.487 453.587 538.384 407.238 540.973C360.889 543.563 324.645 512.906 324.645 512.906L333.998 564.948L283 571C283 571 256 491 269.5 457C281.5 434 313.621 451.841 357.799 473.644C363.979 476.651 434.797 477.487 434.797 477.487Z" fill="#e35531"/>
<path d="M360.304 402.305C360.304 402.305 322.056 432.879 321.555 436.053C321.054 439.228 293.578 406.064 293.578 406.064L282.137 410.575C282.137 410.575 306.606 465.124 323.058 463.954C339.593 462.785 367.57 425.027 367.57 425.027L360.304 402.305Z" fill="#BB7937"/>
<path d="M277.961 388.271C277.961 388.271 280.216 387.102 279.298 385.264C278.296 383.426 278.964 381.338 280.049 381.839C281.135 382.424 283.056 386.768 284.058 391.028C285.06 395.288 297.169 410.575 297.169 410.575L283.557 413.415C283.557 413.415 280.467 407.401 279.047 406.899C277.711 406.398 270.445 403.057 268.441 397.711C266.353 392.364 268.525 385.097 269.276 384.178C270.028 383.343 272.867 382.006 274.537 382.173C277.878 382.591 278.63 384.93 278.296 385.431C277.711 386.266 272.7 385.18 273.452 385.849C274.621 387.102 277.961 388.271 277.961 388.271Z" fill="#BB7937"/>
<path d="M372.747 354.272C372.747 354.272 364.897 369.643 368.989 376.242C373.081 382.841 376.589 381.087 375.837 384.93C375.002 388.772 372.998 395.455 372.998 395.455L400.891 391.696C400.891 391.696 377.507 350.597 372.747 354.272Z" fill="#AF6427"/>
<path d="M440.976 420.182C440.976 420.182 422.938 393.617 407.321 391.529C391.621 389.357 370.827 391.863 355.544 402.639C340.178 413.415 338.006 415.671 337.255 416.673C336.503 417.676 359.887 432.545 359.887 432.545L358.634 474.312C370.5 520.5 458.096 500.041 456.593 498.955C431.54 480.828 422.938 429.036 422.938 429.036L440.976 420.182Z" fill="#f9b64a"/>
<path d="M372.747 354.272C372.747 354.272 377.424 344.165 390.034 349.678C398.218 353.27 402.561 361.707 400.39 368.473C398.135 375.24 422.938 376.994 413.167 394.202C403.396 411.41 374.585 380.753 376.422 374.571C377.925 369.476 378.343 368.891 378.176 367.722C377.925 365.884 375.42 367.554 375.42 367.554C375.42 367.554 373.916 354.272 372.747 354.272Z" fill="#252831"/>
<path d="M373 353.5C373 361.5 379.724 368 388 368C396.276 368 403 361.5 403 353.5C403 345.5 396.276 339 388 339C379.621 339 373 345.5 373 353.5Z" fill="#252831"/>
<path d="M287.732 389.441L289.57 388.605L288.233 387.018L264.767 382.591L264.349 385.013L287.732 389.441Z" fill="#1A1C28"/>
<path d="M277.961 388.271C277.961 388.271 280.216 387.102 279.298 385.264C278.296 383.426 278.964 381.338 280.049 381.839C281.135 382.424 283.056 386.768 284.058 391.028C285.06 395.288 297.169 410.575 297.169 410.575L283.557 413.415C283.557 413.415 280.467 407.401 279.047 406.899C277.711 406.398 270.445 403.057 268.441 397.711C266.437 392.448 277.961 388.271 277.961 388.271Z" fill="#BB7937"/>
<path d="M336.587 417.091L338.424 418.344L340.178 419.847L342.349 420.599L343.852 422.437L345.856 423.523L347.944 424.525L349.447 426.196L351.702 427.031L353.623 428.201L355.46 429.538L357.298 430.791L359.218 432.044L360.972 433.464L362.642 434.633L363.895 432.628L365.398 430.54L366.734 428.368L367.486 425.862L369.156 423.857" stroke="white" stroke-miterlimit="10" stroke-linecap="round" stroke-linejoin="round"/>
<path d="M310.949 513.323L311.45 515.579L312.034 517.834L312.953 520.006L313.203 522.345L313.621 524.6L314.707 526.772L315.458 528.944L316.293 531.116L316.961 533.372L317.379 535.627L317.964 537.883L319.049 540.054L319.216 542.393L320.135 544.565L320.886 546.737L321.638 548.909L322.306 551.165L323.392 553.337" stroke="#1A1C28" stroke-width="2" stroke-miterlimit="10" stroke-linecap="round" stroke-linejoin="round"/>
<path d="M323.308 439.645L321.722 438.142L320.385 436.304L318.715 434.884L317.546 432.962L315.792 431.542L314.54 429.705L313.036 428.117L311.45 426.614L309.779 425.11L308.109 423.607L306.606 421.936" stroke="#1A1C28" stroke-miterlimit="10" stroke-linecap="round" stroke-linejoin="round"/>
<path d="M343.268 580.235L343.435 582.574L343.602 584.913L344.52 587.168L345.523 589.257L346.274 591.429L347.527 593.433L348.696 595.438L350.032 597.276L351.619 599.03L352.955 601.035L354.542 602.706L356.379 604.209L358.383 605.462L360.221 606.966L362.225 608.219L364.48 608.887L366.567 609.973L368.655 610.976L370.743 612.062L372.831 613.148L375.086 613.649L377.341 614.401L379.595 614.902L381.767 615.821L384.021 616.656L386.443 616.573L388.698 617.074L390.953 617.659L393.291 617.993L395.63 618.076L397.884 618.828L400.306 618.745L402.645 618.661L404.983 618.912L407.321 618.41L409.66 618.327L411.998 618.577L414.336 618.243L416.675 618.16L418.929 617.408L421.268 617.157L423.606 617.074L425.861 616.489L428.032 615.654L430.454 615.487L432.542 614.317L434.797 613.649L437.135 613.315L439.39 612.479L441.478 611.477L443.482 610.14L445.737 609.472L447.574 607.885L449.662 606.883L451.666 605.63L453.587 604.209L455.257 602.539L456.593 600.617L458.597 599.364L459.767 597.192L461.437 595.605L462.356 593.433L463.775 591.512L464.861 589.424L465.111 587.085L465.779 584.829L466.531 582.574V580.235L466.782 577.979L466.197 575.64L466.698 573.385L466.03 571.13L465.612 568.874L465.863 566.452L464.861 564.363L464.109 562.191L463.024 560.186L462.439 557.931L460.685 556.344L459.182 554.673L457.428 553.253L455.925 551.499L454.088 550.162L451.917 549.243L449.829 548.491L447.824 547.406L445.737 546.487L443.649 545.484L441.311 545.15L439.139 544.482L436.801 544.649L434.63 543.479L432.375 543.229L430.036 543.312L427.782 543.145L425.527 543.062L423.272 542.644L421.017 541.892L418.679 542.059L416.424 542.143L414.169 541.642L411.831 541.475L409.576 542.226L407.238 541.475L404.983 542.059L402.645 541.809L400.39 541.642L398.051 541.475L395.713 542.059L393.458 542.143L391.203 542.477L388.865 542.56L386.527 542.143L384.272 542.477L381.934 542.811L379.679 542.978L377.341 543.062L375.169 543.814L372.831 544.148L370.493 544.315L368.321 544.816L366.15 545.735L363.812 545.902L361.724 547.155L359.469 547.573L357.548 548.993L355.293 549.744L353.707 551.415L351.702 552.585L349.782 554.005L348.696 556.093L347.61 558.014L345.857 559.769L345.188 561.941L344.604 564.196L344.019 566.452V568.791L343.852 571.046L343.351 573.301L343.602 575.64L343.518 577.979L343.268 580.235Z" fill="white"/>
<path d="M343.268 580.235L343.435 582.574L343.602 584.913L344.52 587.168L345.523 589.257L346.274 591.429L347.527 593.433L348.696 595.438L350.032 597.276L351.619 599.03L352.955 601.035L354.542 602.706L356.379 604.209L358.383 605.462L360.221 606.966L362.225 608.219L364.48 608.887L366.567 609.973L368.655 610.976L370.743 612.062L372.831 613.148L375.086 613.649L377.341 614.401L379.595 614.902L381.767 615.821L384.021 616.656L386.443 616.573L388.698 617.074L390.953 617.659L393.291 617.993L395.63 618.076L397.884 618.828L400.306 618.745L402.645 618.661L404.983 618.912L407.321 618.41L409.66 618.327L411.998 618.577L414.336 618.243L416.675 618.16L418.929 617.408L421.268 617.157L423.606 617.074L425.861 616.489L428.032 615.654L430.454 615.487L432.542 614.317L434.797 613.649L437.135 613.315L439.39 612.479L441.478 611.477L443.482 610.14L445.737 609.472L447.574 607.885L449.662 606.883L451.666 605.63L453.587 604.209L455.257 602.539L456.593 600.617L458.597 599.364L459.767 597.192L461.437 595.605L462.356 593.433L463.775 591.512L464.861 589.424L465.111 587.085L465.779 584.829L466.531 582.574V580.235L466.782 577.979L466.197 575.64L466.698 573.385L466.03 571.13L465.612 568.874L465.863 566.452L464.861 564.363L464.109 562.191L463.024 560.186L462.439 557.931L460.685 556.344L459.182 554.673L457.428 553.253L455.925 551.499L454.088 550.162L451.917 549.243L449.829 548.491L447.824 547.406L445.737 546.487L443.649 545.484L441.311 545.15L439.139 544.482L436.801 544.649L434.63 543.479L432.375 543.229L430.036 543.312L427.782 543.145L425.527 543.062L423.272 542.644L421.017 541.892L418.679 542.059L416.424 542.143L414.169 541.642L411.831 541.475L409.576 542.226L407.238 541.475L404.983 542.059L402.645 541.809L400.39 541.642L398.051 541.475L395.713 542.059L393.458 542.143L391.203 542.477L388.865 542.56L386.527 542.143L384.272 542.477L381.934 542.811L379.679 542.978L377.341 543.062L375.169 543.814L372.831 544.148L370.493 544.315L368.321 544.816L366.15 545.735L363.812 545.902L361.724 547.155L359.469 547.573L357.548 548.993L355.293 549.744L353.707 551.415L351.702 552.585L349.782 554.005L348.696 556.093L347.61 558.014L345.857 559.769L345.188 561.941L344.604 564.196L344.019 566.452V568.791L343.852 571.046L343.351 573.301L343.602 575.64L343.518 577.979L343.268 580.235Z" stroke="#1A1C28" stroke-width="2" stroke-miterlimit="10"/>
<path d="M333.246 459.694L377.507 484.504" stroke="#1A1C28" stroke-width="2" stroke-miterlimit="10" stroke-linecap="round" stroke-linejoin="round"/>
<path d="M385.692 365.299C385.692 372.984 391.955 379.249 399.638 379.249C407.321 379.249 413.585 372.984 413.585 365.299C413.585 357.614 407.321 351.349 399.638 351.349C391.955 351.349 385.692 357.614 385.692 365.299Z" fill="#252831"/>
<path d="M389.784 384.429C389.784 395.455 398.72 404.393 409.743 404.393C420.767 404.393 429.702 395.455 429.702 384.429C429.702 373.402 420.767 364.464 409.743 364.464C398.72 364.464 389.784 373.402 389.784 384.429Z" fill="#252831"/>
<path d="M390.619 398.045C390.619 409.99 400.306 419.597 412.165 419.597C424.024 419.597 433.711 409.907 433.711 398.045C433.711 386.099 424.024 376.493 412.165 376.493C400.306 376.493 390.619 386.099 390.619 398.045Z" fill="#252831"/>
<path d="M371.328 396.708C371.328 407.067 379.762 415.504 390.118 415.504C400.473 415.504 408.908 407.067 408.908 396.708C408.908 386.35 400.473 377.913 390.118 377.913C379.762 377.913 371.328 386.266 371.328 396.708Z" fill="#252831"/>
<path d="M373.248 373.987C373.248 382.507 380.18 389.357 388.615 389.357C397.133 389.357 403.981 382.424 403.981 373.987C403.981 365.466 397.049 358.616 388.615 358.616C380.18 358.616 373.248 365.466 373.248 373.987Z" fill="#252831"/>
<path d="M168.895 578.564C168.144 579.399 168.227 579.483 167.475 580.318C166.724 581.154 166.223 580.736 165.388 581.571C164.636 582.407 164.97 582.741 164.135 583.576" stroke="white" stroke-miterlimit="10"/>
<path d="M166.39 575.64C165.638 576.476 165.722 576.559 164.97 577.395C164.218 578.23 163.717 577.812 162.882 578.648C162.131 579.483 162.465 579.817 161.63 580.653" stroke="white" stroke-miterlimit="10"/>
<path d="M163.216 573.803C162.465 574.638 162.548 574.722 161.797 575.557C161.045 576.392 160.544 575.975 159.709 576.81C158.957 577.645 159.291 577.979 158.456 578.815" stroke="white" stroke-miterlimit="10"/>
<path d="M403.396 541.391L401.141 541.558L398.803 541.809L396.548 541.391L394.293 541.475L392.039 541.14L389.784 540.389L387.529 540.305L385.358 539.971L383.019 539.72L380.848 539.219L378.593 538.801L376.422 538.3L374.083 538.133L371.996 537.381L369.741 536.964L367.486 536.379L365.565 535.126L363.394 534.458L361.056 534.207L359.135 532.787L356.964 532.202L354.709 531.534L352.872 530.197L350.784 529.278" stroke="#1A1C28" stroke-width="2" stroke-miterlimit="10" stroke-linecap="round" stroke-linejoin="round"/>
<path d="M321.471 522.679L320.385 520.674L320.135 518.419L319.133 516.33L318.381 514.242L317.546 512.07L316.961 509.898L316.043 507.81L315.124 505.805L314.206 503.717L313.705 501.461L312.285 499.623L312.034 497.285L310.865 495.53L312.285 497.117L313.287 499.289L315.124 500.709L316.711 502.464L318.131 504.218L319.717 505.889L321.304 507.559L322.807 509.314L324.478 510.901L326.064 512.571L327.484 514.409L329.238 515.996L331.325 517.082L332.829 518.92L334.749 520.173L337.004 520.925L338.842 522.261L340.762 523.598L342.683 524.851L344.771 525.937L346.525 527.441L348.612 528.443L350.533 529.696" stroke="#1A1C28" stroke-width="2" stroke-miterlimit="10" stroke-linecap="round" stroke-linejoin="round"/>
<path d="M321.304 522.763L322.306 524.851L322.473 527.19L323.642 529.195L324.478 531.367L325.313 533.539L325.563 535.794L326.148 538.05L327.066 540.138L327.985 542.31L328.319 544.565L328.82 546.821L329.071 549.076L329.989 551.248L330.407 553.504L331.66 555.508L331.493 557.931L332.161 560.103L333.163 562.275L333.58 564.781L331.242 564.948L328.987 564.864L326.649 564.28L324.478 566.326L322.139 564.864L320 566.326H317.348L315.093 567.161L312.755 566.493L310.5 567.161L308.245 566.91L305.907 566.827L304.755 567.498L302.5 567.999H300L297.745 568.333L296 568.5L293.5 569.5L292 569L289.593 569.5L286.5 569L284 569.5H281.359L280.858 567.161L280.691 564.738L280.19 562.483L279.354 560.311V557.889L278.436 555.717L278.269 553.378L277.35 551.206L277.267 548.783L276.264 546.611L276.097 544.272L275.847 541.933L274.845 539.761L274.177 537.506L274.427 535.084L273.759 532.828L273.175 530.573L272.757 528.234L272.005 526.062L271.421 523.806L271.254 521.384L270.502 519.212L270.085 516.873L269.5 514.617" stroke="#1A1C28" stroke-width="2" stroke-miterlimit="10" stroke-linecap="round" stroke-linejoin="round"/>
<path d="M370.158 368.64C371.077 369.977 373.332 370.061 375.169 368.724C377.006 367.471 377.675 365.299 376.756 363.962C375.837 362.626 373.582 362.626 371.745 363.879C369.908 365.132 369.24 367.304 370.158 368.64Z" fill="#AF6427"/>
<path d="M374.25 365.383L373.165 366.97" stroke="#1A1C28" stroke-width="2" stroke-miterlimit="10" stroke-linecap="round" stroke-linejoin="round"/>
<path d="M372.831 367.387C372.831 367.387 362.642 364.38 360.972 372.817C359.302 381.254 366.734 395.873 362.976 398.045" stroke="#1A1C28" stroke-width="0.75" stroke-miterlimit="10" stroke-linecap="round" stroke-linejoin="round"/>
<path d="M508.42 260.379L524.036 305.07L585 271.573L529.131 249.352L508.42 260.379Z" fill="#252831"/>
<path d="M563.955 265.475L563.788 262.968L562.702 260.88L560.865 259.293L559.111 257.622L557.107 258.959L554.852 260.128L553.099 261.883L550.593 262.05L548.756 261.465L548.088 259.293L547.837 256.87L546.334 255.45L543.912 256.286L542.242 258.123" stroke="#E6A52F" stroke-width="2" stroke-miterlimit="10" stroke-linecap="round" stroke-linejoin="round"/>
<path d="M251.955 54.2978C251.955 54.2978 240.013 54.5484 237.925 63.1525C235.754 71.8402 234 81.1126 236.004 81.9479C238.009 82.7833 240.013 67.6634 241.266 67.914C242.518 68.2482 238.51 86.3753 241.934 86.793C245.358 87.2107 243.771 67.6634 246.193 67.914C248.615 68.1646 245.358 83.201 247.612 83.201C249.784 83.201 250.953 66.8281 252.206 67.6634C253.542 68.4153 250.869 76.6017 252.957 76.1005C254.711 75.6828 252.206 69.8353 257.801 65.3245C258.135 65.0738 263.48 64.7397 265.651 64.6562C266.653 64.4891 260.056 54.4649 251.955 54.2978Z" fill="#ED9F7D"/>
<path d="M216.212 358.783C216.212 359.953 216.379 359.953 216.379 361.122C216.379 362.292 216.295 362.292 216.295 363.461C216.295 364.631 216.045 364.631 216.045 365.8C216.045 366.97 215.878 366.97 215.878 368.139C215.878 369.309 216.295 369.309 216.295 370.478C216.295 371.648 215.794 371.648 215.794 372.817C215.794 373.987 216.045 373.987 216.045 375.156C216.045 376.326 216.045 376.326 216.045 377.495C216.045 378.665 216.045 378.665 216.045 379.834C216.045 381.004 215.878 381.004 215.878 382.173C215.878 383.343 215.961 383.343 215.961 384.512C215.961 385.682 216.128 385.682 216.128 386.851C216.128 388.021 216.212 388.021 216.212 389.19C216.212 390.36 215.878 390.36 215.878 391.529C215.878 392.699 216.463 392.699 216.463 393.868" stroke="#1A1C28" stroke-width="2" stroke-miterlimit="10"/>
<path d="M210.366 335.811C210.366 336.981 210.533 336.981 210.533 338.15C210.533 339.32 210.45 339.32 210.45 340.489C210.45 341.659 210.199 341.659 210.199 342.828C210.199 343.998 210.032 343.998 210.032 345.167C210.032 346.337 210.45 346.337 210.45 347.506C210.45 348.676 209.949 348.676 209.949 349.845C209.949 351.015 210.199 351.015 210.199 352.184C210.199 353.354 210.199 353.353 210.199 354.523C210.199 355.692 210.199 355.692 210.199 356.862C210.199 358.031 210.032 358.031 210.032 359.201C210.032 360.37 210.116 360.37 210.116 361.54C210.116 362.709 210.283 362.709 210.283 363.879C210.283 365.048 210.366 365.048 210.366 366.218C210.366 367.387 210.032 367.387 210.032 368.557C210.032 369.726 210.617 369.726 210.617 370.896" stroke="#1A1C28" stroke-width="2" stroke-miterlimit="10"/>
<path d="M190.574 63.4867C190.574 64.6562 190.741 64.6562 190.741 65.8257C190.741 66.9952 190.657 66.9952 190.657 68.1647C190.657 69.3342 190.407 69.3342 190.407 70.5036C190.407 71.6731 190.24 71.6731 190.24 72.8426C190.24 74.0121 190.657 74.0121 190.657 75.1816C190.657 76.3511 190.156 76.3511 190.156 77.5206C190.156 78.6901 190.407 78.6901 190.407 79.8596C190.407 81.0291 190.407 81.0291 190.407 82.1986C190.407 83.3681 190.407 83.368 190.407 84.5375C190.407 85.707 190.24 85.707 190.24 86.8765C190.24 88.046 190.323 88.046 190.323 89.2155C190.323 90.385 190.49 90.385 190.49 91.5545C190.49 92.724 190.574 92.724 190.574 93.8935C190.574 95.063 190.24 95.063 190.24 96.2325C190.24 97.4019 190.824 97.4019 190.824 98.5714" stroke="#1A1C28" stroke-width="2" stroke-miterlimit="10"/>
<path d="M392.422 82.3656L385.323 75.4322C385.073 74.931 384.405 74.8475 384.154 75.2651L364.362 104.001C364.195 104.168 365.364 104.586 365.448 104.837L392.422 83.201C392.505 82.8668 392.505 82.6162 392.422 82.3656Z" fill="#e35531"/>
<path d="M502.073 126.222C499.484 127.642 499.818 128.31 497.229 129.73C494.64 131.15 494.306 130.565 491.717 131.985C489.128 133.406 489.63 134.408 487.041 135.828C484.452 137.248 484.118 136.663 481.529 138.084C478.94 139.504 478.773 139.169 476.101 140.59C473.512 142.01 473.428 141.926 470.839 143.346" stroke="#1A1C28" stroke-width="2" stroke-miterlimit="10" stroke-linecap="round" stroke-linejoin="round"/>
<path d="M349.998 50.0375C347.994 58.6416 325.111 55.6344 316.51 53.546C307.908 51.5412 314.672 39.345 316.677 30.8245C318.681 22.2203 328.786 17.1247 336.552 22.4709C343.818 27.483 352.002 41.4334 349.998 50.0375Z" fill="#252831"/>
<path d="M318.848 34.6671C318.848 34.6671 316.677 51.9588 320.936 53.0448C325.195 54.1307 326.114 53.8801 323.775 57.138C321.353 60.3959 320.518 60.9806 320.518 60.9806C320.518 60.9806 324.443 69.3341 331.124 67.914C333.379 67.4128 336.97 63.5702 337.555 59.3934C337.638 58.8087 333.546 58.1404 334.715 51.7082C335.884 45.276 337.638 46.6961 337.805 42.5194C337.972 38.3426 334.799 37.5073 331.625 35.586C328.034 33.414 324.276 26.7312 322.857 27.9843C321.186 29.3208 318.848 34.6671 318.848 34.6671Z" fill="#ED9F7D"/>
<path d="M318.848 43.1041C316.173 43.1041 314.004 40.9349 314.004 38.2591C314.004 35.5832 316.173 33.414 318.848 33.414C321.523 33.414 323.692 35.5832 323.692 38.2591C323.692 40.9349 321.523 43.1041 318.848 43.1041Z" stroke="#1A1C28" stroke-miterlimit="10" stroke-linecap="round" stroke-linejoin="round"/>
<path d="M330.039 43.9395C327.363 43.9395 325.195 41.7703 325.195 39.0944C325.195 36.4186 327.363 34.2494 330.039 34.2494C332.714 34.2494 334.882 36.4186 334.882 39.0944C334.882 41.7703 332.714 43.9395 330.039 43.9395Z" stroke="#1A1C28" stroke-miterlimit="10" stroke-linecap="round" stroke-linejoin="round"/>
<path d="M323.525 38.8438H325.111" stroke="#1A1C28" stroke-miterlimit="10" stroke-linecap="round" stroke-linejoin="round"/>
<path d="M336.218 44.3571C337.471 45.4431 339.559 45.276 340.728 43.8559C341.981 42.4358 341.897 40.431 340.645 39.345C339.392 38.2591 337.304 38.4261 336.135 39.8462C334.882 41.2663 334.882 43.2712 336.218 44.3571Z" fill="#E88B68"/>
<path d="M384.071 75.2651L372.212 89.5496" stroke="#1A1C28" stroke-miterlimit="10" stroke-width="2" stroke-linecap="round" stroke-linejoin="round"/>
</g>
<defs>
<clipPath id="clip0">
<rect width="585" height="621" fill="white" transform="matrix(-1 0 0 1 585 0)"/>
</clipPath>
</defs>
<style>
.talking, .talking-2 {
  stroke-width:2px;
  stroke-dasharray: 2, 4;
  stroke-dashoffset: 11;
  animation: dash 1s linear infinite reverse;
}
.talking-2 {
  animation: dash 1s linear infinite;
}
@keyframes dash {
  to {
    stroke-dashoffset: 0;
  }
}</style>
</svg>
