<svg width="1180" height="49" viewBox="0 0 1180 49" fill="none" xmlns="http://www.w3.org/2000/svg">
<g clip-path="url(#clip0)">
<path d="M1035.23 28.9617L1033.58 35.1363L1027.54 35.2642C1025.73 31.9132 1024.71 28.0793 1024.71 24.0051C1024.71 20.0653 1025.67 16.3501 1027.37 13.0787L1032.74 14.0654L1035.1 19.4152C1034.61 20.8538 1034.34 22.3981 1034.34 24.0051C1034.34 25.7491 1034.65 27.4201 1035.23 28.9617Z" fill="#C5CFD6"/>
<path d="M1071.77 19.5667C1072.05 21.0039 1072.19 22.4882 1072.19 24.0051C1072.19 25.7061 1072.01 27.3653 1071.67 28.9657C1070.51 34.4119 1067.49 39.1675 1063.31 42.5329L1063.31 42.5316L1056.54 42.1857L1055.58 36.1964C1058.35 34.5673 1060.52 32.0178 1061.66 28.9657H1048.97V19.5667H1071.77Z" fill="#C5CFD6"/>
<path d="M1063.31 42.5316L1063.31 42.5329C1059.24 45.8055 1054.07 47.7636 1048.45 47.7636C1039.41 47.7636 1031.55 42.7064 1027.54 35.2642L1035.23 28.9617C1037.24 34.3165 1042.4 38.1284 1048.45 38.1284C1051.05 38.1284 1053.49 37.4248 1055.58 36.1964L1063.31 42.5316Z" fill="#C5CFD6"/>
<path d="M1063.6 5.71613L1055.91 12.0174C1053.75 10.6637 1051.19 9.88168 1048.45 9.88168C1042.26 9.88168 1037 13.8684 1035.1 19.4152L1027.37 13.0787C1031.32 5.45507 1039.27 0.24646 1048.45 0.24646C1054.21 0.24646 1059.49 2.29991 1063.6 5.71613Z" fill="#C5CFD6"/>
</g>
<g clip-path="url(#clip1)">
<path d="M557.829 29.6102C557.784 28.8976 557.684 28.1796 557.52 27.4838C557.066 25.5537 556.282 23.7555 555.263 22.0499C554.14 20.173 552.823 18.4421 551.302 16.8657C550.51 16.0464 549.684 15.2553 548.866 14.4586C548.628 14.2287 548.378 14.0069 548.117 13.8049C546.996 12.9324 545.909 12.0124 544.728 11.2295C542.707 9.88576 540.681 8.53087 538.555 7.36384C536.551 6.26413 534.451 5.31319 532.326 4.46024C530.18 3.59888 527.966 2.88927 525.752 2.21034C524.322 1.77273 522.843 1.47521 521.376 1.17524C520.195 0.933905 519.006 0.743336 517.811 0.597288C516.497 0.43468 515.171 0.297045 513.846 0.260669C512.401 0.218592 510.954 0.2775 509.509 0.339123C509.112 0.355954 508.714 0.375498 508.317 0.40916C507.832 0.451237 507.349 0.510144 506.875 0.602714C505.405 0.888839 503.944 1.23388 502.499 1.6294C502.054 1.75292 500.677 2.18482 499.993 3.42487C499.845 3.69145 499.624 4.17683 499.525 4.74338C499.346 5.77305 500.055 6.76336 501.103 6.89801C501.111 6.89801 501.117 6.89801 501.123 6.90072C501.985 7.00171 502.859 7.04107 503.731 7.06632C504.029 7.07473 504.358 7.02152 504.622 6.88959C504.843 6.78019 505.059 6.54184 505.136 6.31164C505.172 6.19953 504.92 5.91611 504.741 5.82626C504.242 5.58493 503.682 5.46168 503.163 5.26514C503.004 5.20623 502.84 5.17528 502.672 5.13891C502.598 5.12208 502.547 5.06046 502.542 4.98472V4.9763C502.542 4.91739 502.573 4.8612 502.627 4.83052C502.771 4.74908 502.913 4.66791 503.067 4.64267C504.247 4.44911 505.425 4.18824 506.611 4.05902C506.904 4.02536 507.196 4.00011 507.488 3.98599C509.674 3.88501 511.871 3.87089 514.05 4.2048C515.293 4.39564 516.559 4.46296 517.779 4.73768C520.041 5.24831 522.301 5.7926 524.523 6.45443C526.263 6.97348 527.969 7.61033 529.623 8.3536C531.967 9.40852 534.303 10.5025 536.534 11.7705C538.484 12.8787 540.326 14.1888 542.145 15.5073C543.454 16.4555 544.683 17.5215 545.877 18.6128C546.681 19.345 547.365 20.2091 548.088 21.0254C549.405 22.5122 550.438 24.1757 551.182 26.0076C551.965 27.935 552.275 29.9294 551.846 31.9801C551.389 34.1627 550.211 35.9299 548.454 37.3046C547.078 38.3791 545.537 39.1984 543.865 39.7144C542.423 40.1604 540.948 40.5169 539.466 40.8168C538.265 41.0609 537.039 41.2656 535.819 41.3049C534.312 41.3554 532.791 41.2854 531.289 41.145C529.791 41.0047 528.312 40.6963 526.819 40.5055C526.453 40.4577 526.416 40.3146 526.422 40.0258C526.459 38.132 526.484 36.2386 526.51 34.3478C526.541 32.1457 526.567 29.9433 526.598 27.7411C526.6 27.6627 526.626 27.584 526.643 27.4803C527.406 27.5419 528.147 27.6008 528.891 27.6654C529.895 27.7468 530.912 27.7775 531.911 27.932C533.435 28.1649 534.956 28.4426 536.463 28.7765C537.584 29.0263 538.705 29.3346 539.659 30.0277C540.388 30.5579 540.275 31.0544 539.673 31.5341C539.449 31.7108 539.176 31.8286 538.918 31.9605C538.473 32.185 538.007 32.3756 537.578 32.6283C537.056 32.934 537.045 33.282 537.57 33.5456C539.02 34.2751 540.467 34.7099 542.054 33.7924C544.671 32.2803 545.335 29.0738 543.124 26.8296C541.977 25.6682 540.578 24.919 539.051 24.3666C537.422 23.7748 535.722 23.5052 534.031 23.1743C531.845 22.7508 529.649 22.5149 527.423 22.5179C527.302 22.5179 527.177 22.5038 527.063 22.4983C527.021 21.8167 526.975 21.163 526.938 20.512C526.904 19.8556 526.91 19.1992 526.845 18.5455C526.757 17.6252 526.64 16.7052 526.504 15.7907C526.339 14.691 525.653 13.8549 524.971 13.0386C524.48 12.4522 523.822 12.4158 523.436 13.2631C523.34 13.4762 523.234 13.6895 523.183 13.914C522.888 15.1568 522.562 16.3969 522.34 17.6508C522.133 18.8346 522.042 20.038 521.9 21.2333C521.844 21.713 521.801 22.1956 521.722 22.6723C521.705 22.7706 521.574 22.9107 521.477 22.9305C520.535 23.1129 519.584 23.2587 518.642 23.4438C515.943 23.9824 513.338 24.8017 510.897 26.0697C509.906 26.5831 508.953 27.1667 508.274 28.0951C507.465 29.1976 507.281 30.3676 507.902 31.5962C508.592 32.9568 509.611 34.0902 510.638 35.204C511.277 35.8941 511.961 36.5393 512.682 37.1453C513.749 38.0403 514.816 38.9548 515.977 39.7207C517.47 40.7025 519.057 41.5471 520.592 42.4614C520.719 42.5371 520.844 42.7166 520.867 42.8626C521.003 43.693 521.074 44.5346 521.23 45.3593C521.367 46.0719 521.65 46.7451 522.224 47.2278C523.01 47.8872 523.929 47.8673 524.832 47.5476C525.38 47.354 525.998 47.1604 526.135 46.462C526.22 46.0271 526.322 45.5895 526.325 45.1546C526.327 44.7449 526.455 44.686 526.818 44.79C529.063 45.4353 531.368 45.7746 533.69 45.9543C534.896 46.0496 536.113 45.9712 537.325 45.9739C539.116 45.9796 540.873 45.7298 542.624 45.3875C544.858 44.9499 547.009 44.2653 549.061 43.2975C550.503 42.6158 551.831 41.7629 553.049 40.7251C554.244 39.7068 555.254 38.5452 556 37.1846C557.29 34.8283 557.999 32.3148 557.829 29.6102ZM521.398 30.6988C521.39 30.825 521.396 30.9512 521.39 31.0775C521.333 32.3034 521.29 33.5293 521.214 34.7553C521.151 35.7651 521.052 36.7752 520.961 37.7851C520.933 38.1133 520.882 38.4445 520.839 38.8007C518.427 37.8608 516.159 36.7302 514.07 35.2632C512.43 34.1157 510.937 32.8086 509.654 31.2797C509.027 30.5362 509.231 29.8434 510.048 29.5038C511.144 29.0466 512.299 28.7127 513.457 28.4434C514.646 28.1657 515.869 28.0085 517.084 27.8459C517.833 27.7422 518.594 27.7197 519.352 27.6665C520.075 27.6133 520.799 27.5628 521.568 27.5066C521.512 28.5892 521.452 29.6438 521.398 30.6988Z" fill="#C5CFD6"/>
</g>
<g clip-path="url(#clip2)">
<path fill-rule="evenodd" clip-rule="evenodd" d="M263.717 6.18145C263.717 5.59471 264.179 5.19617 264.78 5.19617C265.381 5.19617 265.844 5.59471 265.844 6.18145C265.844 6.76819 265.37 7.16673 264.78 7.16673C264.191 7.16673 263.717 6.76819 263.717 6.18145ZM264.041 6.18145C264.041 6.57999 264.353 6.87889 264.78 6.87889C265.208 6.87889 265.52 6.57999 265.52 6.18145C265.52 5.78291 265.208 5.47293 264.78 5.47293C264.353 5.47293 264.041 5.78291 264.041 6.18145ZM221.531 24.78H226.721L234.372 5.25152H229.552L226.12 14.0083L226.709 5.25152H221.589L213.938 24.78H218.757L222.121 16.145L221.531 24.78ZM215.29 29.2082C215.29 28.6214 215.752 28.2229 216.353 28.2229C216.954 28.2229 217.416 28.6214 217.416 29.2082C217.416 29.7949 216.943 30.1935 216.353 30.1935C215.764 30.1935 215.29 29.7949 215.29 29.2082ZM215.613 29.2082C215.613 29.6067 215.926 29.9056 216.353 29.9056C216.781 29.9056 217.093 29.6067 217.093 29.2082C217.093 28.8096 216.781 28.4997 216.353 28.4997C215.926 28.4997 215.613 28.8096 215.613 29.2082ZM227.345 24.78L234.996 5.25152H239.815L232.164 24.78H227.345ZM205.916 40.3341C200.299 35.6955 206.656 25.6213 213.383 18.049C207.581 29.1749 215.602 33.2932 222.652 31.4001C222.652 31.4001 235.108 28.1644 248.245 24.7533L241.295 24.7689L241.075 16.6099L237.839 24.7689H233.02L240.601 5.25152H245.479L243.144 11.1079L248.195 5.25152H253.199H253.246H262.896L261.602 8.50627H256.725L255.141 12.6134H259.776L258.354 16.2557H253.72L251.87 20.9828H257.487L256.917 22.5016C268.363 19.5299 278.288 16.9542 278.395 16.9309C279.019 16.787 279.112 17.0859 278.615 17.3184C278.615 17.3184 227.414 38.6181 222.779 40.3894L222.689 40.4242C218.056 42.2059 211.313 44.7996 205.916 40.3341ZM216.539 29.2747C216.689 29.2636 216.805 29.1972 216.805 28.9979C216.805 28.7433 216.631 28.6769 216.342 28.6769H215.926V29.7396H216.203V29.2857H216.249L216.504 29.7396H216.828L216.539 29.2747ZM216.354 29.1086H216.192V28.8651H216.33C216.411 28.8651 216.504 28.8761 216.504 28.9758C216.504 29.0865 216.458 29.1086 216.354 29.1086ZM264.966 6.24786C265.116 6.23679 265.232 6.17037 265.232 5.9711C265.232 5.71647 265.058 5.65005 264.769 5.65005H264.353V6.71282H264.63V6.25893H264.677L264.931 6.71282H265.255L264.966 6.24786ZM264.781 6.0818H264.619V5.83825H264.758C264.839 5.83825 264.931 5.84932 264.931 5.94896C264.931 6.05966 264.885 6.0818 264.781 6.0818ZM245.768 13.2998L246.08 23.4737L253.049 5.63899L245.768 13.2998Z" fill="#C5CFD6"/>
</g>
<g clip-path="url(#clip3)">
<path d="M0 3.21628V44.7938H0.258912L16.7362 3.21628H0Z" fill="#C5CFD6"/>
<path d="M46.546 3.21628H29.5567L46.546 44.7938V3.21628Z" fill="#C5CFD6"/>
<path d="M27.5436 44.7938H34.5837L23.2498 17.9555L15.7617 36.6891H24.1283L27.5436 44.7938Z" fill="#C5CFD6"/>
</g>
<g clip-path="url(#clip4)">
<path d="M1170.77 17.2801C1169.6 17.5986 1158.97 25.9837 1158.27 28.0411C1158.12 28.7517 1158.29 35.6429 1158.44 36.6762C1159.14 36.8346 1164.2 36.6968 1165.13 36.8544L1165.02 38.9847C1164.11 38.913 1157.68 38.9298 1154.02 38.9298C1152.15 38.9298 1146.17 39.1394 1144.33 39.0849L1144.67 37.0573C1145.68 36.9813 1149.86 37.2465 1150.77 36.2539C1151.23 35.7603 1151.09 29.2112 1150.93 28.104C1150.55 26.9196 1141.23 15.0466 1138.8 13.1013H1132.52V10.1165H1153.68V10.3225C1153.7 10.3225 1153.74 10.3258 1153.75 10.3296L1153.68 10.8339V13.1012H1147.3C1150.14 17.3314 1154.22 22.4385 1155.96 24.8926L1164.48 17.0363H1159.42L1158.7 14.0548H1177.26L1177.12 14.2673C1177.14 14.2673 1177.17 14.2707 1177.19 14.2707L1175.86 16.2264C1175.85 16.2264 1175.83 16.2297 1175.82 16.233L1175.29 17.0363H1171.86C1171.42 17.1357 1171.03 17.2243 1170.77 17.2801ZM1176.82 35.9731L1175.18 35.8909L1173.35 35.664L1173.37 38.8513L1174.81 38.9777L1176.37 39.0944L1176.82 35.9731ZM1180 20.7375C1179.45 20.7176 1174.42 20.2336 1173.77 20.102L1173.84 33.5672L1176.69 33.8009L1180 20.7375Z" fill="#C5CFD6"/>
</g>
<g clip-path="url(#clip5)">
<path fill-rule="evenodd" clip-rule="evenodd" d="M949.35 0.24646H926.79V22.8263H949.35V0.24646ZM974.267 0.24646H951.706V22.8263H974.267V0.24646ZM926.79 25.1838H949.35V47.7636H926.79V25.1838ZM974.267 25.1838H951.706V47.7636H974.267V25.1838Z" fill="#C5CFD6"/>
</g>
<g clip-path="url(#clip6)">
<path d="M365.979 16.0284C365.712 16.5455 365.712 17.0455 365.712 17.5626V24.0269C365.712 24.0269 369.292 19.5278 370.111 18.459C370.734 17.666 371.5 16.5455 371.5 16.0284H383.185C382.383 16.5455 381.493 17.4764 380.762 18.3383C380.121 19.0968 376.488 23.3891 376.488 23.3891C376.488 23.3891 381.885 31.336 382.579 32.353C382.971 32.9047 383.398 33.4218 383.897 33.8872H370.449C370.449 33.3701 369.933 32.3186 369.363 31.4911C368.793 30.6637 365.712 26.13 365.712 26.13V32.353C365.712 32.8702 365.712 33.3701 365.979 33.8872H354.775C355.042 33.3701 355.042 32.8702 355.042 32.353V17.5626C355.042 17.0455 355.042 16.5455 354.775 16.0284H365.979ZM407.462 16.0284H385.839C386.106 16.5455 386.106 17.0455 386.106 17.5626V32.353C386.106 32.8702 386.106 33.3701 385.839 33.8872H407.462V28.9399C406.928 29.1984 406.411 29.1984 405.877 29.1984H396.775V26.854H405.521V23.0788H396.775V20.7172H405.877C406.411 20.7172 406.928 20.7172 407.462 20.9585V16.0284ZM437.421 32.353C437.599 32.9219 437.902 33.439 438.294 33.8872H426.574C426.627 33.3701 426.431 32.8702 426.218 32.353C426.218 32.353 426.04 31.9393 425.79 31.336L425.683 31.0774H418.933L418.826 31.3532C418.826 31.3532 418.63 31.8531 418.452 32.3703C418.274 32.8874 418.078 33.3873 418.149 33.9045H408.905C409.279 33.4563 409.564 32.9391 409.742 32.3703L415.281 17.5798C415.477 17.0627 415.673 16.5628 415.602 16.0456H431.223C431.08 16.5628 431.365 17.0627 431.561 17.5798C432.024 18.7003 437.029 31.3532 437.421 32.353ZM424.205 27.3022L422.566 23.165C422.424 22.7858 422.299 22.3893 422.21 21.9928C422.139 22.3893 422.032 22.7858 421.889 23.165C421.836 23.3374 421.141 25.1474 420.34 27.3022H424.205ZM349.2 17.5626C349.2 17.0455 349.2 16.5455 349.467 16.0284H337.284C337.551 16.5455 337.551 17.0455 337.551 17.5626V32.353C337.551 32.8702 337.551 33.3701 337.284 33.8872H349.467C349.2 33.3701 349.2 32.8702 349.2 32.353V17.5626ZM433.681 17.4419C433.645 18.7348 434.696 19.8208 436.05 19.8553C437.386 19.8898 438.508 18.8727 438.543 17.5626C438.543 17.5281 438.543 17.4764 438.543 17.4419C438.561 16.1663 437.528 15.1148 436.21 15.0975C436.174 15.0975 436.157 15.0975 436.121 15.0975C434.821 15.0458 433.734 16.0284 433.699 17.2868C433.663 17.3385 433.663 17.3902 433.681 17.4419ZM438.045 17.4419C438.08 18.4762 437.225 19.3554 436.157 19.3726C435.088 19.4071 434.179 18.5797 434.162 17.5454C434.162 17.5109 434.162 17.4764 434.162 17.4247C434.126 16.4249 434.928 15.5802 435.961 15.5457C436.014 15.5457 436.05 15.5457 436.103 15.5457C437.154 15.5285 438.027 16.3387 438.045 17.3557C438.045 17.3902 438.045 17.4247 438.045 17.4419ZM437.297 18.8555H436.816L436.246 17.8557H435.622V18.8555H435.195V16.0284H436.281C436.798 16.0456 437.19 16.4421 437.19 16.942C437.19 17.2868 436.994 17.5971 436.673 17.7695L437.297 18.8555ZM436.21 17.4419C436.495 17.4592 436.744 17.2523 436.744 16.9765C436.744 16.7007 436.548 16.4594 436.263 16.4594C436.246 16.4594 436.228 16.4594 436.21 16.4594H435.622V17.4592H436.21" fill="#C5CFD6"/>
</g>
<g clip-path="url(#clip7)">
<path d="M787.326 15.3352H795.067L801.564 26.2042C801.564 26.2042 801.564 18.3335 801.564 17.7202C801.564 16.7662 800.337 15.5226 799.905 15.3352C800.423 15.3352 804.95 15.3352 805.261 15.3352C804.933 15.4204 803.879 16.681 803.879 17.7202C803.879 18.2313 803.879 29.6455 803.879 30.1906C803.879 30.9572 805.002 32.0135 805.538 32.4223H798.073L791.473 21.5022C791.473 21.5022 791.473 29.6455 791.473 30.0884C791.473 30.9402 792.32 31.7579 793.201 32.4564H787.499C788.311 32.1157 789.088 31.0424 789.158 30.1906C789.227 29.3388 789.158 18.3506 789.158 17.8736C789.158 16.8344 788.138 15.9826 787.326 15.3352Z" fill="#C5CFD6"/>
<path d="M858.134 32.4223H868.432C867.862 32.286 867.223 31.6216 866.877 30.7358C866.532 29.8499 861.072 15.3352 861.072 15.3352H857.491C856.02 15.644 854.006 15.0819 852.735 15.9576C852.732 15.9894 853.579 17.894 853.573 17.9247C853.402 18.9468 850.338 29.8885 850.152 30.4291C849.892 31.1787 848.562 32.0135 848.026 32.4564H853.573C853.02 31.8431 852.571 31.2468 852.674 30.5654C852.778 29.884 853.089 28.5211 853.089 28.5211H858.826C859.085 29.2025 859.278 29.8147 859.378 30.395C859.499 31.0935 858.774 31.8772 858.134 32.4223ZM853.607 26.3405L855.543 20.1053L858.1 26.3405H853.607ZM852.735 15.9576C853.02 15.7509 857.207 15.543 857.491 15.3352H852.087C852.237 15.4715 852.484 15.6861 852.735 15.9576Z" fill="#C5CFD6"/>
<path d="M813.348 30.5654C813.452 29.884 813.763 28.5211 813.763 28.5211H819.499C819.758 29.2025 819.952 29.8147 820.052 30.395C820.173 31.0935 819.447 31.8772 818.808 32.4223H827.875C828.064 32.2974 828.251 32.1725 828.439 32.0487C828.088 31.742 827.764 31.282 827.551 30.7358C827.205 29.8499 821.745 15.3352 821.745 15.3352H812.76C813.192 15.727 814.436 16.7833 814.246 17.9247C814.077 18.9468 811.012 29.8885 810.825 30.4291C810.566 31.1787 809.236 32.0135 808.7 32.4564H814.246C813.693 31.8431 813.244 31.2468 813.348 30.5654ZM816.216 20.1053L818.773 26.3405H814.281L816.216 20.1053Z" fill="#C5CFD6"/>
<path d="M844.667 23.8169C842.976 24.9276 841.192 26.0872 839.312 27.2979C840.155 27.7011 840.827 28.2076 840.891 28.8618C841.011 30.0907 838.507 30.6847 836.243 30.4291C835.791 30.378 835.358 30.3129 834.935 30.1561C833.807 29.7393 833.365 29.3475 832.96 29.0696C831.6 29.5756 832.412 31.7 831.734 32.1407V33.9045C832.183 33.0356 833.165 32.2577 833.928 32.2179C834.256 32.2009 835.397 33.2401 840.097 32.9845C842.377 32.8607 846.783 30.4632 846.714 27.7034C846.673 26.0724 845.809 24.8004 844.667 23.8169ZM831.732 28.0782L831.734 32.1407C832.149 31.867 832.558 29.332 832.96 29.0696C832.328 28.6358 831.88 28.2303 831.732 28.0782ZM844.667 23.8169C843.663 23.0935 842.179 22.2098 841.754 22.0122C839.542 20.99 837.227 20.8026 836.743 19.4227C836.402 18.4494 837.365 17.5488 839.715 17.5828C842.065 17.6169 844.242 18.9968 844.83 19.4909V15.0956C844.657 15.2659 843.899 16.1234 843.206 15.9815C841.875 15.7089 839.612 15.3534 837.02 15.3682C834.048 15.3852 831.491 17.6498 831.404 20.513C831.283 24.5165 834.532 25.6068 836.363 26.2371C836.552 26.3019 839.078 27.2241 839.312 27.2979C841.069 26.1713 841.673 26.168 842.486 25.7057C843.032 25.3957 843.829 24.3609 844.667 23.8169Z" fill="#C5CFD6"/>
</g>
<g clip-path="url(#clip8)">
<path d="M645.912 24.3689C645.912 23.0278 644.827 21.92 643.411 21.92C642.026 21.92 640.911 23.0278 640.911 24.3689C640.911 25.7099 641.995 26.7886 643.411 26.7886C644.827 26.7886 645.912 25.7099 645.912 24.3689ZM650.25 24.398C650.25 27.8672 647.208 30.6368 643.442 30.6368C639.645 30.6368 636.633 27.8672 636.633 24.398C636.633 20.8996 639.676 18.1009 643.442 18.1009C647.208 18.0718 650.25 20.8996 650.25 24.398ZM663.838 21.8617C663.838 19.5294 662.151 17.4887 659.65 17.4887H656.186V26.3221H659.65C662.151 26.3221 663.838 24.1939 663.838 21.8617ZM668.508 21.8617C668.508 26.8469 664.862 30.2578 659.741 30.2578H652.329C651.968 30.2578 651.697 29.9954 651.697 29.6747V14.1069C651.697 13.7862 651.968 13.5239 652.329 13.5239H659.741C664.892 13.553 668.508 16.8765 668.508 21.8617ZM675.769 26.7886C677.154 26.7886 678.269 25.6808 678.269 24.3397C678.269 22.9987 677.185 21.8908 675.769 21.8908C674.383 21.8908 673.268 22.9987 673.268 24.3397C673.268 25.7099 674.383 26.7886 675.769 26.7886ZM675.106 18.0718C676.582 18.0718 677.757 18.5965 678.269 19.3254V18.9755C678.269 18.6548 678.54 18.4216 678.842 18.4216H681.975C682.306 18.4216 682.547 18.6548 682.547 18.9755V29.7039C682.547 30.0246 682.306 30.2578 681.975 30.2578H678.872C678.54 30.2578 678.299 30.0246 678.299 29.7039V29.3541C677.787 30.0829 676.582 30.6076 675.106 30.6076C671.972 30.6076 668.96 28.1879 668.96 24.3106C668.96 20.4332 671.972 18.0718 675.106 18.0718ZM689.929 26.7886C691.314 26.7886 692.429 25.6808 692.429 24.3397C692.429 22.9987 691.345 21.8908 689.929 21.8908C688.543 21.8908 687.428 22.9987 687.428 24.3397C687.428 25.7099 688.543 26.7886 689.929 26.7886ZM689.175 18.0718C690.682 18.0718 691.857 18.6257 692.399 19.267V14.1069C692.399 13.7862 692.67 13.553 692.971 13.553H696.135C696.466 13.553 696.707 13.7862 696.707 14.1069V29.733C696.707 30.0537 696.466 30.287 696.135 30.287H693.032C692.7 30.287 692.459 30.0537 692.459 29.733V29.3832C691.827 30.112 690.742 30.6368 689.266 30.6368C686.132 30.6368 683.12 28.2171 683.12 24.3397C683.12 20.4623 686.102 18.0718 689.175 18.0718ZM704.089 26.7886C705.474 26.7886 706.589 25.6808 706.589 24.3397C706.589 22.9987 705.505 21.8908 704.089 21.8908C702.703 21.8908 701.588 22.9987 701.588 24.3397C701.618 25.7099 702.703 26.7886 704.089 26.7886ZM703.366 18.0718C704.872 18.0718 706.047 18.6257 706.589 19.267V14.1069C706.589 13.7862 706.86 13.553 707.162 13.553H710.295C710.626 13.553 710.867 13.7862 710.867 14.1069V29.733C710.867 30.0537 710.626 30.287 710.295 30.287H707.192C706.86 30.287 706.619 30.0537 706.619 29.733V29.3832C705.987 30.112 704.902 30.6368 703.426 30.6368C700.293 30.6368 697.28 28.2171 697.28 24.3397C697.28 20.4623 700.262 18.0718 703.366 18.0718ZM721.292 31.9778C720.508 34.485 718.701 35.8844 715.869 35.8844C714.332 35.8844 712.826 35.3888 711.862 34.5725C711.711 34.4267 711.621 34.2518 711.621 34.0769C711.621 33.9311 711.681 33.7562 711.831 33.5813L713.006 31.8612C713.187 31.628 713.458 31.5989 713.519 31.5989C713.79 31.5989 713.91 31.6572 714.151 31.8321C714.513 32.0653 715.025 32.3568 715.597 32.3568C716.079 32.3568 716.712 32.1528 716.953 31.4531L717.345 30.2578H715.417C715.025 30.2578 714.784 29.9954 714.663 29.6747L711.5 19.3837C711.44 19.1213 711.41 18.9755 711.41 18.8881C711.41 18.6548 711.59 18.4508 711.922 18.4508H715.658C715.989 18.4508 716.17 18.7423 716.26 19.0338L718.339 26.4387H718.49L720.147 19.0338C720.207 18.7423 720.418 18.4508 720.749 18.4508H724.545C724.907 18.4508 725.057 18.6548 725.057 18.8881C725.057 18.9755 725.027 19.1213 724.967 19.3837L721.292 31.9778ZM632.174 27.9547C630.667 29.9663 628.197 30.6368 625.998 30.6368C620.936 30.6368 617.2 26.9926 617.2 21.92C617.23 17.0514 621.268 13.174 626.54 13.174C630.457 13.174 633.59 14.7775 635.006 17.8385C635.187 18.1884 635.307 18.7714 634.253 18.9464L631.481 19.4128C630.848 19.5294 630.487 19.1213 630.366 18.9464C629.553 17.8677 628.227 17.1389 626.63 17.1389C623.859 17.1389 621.9 19.1796 621.9 21.8908C621.9 24.8936 624.13 26.6428 626.57 26.6428C628.197 26.6428 629.523 26.0597 630.396 24.9519H627.956C627.594 24.9519 627.323 24.6895 627.323 24.3689V22.1241C627.323 21.8034 627.594 21.541 627.956 21.541H635.397C635.759 21.541 636.03 21.8034 636.03 22.1241V29.6747C636.03 29.9954 635.759 30.2578 635.397 30.2578H632.806C632.445 30.2578 632.174 29.9954 632.174 29.6747V27.9547ZM725.6 13.1157C724.274 13.1157 723.19 14.1652 723.19 15.448C723.19 16.7307 724.274 17.7802 725.6 17.7802C726.925 17.7802 728.01 16.7307 728.01 15.448C728.01 14.1652 726.925 13.1157 725.6 13.1157ZM725.6 17.3138C724.545 17.3138 723.672 16.4683 723.672 15.448C723.672 14.4276 724.545 13.5822 725.6 13.5822C726.654 13.5822 727.528 14.4276 727.528 15.448C727.528 16.4683 726.654 17.3138 725.6 17.3138Z" fill="#C5CFD6"/>
<path d="M726.082 15.0107C726.082 14.8941 726.052 14.8066 725.961 14.7774C725.901 14.7191 725.781 14.6608 725.69 14.6608H725.268V15.3314H725.69C725.811 15.3314 725.901 15.3022 725.961 15.2147C726.022 15.1564 726.082 15.0981 726.082 15.0107ZM725.148 16.7307H724.696C724.666 16.7307 724.666 16.7307 724.636 16.7016C724.636 16.6724 724.606 16.6724 724.606 16.6433V14.2235C724.606 14.1944 724.606 14.1944 724.636 14.1652C724.666 14.1652 724.666 14.1361 724.696 14.1361H725.69C726.022 14.1361 726.263 14.1944 726.443 14.3693C726.624 14.5442 726.715 14.7483 726.715 14.9815C726.715 15.1564 726.684 15.3022 726.564 15.4188C726.443 15.5646 726.353 15.652 726.202 15.7395L726.775 16.5849C726.805 16.6141 726.805 16.6433 726.775 16.7016C726.775 16.7307 726.745 16.7307 726.715 16.7307H726.263C726.232 16.7307 726.202 16.7307 726.142 16.7016C726.112 16.7016 726.112 16.6724 726.082 16.6433L725.6 15.8561H725.238V16.6141C725.238 16.6433 725.238 16.6433 725.208 16.6724C725.178 16.7016 725.178 16.7307 725.148 16.7307Z" fill="#C5CFD6"/>
</g>
<g clip-path="url(#clip9)">
<path d="M109.79 21.8452H119.364V31.9246H109.79V21.8452Z" fill="#C5CFD6"/>
<path d="M131.744 37.6054C131.744 40.6694 132.174 42.6563 133.025 43.5727C133.751 44.3532 134.982 44.8319 136.71 45.0158C137.223 45.062 138.097 45.0822 139.333 45.0822V47.7636H117.173V45.0822C118.951 45.0822 120.269 44.9902 121.115 44.8135C122.832 44.4321 123.915 43.3841 124.361 41.6617C124.589 40.7673 124.71 39.4168 124.71 37.606V2.52697C120.946 2.64026 118.006 3.94748 115.882 6.45041C113.865 8.84303 112.636 12.512 112.192 17.4526L109.79 17.022L110.238 0.24646H146.269L146.717 17.022L144.32 17.4526C143.873 12.512 142.636 8.84303 140.611 6.45041C138.476 3.94689 135.523 2.64026 131.745 2.52697V37.6054H131.744Z" fill="#C5CFD6"/>
<path d="M137.143 21.8452H146.717V31.9246H137.143V21.8452Z" fill="#C5CFD6"/>
</g>
<defs>
<clipPath id="clip0">
<rect width="47.477" height="47.5172" fill="white" transform="translate(1024.71 0.24646)"/>
</clipPath>
<clipPath id="clip1">
<rect width="58.3571" height="47.5172" fill="white" transform="translate(499.497 0.24646)"/>
</clipPath>
<clipPath id="clip2">
<rect width="75.1718" height="37.6178" fill="white" transform="translate(203.755 5.19617)"/>
</clipPath>
<clipPath id="clip3">
<rect width="46.546" height="47.5172" fill="white" transform="translate(0 0.24646)"/>
</clipPath>
<clipPath id="clip4">
<rect width="47.477" height="48.2962" fill="white" transform="matrix(1 0 0 -1 1132.52 48.7536)"/>
</clipPath>
<clipPath id="clip5">
<rect width="47.477" height="47.5172" fill="white" transform="translate(926.79 0.24646)"/>
</clipPath>
<clipPath id="clip6">
<rect width="102.867" height="18.8089" fill="white" transform="translate(337.284 15.0956)"/>
</clipPath>
<clipPath id="clip7">
<rect width="81.1065" height="18.8089" fill="white" transform="translate(787.326 15.0956)"/>
</clipPath>
<clipPath id="clip8">
<rect width="110.78" height="22.7687" fill="white" transform="translate(617.2 13.1157)"/>
</clipPath>
<clipPath id="clip9">
<rect width="36.9265" height="47.5172" fill="white" transform="translate(109.79 0.24646)"/>
</clipPath>
</defs>
</svg>
