<svg width="576" height="113" viewBox="0 0 576 113" fill="none" xmlns="http://www.w3.org/2000/svg">
<path d="M7.75674 26.1509L6.53844 30.699L2.08558 30.7932C0.754825 28.325 0 25.501 0 22.5C0 19.5981 0.705742 16.8615 1.95672 14.4519L5.92198 15.1787L7.65858 19.1192C7.29511 20.1789 7.097 21.3164 7.097 22.5C7.09714 23.7846 7.32984 25.0154 7.75674 26.1509Z" fill="#C5CFD6"/>
<path d="M34.6942 19.2308C34.8952 20.2894 35 21.3827 35 22.5C35 23.7529 34.8683 24.975 34.6173 26.1539C33.7654 30.1654 31.5394 33.6683 28.4558 36.1472L28.4549 36.1462L23.4616 35.8914L22.7549 31.4799C24.8011 30.2799 26.4001 28.402 27.2424 26.1539H17.8847V19.2308H34.6942Z" fill="#C5CFD6"/>
<path d="M28.4549 36.1462L28.4558 36.1472C25.4568 38.5577 21.6471 40 17.5 40C10.8355 40 5.04137 36.275 2.08558 30.7932L7.75674 26.1509C9.2346 30.0951 13.0394 32.9029 17.5 32.9029C19.4172 32.9029 21.2136 32.3847 22.7549 31.4799L28.4549 36.1462Z" fill="#C5CFD6"/>
<path d="M28.6702 9.02883L23.001 13.6702C21.4058 12.6731 19.5202 12.0971 17.5 12.0971C12.9385 12.0971 9.06241 15.0336 7.65858 19.1192L1.9577 14.4519C4.87022 8.83653 10.7366 5 17.5 5C21.7462 5 25.6394 6.51252 28.6702 9.02883Z" fill="#C5CFD6"/>
<path d="M136.982 26.6286C136.948 26.1037 136.875 25.5748 136.754 25.0624C136.419 23.6407 135.842 22.3162 135.091 21.0599C134.263 19.6774 133.293 18.4025 132.172 17.2413C131.588 16.6378 130.98 16.0552 130.377 15.4683C130.202 15.299 130.018 15.1356 129.825 14.9868C128.999 14.3442 128.198 13.6665 127.328 13.0898C125.839 12.1001 124.346 11.1021 122.78 10.2425C121.303 9.43247 119.756 8.73203 118.189 8.10377C116.608 7.46931 114.977 6.94663 113.346 6.44654C112.292 6.12422 111.202 5.90507 110.121 5.68412C109.251 5.50636 108.375 5.36599 107.495 5.25841C106.526 5.13864 105.55 5.03726 104.573 5.01047C103.508 4.97947 102.442 5.02286 101.377 5.06825C101.085 5.08065 100.792 5.09505 100.499 5.11984C100.142 5.15083 99.786 5.19422 99.4367 5.26241C98.3534 5.47316 97.2764 5.72731 96.212 6.01864C95.8837 6.10962 94.8695 6.42775 94.3654 7.34114C94.2567 7.5375 94.0936 7.89502 94.0203 8.31232C93.8886 9.07075 94.4113 9.80019 95.1831 9.89937C95.1894 9.89937 95.1936 9.89937 95.1977 9.90137C95.8335 9.97575 96.4775 10.0047 97.1196 10.0233C97.3391 10.0295 97.5818 9.99035 97.7763 9.89317C97.9394 9.81259 98.0982 9.63703 98.1547 9.46746C98.1818 9.38488 97.9958 9.17613 97.8641 9.10994C97.496 8.93218 97.084 8.8414 96.7013 8.69664C96.5841 8.65325 96.4629 8.63045 96.3394 8.60366C96.285 8.59126 96.2474 8.54587 96.2433 8.49008V8.48389C96.2433 8.44049 96.2664 8.3991 96.3061 8.37651C96.4127 8.31652 96.5173 8.25674 96.6302 8.23814C97.5002 8.09557 98.3682 7.90342 99.2422 7.80824C99.4575 7.78344 99.673 7.76485 99.8884 7.75445C101.499 7.68007 103.117 7.66967 104.723 7.91561C105.639 8.05618 106.572 8.10577 107.471 8.30813C109.138 8.68424 110.803 9.08515 112.44 9.57264C113.722 9.95496 114.979 10.424 116.198 10.9715C117.926 11.7485 119.647 12.5544 121.29 13.4884C122.727 14.3046 124.084 15.2696 125.425 16.2407C126.389 16.9392 127.295 17.7244 128.175 18.5282C128.767 19.0675 129.271 19.704 129.804 20.3052C130.774 21.4004 131.536 22.6257 132.083 23.975C132.661 25.3947 132.889 26.8638 132.573 28.3742C132.236 29.9818 131.368 31.2836 130.074 32.2961C129.06 33.0876 127.924 33.691 126.692 34.0711C125.63 34.3997 124.543 34.6622 123.451 34.8831C122.566 35.0629 121.663 35.2137 120.764 35.2427C119.653 35.2799 118.532 35.2283 117.426 35.1249C116.322 35.0215 115.232 34.7944 114.132 34.6538C113.862 34.6186 113.835 34.5132 113.839 34.3005C113.866 32.9056 113.885 31.5109 113.904 30.1182C113.927 28.4962 113.946 26.8739 113.969 25.2519C113.971 25.1941 113.99 25.1361 114.002 25.0598C114.565 25.1051 115.111 25.1485 115.659 25.1961C116.399 25.2561 117.148 25.2787 117.884 25.3925C119.007 25.564 120.127 25.7686 121.238 26.0145C122.064 26.1985 122.89 26.4256 123.593 26.9361C124.13 27.3266 124.047 27.6924 123.603 28.0457C123.438 28.1759 123.237 28.2626 123.047 28.3598C122.719 28.5252 122.376 28.6655 122.06 28.8517C121.675 29.0769 121.667 29.3332 122.054 29.5274C123.122 30.0646 124.189 30.385 125.358 29.7091C127.286 28.5954 127.775 26.2335 126.146 24.5805C125.301 23.7251 124.27 23.1732 123.145 22.7663C121.945 22.3304 120.692 22.1318 119.446 21.8881C117.836 21.5761 116.217 21.4024 114.577 21.4046C114.487 21.4046 114.395 21.3942 114.312 21.3902C114.28 20.8881 114.247 20.4066 114.22 19.9271C114.195 19.4436 114.199 18.9601 114.151 18.4786C114.086 17.8008 114 17.1231 113.9 16.4495C113.779 15.6395 113.272 15.0236 112.771 14.4223C112.409 13.9904 111.924 13.9637 111.639 14.5877C111.568 14.7447 111.491 14.9018 111.453 15.0672C111.235 15.9826 110.995 16.896 110.832 17.8196C110.679 18.6916 110.612 19.578 110.508 20.4584C110.466 20.8117 110.434 21.1672 110.376 21.5184C110.363 21.5907 110.267 21.6939 110.196 21.7085C109.502 21.8429 108.801 21.9503 108.107 22.0866C106.118 22.4833 104.198 23.0868 102.4 24.0208C101.67 24.3989 100.967 24.8288 100.467 25.5127C99.8714 26.3247 99.7354 27.1865 100.193 28.0915C100.701 29.0936 101.452 29.9285 102.209 30.7489C102.68 31.2572 103.184 31.7325 103.715 32.1788C104.502 32.838 105.288 33.5117 106.143 34.0757C107.243 34.799 108.412 35.421 109.543 36.0945C109.638 36.1503 109.73 36.2824 109.746 36.39C109.847 37.0017 109.899 37.6215 110.014 38.229C110.114 38.7539 110.323 39.2498 110.746 39.6053C111.325 40.091 112.003 40.0764 112.668 39.8408C113.071 39.6983 113.527 39.5557 113.628 39.0412C113.69 38.7209 113.766 38.3986 113.768 38.0782C113.77 37.7765 113.864 37.7331 114.132 37.8097C115.786 38.285 117.484 38.5349 119.195 38.6673C120.083 38.7375 120.98 38.6797 121.873 38.6817C123.193 38.6859 124.488 38.5019 125.778 38.2498C127.424 37.9275 129.009 37.4232 130.521 36.7103C131.583 36.2082 132.562 35.58 133.459 34.8156C134.34 34.0655 135.084 33.2099 135.634 32.2077C136.584 30.4721 137.107 28.6208 136.982 26.6286ZM110.138 27.4304C110.132 27.5234 110.136 27.6164 110.132 27.7094C110.09 28.6124 110.058 29.5154 110.002 30.4184C109.956 31.1622 109.883 31.9062 109.816 32.65C109.795 32.8918 109.757 33.1357 109.726 33.3981C107.948 32.7058 106.277 31.873 104.738 30.7925C103.529 29.9473 102.429 28.9845 101.484 27.8583C101.022 27.3107 101.172 26.8004 101.775 26.5502C102.582 26.2135 103.433 25.9676 104.286 25.7692C105.162 25.5646 106.064 25.4489 106.959 25.3291C107.511 25.2527 108.071 25.2361 108.63 25.1969C109.163 25.1577 109.696 25.1205 110.263 25.0792C110.222 25.8766 110.178 26.6534 110.138 27.4304Z" fill="#C5CFD6"/>
<g clip-path="url(#clip0)">
<path fill-rule="evenodd" clip-rule="evenodd" d="M239.074 8.73337C239.074 8.29665 239.406 8 239.838 8C240.269 8 240.602 8.29665 240.602 8.73337C240.602 9.1701 240.261 9.46675 239.838 9.46675C239.414 9.46675 239.074 9.1701 239.074 8.73337ZM239.306 8.73337C239.306 9.03002 239.53 9.2525 239.838 9.2525C240.145 9.2525 240.369 9.03002 240.369 8.73337C240.369 8.43673 240.145 8.206 239.838 8.206C239.53 8.206 239.306 8.43673 239.306 8.73337ZM208.769 22.5768H212.497L217.994 8.04119H214.531L212.066 14.5591L212.489 8.04119H208.811L203.315 22.5768H206.777L209.193 16.1495L208.769 22.5768ZM204.286 25.8728C204.286 25.4361 204.618 25.1395 205.05 25.1395C205.482 25.1395 205.814 25.4361 205.814 25.8728C205.814 26.3096 205.473 26.6062 205.05 26.6062C204.626 26.6062 204.286 26.3096 204.286 25.8728ZM204.518 25.8728C204.518 26.1695 204.743 26.392 205.05 26.392C205.357 26.392 205.581 26.1695 205.581 25.8728C205.581 25.5762 205.357 25.3455 205.05 25.3455C204.743 25.3455 204.518 25.5762 204.518 25.8728ZM212.946 22.5768L218.442 8.04119H221.904L216.408 22.5768H212.946ZM197.553 34.1542C193.518 30.7016 198.084 23.203 202.916 17.5668C198.748 25.8481 204.51 28.9135 209.575 27.5044C209.575 27.5044 218.523 25.096 227.959 22.5569L222.967 22.5686L222.809 16.4956L220.484 22.5686H217.022L222.469 8.04119H225.972L224.295 12.4002L227.923 8.04119H231.519H231.552H238.484L237.554 10.4638H234.051L232.913 13.5209H236.243L235.221 16.2319H231.892L230.564 19.7504H234.599L234.189 20.881C242.411 18.6691 249.541 16.7519 249.618 16.7345C250.066 16.6274 250.133 16.8499 249.776 17.0229C249.776 17.0229 212.995 32.877 209.666 34.1954L209.601 34.2213C206.273 35.5475 201.43 37.478 197.553 34.1542ZM205.183 25.9223C205.291 25.9141 205.374 25.8647 205.374 25.7163C205.374 25.5268 205.249 25.4774 205.042 25.4774H204.743V26.2684H204.942V25.9306H204.975L205.158 26.2684H205.39L205.183 25.9223ZM205.05 25.7987H204.934V25.6175H205.033C205.091 25.6175 205.158 25.6257 205.158 25.6999C205.158 25.7823 205.125 25.7987 205.05 25.7987ZM239.971 8.78282C240.078 8.77458 240.161 8.72514 240.161 8.57681C240.161 8.38729 240.037 8.33785 239.829 8.33785H239.53V9.1289H239.73V8.79106H239.763L239.946 9.1289H240.178L239.971 8.78282ZM239.838 8.65921H239.721V8.47793H239.821C239.879 8.47793 239.946 8.48617 239.946 8.56033C239.946 8.64273 239.912 8.65921 239.838 8.65921ZM226.18 14.0318L226.404 21.6045L231.411 8.3296L226.18 14.0318Z" fill="#C5CFD6"/>
</g>
<g clip-path="url(#clip1)">
<path d="M309 5.375V38.625H309.206L322.304 5.375H309Z" fill="#C5CFD6"/>
<path d="M346 5.375H332.495L346 38.625V5.375Z" fill="#C5CFD6"/>
<path d="M330.895 38.625H336.491L327.481 17.1621L321.529 32.1436H328.18L330.895 38.625Z" fill="#C5CFD6"/>
</g>
<path d="M567.248 15.6745C566.146 15.9713 556.071 23.7841 555.407 25.7011C555.261 26.3632 555.422 32.7841 555.568 33.7469C556.232 33.8944 561.025 33.7661 561.904 33.9129L561.799 35.8978C560.938 35.831 554.848 35.8467 551.373 35.8467C549.607 35.8467 543.93 36.0419 542.187 35.9912L542.517 34.102C543.473 34.0312 547.432 34.2783 548.299 33.3534C548.731 32.8935 548.595 26.7914 548.449 25.7597C548.082 24.6561 539.253 13.5934 536.946 11.781H531V8.99988H551.054V9.19176C551.072 9.19176 551.106 9.19489 551.123 9.19835L551.054 9.66831V11.7809H545.007C547.702 15.7223 551.567 20.4809 553.215 22.7675L561.293 15.4474H556.491L555.815 12.6693H573.403L573.273 12.8674C573.286 12.8674 573.316 12.8705 573.335 12.8705L572.078 14.6927C572.067 14.6927 572.048 14.6959 572.038 14.6989L571.531 15.4474H568.287C567.867 15.5399 567.498 15.6225 567.248 15.6745ZM572.986 33.0918L571.434 33.0152L569.701 32.8037L569.716 35.7736L571.082 35.8913L572.555 36.0001L572.986 33.0918ZM576 18.8959C575.476 18.8774 570.712 18.4265 570.093 18.3039L570.166 30.85L572.862 31.0678L576 18.8959Z" fill="#C5CFD6"/>
<path fill-rule="evenodd" clip-rule="evenodd" d="M405 36.0892H471.691H471.7V9H405V36.0892ZM438.35 34.5312C419.73 34.5312 406.3 29.0923 406.3 22.5446C406.3 15.9969 419.739 10.5581 438.35 10.5581C456.961 10.5581 470.391 15.9969 470.391 22.5446C470.391 29.0923 456.97 34.5312 438.35 34.5312Z" fill="#C5CFD6"/>
<path d="M427.549 17.3351C427.405 17.6219 427.405 17.8991 427.405 18.1858V21.7703C427.405 21.7703 429.327 19.2755 429.766 18.6829C430.101 18.2432 430.512 17.6219 430.512 17.3351H436.783C436.352 17.6219 435.874 18.138 435.483 18.616C435.138 19.0366 433.188 21.4167 433.188 21.4167C433.188 21.4167 436.085 25.8232 436.458 26.3872C436.668 26.6931 436.897 26.9798 437.165 27.2379H429.948C429.948 26.9511 429.671 26.3681 429.365 25.9092C429.059 25.4504 427.405 22.9365 427.405 22.9365V26.3872C427.405 26.6739 427.405 26.9511 427.549 27.2379H421.536C421.68 26.9511 421.68 26.6739 421.68 26.3872V18.1858C421.68 17.8991 421.68 17.6219 421.536 17.3351H427.549ZM449.811 17.3351H438.207C438.35 17.6219 438.35 17.8991 438.35 18.1858V26.3872C438.35 26.6739 438.35 26.9511 438.207 27.2379H449.811V24.4946C449.524 24.6379 449.247 24.6379 448.96 24.6379H444.076V23.338H448.769V21.2446H444.076V19.9351H448.96C449.247 19.9351 449.524 19.9351 449.811 20.0689V17.3351ZM465.889 26.3872C465.984 26.7026 466.147 26.9894 466.357 27.2379H460.067C460.096 26.9511 459.991 26.6739 459.876 26.3872C459.876 26.3872 459.781 26.1578 459.647 25.8232L459.59 25.6798H455.967L455.909 25.8328C455.909 25.8328 455.804 26.11 455.709 26.3967C455.613 26.6835 455.508 26.9607 455.546 27.2475H450.585C450.786 26.9989 450.939 26.7122 451.035 26.3967L454.007 18.1954C454.112 17.9086 454.218 17.6314 454.179 17.3447H462.562C462.486 17.6314 462.639 17.9086 462.744 18.1954C462.992 18.8167 465.678 25.8328 465.889 26.3872ZM458.796 23.5865L457.917 21.2924C457.84 21.0821 457.773 20.8623 457.726 20.6424C457.687 20.8623 457.63 21.0821 457.554 21.2924C457.525 21.388 457.152 22.3917 456.722 23.5865H458.796ZM418.545 18.1858C418.545 17.8991 418.545 17.6219 418.688 17.3351H412.15C412.293 17.6219 412.293 17.8991 412.293 18.1858V26.3872C412.293 26.6739 412.293 26.9511 412.15 27.2379H418.688C418.545 26.9511 418.545 26.6739 418.545 26.3872V18.1858ZM463.881 18.1189C463.862 18.8358 464.426 19.438 465.153 19.4571C465.87 19.4763 466.472 18.9123 466.491 18.1858C466.491 18.1667 466.491 18.138 466.491 18.1189C466.5 17.4116 465.946 16.8285 465.239 16.819C465.22 16.819 465.21 16.819 465.191 16.819C464.493 16.7903 463.91 17.3351 463.891 18.0329C463.872 18.0616 463.872 18.0903 463.881 18.1189ZM466.223 18.1189C466.242 18.6925 465.784 19.1799 465.21 19.1895C464.636 19.2086 464.149 18.7498 464.139 18.1763C464.139 18.1572 464.139 18.138 464.139 18.1094C464.12 17.555 464.55 17.0866 465.105 17.0675C465.134 17.0675 465.153 17.0675 465.181 17.0675C465.745 17.0579 466.214 17.5072 466.223 18.0711C466.223 18.0903 466.223 18.1094 466.223 18.1189ZM465.822 18.9027H465.564L465.258 18.3483H464.923V18.9027H464.694V17.3351H465.277C465.554 17.3447 465.764 17.5645 465.764 17.8417C465.764 18.0329 465.659 18.205 465.487 18.3005L465.822 18.9027ZM465.239 18.1189C465.392 18.1285 465.525 18.0138 465.525 17.8608C465.525 17.7079 465.42 17.5741 465.267 17.5741C465.258 17.5741 465.248 17.5741 465.239 17.5741H464.923V18.1285H465.239" fill="#C5CFD6"/>
<path fill-rule="evenodd" clip-rule="evenodd" d="M43.47 76H26V93.47H43.47V76ZM62.764 76H45.294V93.47H62.764V76ZM26 95.294H43.47V112.764H26V95.294ZM62.764 95.294H45.294V112.764H62.764V95.294Z" fill="#C5CFD6"/>
<path d="M130.902 83.9739L125.067 83.9669L132.378 76.407L132.38 82.5042L130.902 83.9739ZM151.574 80.9707C150.951 79.869 147.698 78.5995 146.009 78.5995C144.322 78.5995 141.657 78.5995 141.657 78.5995C141.657 78.5995 140.26 76 136.975 76C133.688 76 133.908 77.5059 133.908 78.7919V83.9908L132.418 85.6073H125.538C125.538 85.6073 123.6 86.9249 123.6 89.773C123.6 92.6216 124.46 102.546 130.234 103.465C137.066 104.553 138.236 101.289 138.236 100.897C138.236 99.2442 138.277 96.7406 138.277 96.7406C138.277 96.7406 140.277 100.669 143.299 100.669C146.32 100.669 148.076 102.453 148.076 104.29C148.076 106.129 148.076 107.689 148.076 107.689C148.076 107.689 147.964 109.817 146.188 109.817C144.41 109.817 142.396 109.817 142.396 109.817C142.396 109.817 141.152 108.821 141.152 107.444C141.152 106.066 141.76 105.692 142.471 105.692C143.181 105.692 143.764 105.776 143.764 105.776V102.879C143.764 102.879 138.042 102.841 138.042 107.344C138.043 111.844 141.035 113 143.434 113C145.831 113 147.342 113 147.342 113C147.342 113 154.4 112.067 154.4 97.7375C154.4 83.4066 152.195 82.0733 151.574 80.9707ZM144.556 93.8163C144.556 93.8163 144.899 91.4533 146.232 91.4533C147.565 91.4533 149.396 94.6094 149.396 94.6094C149.396 94.6094 145.22 93.8163 144.556 93.8163Z" fill="#C5CFD6"/>
<path d="M304 85.2342H311.463L317.726 95.8565C317.726 95.8565 317.726 88.1645 317.726 87.5651C317.726 86.6327 316.544 85.4173 316.127 85.2342C316.627 85.2342 320.991 85.2342 321.291 85.2342C320.975 85.3174 319.959 86.5495 319.959 87.5651C319.959 88.0646 319.959 99.2196 319.959 99.7524C319.959 100.502 321.041 101.534 321.558 101.933H314.361L307.998 91.2613C307.998 91.2613 307.998 99.2196 307.998 99.6525C307.998 100.485 308.814 101.284 309.664 101.967H304.167C304.95 101.634 305.699 100.585 305.766 99.7524C305.832 98.92 305.766 88.1811 305.766 87.7149C305.766 86.6993 304.783 85.8669 304 85.2342Z" fill="#C5CFD6"/>
<path d="M372.266 101.933H382.194C381.644 101.8 381.028 101.151 380.695 100.285C380.362 99.4194 375.098 85.2342 375.098 85.2342H371.646C370.228 85.5359 368.286 84.9867 367.061 85.8424C367.057 85.8735 367.874 87.7349 367.868 87.7649C367.704 88.7639 364.75 99.4572 364.57 99.9855C364.32 100.718 363.037 101.534 362.521 101.967H367.868C367.335 101.367 366.902 100.785 367.002 100.119C367.102 99.4527 367.402 98.1208 367.402 98.1208H372.932C373.182 98.7868 373.369 99.385 373.465 99.9522C373.582 100.635 372.882 101.401 372.266 101.933ZM367.901 95.9897L369.767 89.896L372.232 95.9897H367.901ZM367.061 85.8424C367.335 85.6404 371.372 85.4373 371.646 85.2342H366.435C366.58 85.3674 366.819 85.5772 367.061 85.8424Z" fill="#C5CFD6"/>
<path d="M329.087 100.119C329.187 99.4527 329.487 98.1208 329.487 98.1208H335.018C335.268 98.7868 335.454 99.385 335.551 99.9522C335.667 100.635 334.968 101.401 334.351 101.933H343.093C343.275 101.811 343.456 101.689 343.637 101.568C343.298 101.269 342.986 100.819 342.781 100.285C342.447 99.4194 337.183 85.2342 337.183 85.2342H328.521C328.937 85.6171 330.137 86.6494 329.954 87.7649C329.79 88.7639 326.835 99.4572 326.655 99.9855C326.405 100.718 325.123 101.534 324.606 101.967H329.954C329.421 101.367 328.987 100.785 329.087 100.119ZM331.853 89.896L334.318 95.9897H329.987L331.853 89.896Z" fill="#C5CFD6"/>
<path d="M359.282 93.5234C357.652 94.6089 355.932 95.7422 354.119 96.9254C354.932 97.3194 355.58 97.8144 355.642 98.4538C355.757 99.6548 353.343 100.235 351.161 99.9855C350.724 99.9356 350.308 99.8719 349.899 99.7187C348.812 99.3114 348.386 98.9284 347.996 98.6569C346.684 99.1514 347.467 101.228 346.813 101.658V103.382C347.246 102.533 348.193 101.773 348.929 101.734C349.245 101.717 350.345 102.733 354.876 102.483C357.074 102.362 361.322 100.019 361.256 97.3216C361.216 95.7277 360.383 94.4846 359.282 93.5234ZM346.812 97.6879L346.813 101.658C347.214 101.391 347.608 98.9133 347.996 98.6569C347.386 98.2329 346.954 97.8366 346.812 97.6879ZM359.282 93.5234C358.314 92.8164 356.883 91.9528 356.474 91.7596C354.341 90.7607 352.109 90.5775 351.643 89.2289C351.314 88.2777 352.242 87.3975 354.508 87.4308C356.774 87.4641 358.872 88.8127 359.439 89.2955V85C359.272 85.1665 358.542 86.0045 357.873 85.8658C356.59 85.5994 354.408 85.252 351.909 85.2664C349.044 85.283 346.579 87.4963 346.495 90.2945C346.379 94.2071 349.511 95.2726 351.276 95.8887C351.458 95.9519 353.894 96.8532 354.119 96.9254C355.813 95.8243 356.395 95.8211 357.179 95.3693C357.706 95.0663 358.474 94.055 359.282 93.5234Z" fill="#C5CFD6"/>
<g clip-path="url(#clip2)">
<path d="M239.325 80.159C238.289 79.6496 233.029 80.2315 229.237 83.8692C223.263 89.8342 223.406 97.6934 223.406 97.6934C223.406 97.6934 223.208 98.5017 222.367 97.329C220.526 94.9818 221.49 89.5823 221.599 88.8301C221.751 87.7698 221.075 87.7389 220.794 88.0888C214.139 97.329 220.149 104.895 224.084 107.296C228.691 110.107 237.779 110.106 241.399 102.13C245.909 92.1996 240.625 80.7952 239.325 80.159Z" fill="#C5CFD6"/>
</g>
<g clip-path="url(#clip3)">
<path fill-rule="evenodd" clip-rule="evenodd" d="M444.026 87.5879C444.058 87.7786 444.121 88.0965 444.438 88.4303C444.574 88.574 444.736 88.6722 444.893 88.7367L445.14 89.7882C445.138 89.7902 445.136 89.7922 445.134 89.7942C445.011 89.9105 444.898 90.0167 444.786 90.0982C444.485 90.3525 444.438 90.6227 444.422 90.8929C444.422 91.0041 444.438 91.1154 444.501 91.2425C444.549 91.3697 444.691 91.5445 444.928 91.6081C445.161 91.6641 445.383 91.7037 445.597 91.7268L446.606 96.0123C446.311 96.2512 446.102 96.4939 445.942 96.71C445.625 97.1073 445.498 97.6316 445.498 98.1243C445.498 98.3945 445.546 98.6806 445.657 98.9189C445.664 98.9352 445.672 98.9515 445.681 98.9677C445.572 99.2704 445.53 99.593 445.53 99.9202C445.53 100.047 445.53 100.175 445.546 100.318C445.593 101.065 446.052 101.621 446.622 101.939C447.05 102.177 447.558 102.326 448.107 102.386L449.962 110.267C450.025 110.553 450.231 110.807 450.5 110.918C450.627 110.966 450.754 110.998 450.88 110.998C451.039 110.998 451.197 110.966 451.339 110.886C452.39 110.319 453.286 109.69 453.61 109.462L453.619 109.456C453.967 109.218 454.204 109.17 454.521 109.154C454.82 109.133 455.194 109.235 455.649 109.358L455.65 109.358C456.232 109.515 456.945 109.709 457.798 109.726C458.13 109.726 458.478 109.695 458.842 109.615C459.855 109.393 460.552 108.757 460.9 108.105C461.248 107.454 461.296 106.834 461.296 106.437C461.296 106.344 461.29 106.261 461.286 106.193V106.193V106.193V106.193V106.193V106.193C461.283 106.145 461.28 106.104 461.28 106.071C461.264 105.531 461.106 105.07 460.916 104.593C460.721 104.129 460.485 103.658 460.262 103.21L460.262 103.21L460.262 103.21L460.262 103.21C460.141 102.968 460.024 102.734 459.919 102.511C459.665 102.002 459.491 101.51 459.444 101.287C459.539 101.239 459.681 101.176 459.839 101.128C460.16 101.017 460.558 100.914 460.947 100.813L460.947 100.813L460.947 100.813C461.115 100.769 461.281 100.726 461.438 100.683C461.707 100.62 461.945 100.54 462.182 100.445C462.309 100.397 462.42 100.334 462.578 100.222C462.657 100.159 462.752 100.079 462.831 99.9521C462.926 99.8093 463.006 99.6025 463.006 99.3641C463.006 98.8469 462.92 98.0357 462.73 97.0537C463.148 96.9642 463.531 96.8316 463.86 96.6621C464.494 96.3284 464.984 95.8198 465 95.1364C464.984 94.453 464.494 93.9444 463.86 93.6107C463.249 93.2962 462.455 93.1087 461.584 93.0881C460.845 91.2114 459.789 89.3326 458.209 88.0798C457.785 87.7488 457.342 87.4627 456.882 87.2184C456.98 87.1519 457.075 87.074 457.164 86.984C457.956 86.1734 458.415 85.2993 458.415 84.3775C458.415 83.8212 458.241 83.3285 458.051 82.963C457.887 82.6471 457.711 82.4025 457.564 82.1983C457.54 82.1661 457.518 82.135 457.497 82.1048C457.196 81.6756 457.037 81.4373 456.927 81.2624C456.816 81.0876 456.737 80.9446 456.579 80.6267C456.573 80.6146 456.567 80.6049 456.562 80.5965L456.562 80.5965C456.553 80.5829 456.547 80.573 456.547 80.5631C456.99 80.0704 457.054 79.5936 457.07 79.1645C457.054 78.6242 456.927 78.0202 456.326 77.4957L456.278 77.4481L456.215 77.4163C455.882 77.1938 455.471 77.0031 454.98 77.0031C454.473 77.0031 453.999 77.2414 453.713 77.4957C453.69 77.5196 453.67 77.5434 453.65 77.5673C453.63 77.5911 453.611 77.6149 453.587 77.6388C453.397 77.4957 453.223 77.4322 453.08 77.3845C452.859 77.3209 452.669 77.2891 452.463 77.2891C452.147 77.2891 451.83 77.3368 451.497 77.4957C451.181 77.6229 450.817 77.8613 450.548 78.2586C450.421 77.9566 450.215 77.7024 450.025 77.5911L449.978 77.5593L449.93 77.5275C449.455 77.2414 448.917 77.1302 448.426 77.1302C447.683 77.1302 446.986 77.3686 446.4 77.7659C445.957 78.0679 445.561 78.4811 445.308 79.0056C445.284 78.9934 445.262 78.9788 445.24 78.9646C445.206 78.9419 445.173 78.92 445.134 78.9102C444.856 78.7862 444.638 78.768 444.451 78.7525L444.438 78.7513C443.931 78.7672 443.583 78.9102 443.187 79.1486C442.823 79.387 442.411 79.7685 442.253 80.4201L442.237 80.4996L442.221 80.579C442.206 80.7311 442.178 80.9039 442.147 81.0953C442.085 81.4838 442.01 81.9485 442 82.4703C442 82.82 442.031 83.2173 442.19 83.6146C442.316 83.9961 442.57 84.3934 442.918 84.6954C443.242 85.0395 443.555 85.3237 443.848 85.5895C444.056 85.7779 444.254 85.957 444.438 86.1416C444.406 86.1893 444.374 86.2529 444.343 86.3324C444.322 86.3738 444.301 86.413 444.279 86.4525C444.186 86.6251 444.09 86.8026 444.026 87.1906C444.01 87.3177 444.01 87.5561 444.026 87.5879ZM446.032 90.6181C446.348 90.6081 446.833 90.5065 446.844 90.4955C446.908 90.4871 446.964 90.4782 447.013 90.4705L447.013 90.4705C447.242 90.4343 447.31 90.4235 447.271 90.6068C447.256 90.683 447.244 90.7739 447.233 90.8636L447.233 90.8636C447.221 90.9609 447.208 91.0568 447.192 91.1313C447.081 91.608 446.986 91.9418 446.86 92.355C446.844 92.4027 446.907 92.4186 446.955 92.3391C447.166 92.1034 447.316 91.9114 447.483 91.6982L447.483 91.6982L447.483 91.6981C447.541 91.6239 447.601 91.5471 447.667 91.465L447.718 91.3984C447.976 91.0606 448.273 90.6703 448.585 90.9087C448.795 91.0699 448.952 91.1851 449.092 91.2884L449.092 91.2884C449.312 91.4498 449.492 91.582 449.772 91.8147C449.867 91.91 450.405 92.2279 450.469 92.1802C450.606 92.0732 449.703 91.0547 449.296 90.5952L449.25 90.5432C448.981 90.2412 449.028 90.0187 449.281 89.9075C449.371 89.8704 449.535 89.8156 449.712 89.7562C450.068 89.6373 450.479 89.4995 450.469 89.4466C450.457 89.3669 450.08 89.3687 449.751 89.3704H449.751C449.621 89.371 449.498 89.3716 449.408 89.3671C449.355 89.3623 449.272 89.3618 449.178 89.3614C448.963 89.3603 448.694 89.3589 448.616 89.3035L448.606 89.2966C448.517 89.2372 448.455 89.1959 448.363 88.8744L447.983 87.3169C447.936 87.1738 447.873 87.0944 447.809 87.3804C447.783 87.5273 447.748 87.8291 447.716 88.1021C447.69 88.3314 447.665 88.5403 447.651 88.6201C447.619 88.779 447.366 89.2876 447.366 89.2876C447.366 89.2876 446.733 89.7644 446.575 89.8916C446.517 89.94 446.416 90.0105 446.305 90.0884L446.305 90.0884C446.199 90.1634 446.082 90.2451 445.985 90.3203L446.032 90.6181ZM446.543 97.1709C446.621 97.0746 446.706 96.9715 446.807 96.8655L446.974 97.575C446.69 97.7367 446.453 97.9101 446.258 98.1002C446.263 97.7709 446.373 97.3725 446.543 97.1709ZM446.701 98.7602C446.812 98.6306 446.963 98.5011 447.161 98.3715L447.912 101.558C447.569 101.498 447.261 101.396 447.018 101.256C446.591 101.017 446.369 100.699 446.321 100.254C446.306 100.127 446.306 100.016 446.306 99.9204C446.321 99.4277 446.416 99.0941 446.701 98.7602ZM450.865 95.5355C449.605 95.6023 448.734 95.7877 448.112 96.0247L451.26 109.345C451.999 108.912 452.603 108.494 452.869 108.311L452.891 108.296C453.46 107.898 454.046 107.739 454.6 107.739C455.19 107.747 455.733 107.889 456.264 108.027C456.802 108.167 457.327 108.304 457.877 108.296C458.114 108.296 458.352 108.264 458.605 108.216C459.254 108.057 459.539 107.755 459.729 107.422C459.919 107.072 459.95 106.675 459.95 106.42C459.95 106.409 459.95 106.397 459.95 106.386C459.935 106.388 459.919 106.389 459.903 106.389L459.824 106.389C458.083 106.15 456.879 105.642 455.946 104.863C454.996 104.084 454.315 103.083 453.508 101.891C453.365 101.684 453.413 101.398 453.619 101.255C453.824 101.112 454.109 101.16 454.252 101.366C455.075 102.558 455.724 103.48 456.531 104.148C457.312 104.793 458.27 105.231 459.807 105.46C459.649 104.992 459.363 104.388 459.064 103.798C459.008 103.686 458.952 103.574 458.895 103.463C458.489 102.66 458.097 101.886 458.083 101.16C458.083 100.858 458.178 100.508 458.447 100.27C458.887 99.904 459.516 99.7281 460.167 99.5461L460.251 99.5225L460.366 99.4938C460.898 99.3606 461.424 99.229 461.66 99.1252C461.636 98.7005 461.548 98.0111 461.383 97.1867C460.48 97.1817 459.64 97.0072 459.001 96.6939C458.397 96.3908 457.908 95.8997 457.864 95.2345L457.861 95.2315H457.766C457.628 95.2315 457.428 95.2617 457.272 95.2927C457.091 96.7182 455.666 97.727 454.046 97.727C452.508 97.7129 451.167 96.818 450.865 95.5355ZM447.935 95.2787C448.641 95.019 449.572 94.826 450.815 94.773C450.972 93.3374 452.409 92.3074 454.046 92.3074C455.595 92.3074 456.965 93.2292 457.241 94.5442C457.405 94.5116 457.596 94.4847 457.782 94.4847C457.857 94.4847 457.933 94.4883 458.008 94.5007C458.201 94.1059 458.565 93.7923 459.001 93.5789C459.343 93.403 459.738 93.2756 460.171 93.1945C459.5 91.5992 458.579 90.0874 457.402 89.1764C455.933 88.0325 454.137 87.5016 452.244 87.4485C452.166 87.4565 452.086 87.4608 452.004 87.4608C451.916 87.4608 451.827 87.4557 451.737 87.4455C450.779 87.4607 449.808 87.5912 448.853 87.8199C448.881 87.9167 448.907 88.014 448.933 88.1116C448.943 88.1501 448.951 88.1925 448.96 88.2363L448.96 88.2363L448.96 88.2363L448.96 88.2363L448.96 88.2363L448.96 88.2364L448.96 88.2364C448.993 88.4095 449.032 88.6044 449.171 88.6678C449.473 88.808 449.707 88.828 450.011 88.8539C450.12 88.8633 450.239 88.8735 450.374 88.8903C450.833 88.938 451.086 88.9698 451.45 89.0493C451.497 89.0652 451.561 89.1923 451.577 89.2877C451.608 89.4466 451.529 89.6373 451.434 89.6691C451.312 89.7215 451.187 89.7727 451.061 89.8241L451.061 89.8241L451.061 89.8241L451.061 89.8241L451.061 89.8241L451.061 89.8241L451.061 89.8242L451.061 89.8243L451.061 89.8243L451.061 89.8243C450.729 89.9597 450.396 90.0959 450.12 90.2572C450.029 90.3186 450.055 90.3503 450.128 90.4383L450.136 90.4479C450.247 90.6047 450.479 90.9061 450.711 91.2061C450.879 91.4228 451.046 91.6388 451.165 91.7988C451.165 91.7988 451.783 92.6093 451.703 92.8001C451.694 92.8179 451.686 92.8358 451.677 92.8535C451.609 92.9928 451.548 93.1179 451.45 93.1179C451.092 93.1732 450.818 92.9879 450.513 92.7819C450.467 92.7511 450.421 92.7198 450.374 92.6888C450.263 92.6166 450.147 92.5395 450.03 92.4614C449.475 92.093 448.889 91.7034 448.68 91.7034C448.525 91.6914 448.307 91.9778 448.1 92.2489C448.033 92.3372 447.967 92.4239 447.904 92.4981C447.79 92.6355 447.683 92.7754 447.58 92.9105L447.58 92.9106L447.58 92.9106C447.527 92.9798 447.475 93.0478 447.423 93.1134L447.935 95.2787ZM458.59 95.0958C458.59 95.104 458.59 95.1121 458.589 95.1202L458.589 95.1364C458.589 95.4384 458.811 95.7403 459.317 96.0105C459.824 96.2648 460.568 96.4237 461.407 96.4237C462.246 96.4237 462.99 96.2489 463.496 95.9787C464.019 95.7085 464.24 95.3748 464.224 95.1364C464.24 94.898 464.019 94.5642 463.496 94.2941C462.99 94.0239 462.23 93.8491 461.407 93.8491C460.568 93.8491 459.824 94.008 459.317 94.2623C458.817 94.5057 458.607 94.7929 458.59 95.0958ZM447.16 88.9698C446.962 89.1402 446.759 89.2824 446.55 89.4165L446.388 88.7306C446.798 88.646 447.166 88.4597 447.452 88.23L447.491 88.2165C447.451 88.3479 447.413 88.4773 447.382 88.6043L447.16 88.9698ZM454.046 96.9482C454.759 96.9482 455.392 96.7257 455.835 96.3601C456.278 95.9946 456.531 95.5178 456.531 95.0092C456.531 94.5006 456.278 94.0238 455.835 93.6583C455.392 93.2928 454.759 93.0544 454.046 93.0544C453.334 93.0544 452.701 93.2928 452.257 93.6583C451.814 94.0238 451.561 94.5006 451.561 95.0092C451.561 95.5178 451.814 95.9946 452.257 96.3601C452.701 96.7098 453.334 96.9482 454.046 96.9482ZM455.629 81.1344C455.946 81.7861 456.025 81.9132 456.626 82.7714C456.652 82.8092 456.679 82.8473 456.705 82.8857C457.005 83.3165 457.336 83.793 457.307 84.3767C457.307 84.9011 457.054 85.4892 456.389 86.1726C456.262 86.3156 456.057 86.3792 455.882 86.3792C455.566 86.3792 455.202 86.1567 455.202 85.7594C455.203 85.6673 455.219 85.5761 455.249 85.4892C455.376 85.1554 455.471 84.8534 455.471 84.5674C455.471 84.4561 455.455 84.329 455.423 84.2018C455.291 83.665 454.943 83.1648 454.592 82.6612L454.592 82.6611L454.592 82.6611C454.144 82.0166 453.691 81.3663 453.682 80.6259C453.682 80.451 453.698 80.2762 453.761 80.1014C453.783 80.0345 453.806 79.9665 453.828 79.898L453.828 79.898C453.949 79.5264 454.076 79.1385 454.236 78.8299C454.41 78.4803 454.663 78.1624 455.059 78.1624C455.249 78.1624 455.439 78.2101 455.661 78.3849C455.898 78.5756 455.993 78.8776 455.993 79.1637C455.993 79.4021 455.93 79.6246 455.772 79.7835C455.487 80.0537 455.408 80.2762 455.408 80.4828C455.408 80.7121 455.51 80.9071 455.59 81.058C455.604 81.0849 455.617 81.1104 455.629 81.1344ZM452.748 80.1385C452.931 79.7303 453.12 79.31 453.128 78.8776C453.112 78.4803 452.811 78.3372 452.542 78.3531C452.21 78.369 451.893 78.4644 451.608 78.9253C451.56 79.0108 451.511 79.0954 451.463 79.1794L451.463 79.1797C451.054 79.8912 450.674 80.5525 450.674 81.2775C450.674 81.5318 450.738 81.7861 450.896 82.0404C451.049 82.3955 451.234 82.7301 451.423 83.0713C451.606 83.4019 451.793 83.7388 451.957 84.1065C452.004 84.2336 452.036 84.3608 452.036 84.472C452.036 84.6945 451.925 84.9011 451.751 85.1077C451.735 85.1348 451.684 85.1508 451.616 85.172C451.485 85.2132 451.29 85.2741 451.165 85.4733C451.134 85.5369 451.134 85.5686 451.134 85.6322C451.149 85.9501 451.371 86.1249 451.64 86.2362C451.798 86.2997 451.941 86.3156 452.083 86.3156C452.621 86.3156 453.096 85.966 453.334 85.5845C453.508 85.2826 453.587 84.9806 453.587 84.6786C453.578 84.047 453.27 83.4578 452.97 82.8853C452.718 82.4062 452.473 81.9389 452.416 81.4682C452.4 81.4205 452.4 81.3569 452.4 81.3093C452.392 80.9308 452.567 80.5405 452.748 80.1385ZM448.705 81.5313C448.307 81.0115 447.941 80.533 447.888 79.9425C447.859 79.7959 447.911 79.771 447.969 79.743L447.983 79.7358C448.056 79.6905 448.2 79.6503 448.358 79.6063C448.477 79.5734 448.603 79.5383 448.712 79.4974C448.87 79.4498 449.076 79.3703 449.25 79.259C449.424 79.1478 449.598 79.0365 449.614 78.7981C449.614 78.7028 449.551 78.5915 449.456 78.528C449.155 78.3531 448.838 78.2737 448.522 78.2737C447.556 78.2737 446.527 78.9094 446.29 79.8471C446.258 79.9901 446.242 80.1332 446.242 80.2762C446.251 81.0626 446.764 81.7175 447.272 82.368C447.648 82.8481 448.021 83.3258 448.189 83.8522C448.253 84.0111 448.269 84.1541 448.269 84.2972C448.269 84.5674 448.189 84.8376 448.094 85.1554C448.078 85.219 448.063 85.2826 448.063 85.3461C448.047 85.521 448.142 85.664 448.268 85.7435C448.395 85.8229 448.537 85.8547 448.696 85.8547C448.981 85.8547 449.297 85.7594 449.487 85.5527C449.804 85.1395 449.93 84.6945 449.93 84.2654C449.93 83.582 449.63 82.9145 449.297 82.3741C449.116 82.0693 448.906 81.795 448.705 81.5313ZM443.219 82.4854C443.266 81.8337 443.345 81.198 443.44 80.7053C443.472 80.4987 443.599 79.7041 444.311 79.6723C444.913 79.6564 444.992 80.3239 444.944 80.8166C444.913 81.2298 444.881 81.6589 444.881 82.0562C444.881 82.3582 444.928 82.6284 445.039 82.8668C445.244 83.2968 445.631 83.6632 446.029 84.039C446.644 84.6215 447.284 85.2264 447.303 86.1249C447.303 86.2362 447.303 86.3633 447.271 86.4904C447.144 87.0467 446.622 87.5712 445.973 87.6983C445.783 87.7301 445.562 87.746 445.435 87.7142C445.324 87.6983 445.166 87.5712 445.198 87.3805C445.211 87.1407 445.424 86.8227 445.558 86.6231L445.558 86.6231C445.584 86.5846 445.607 86.5505 445.625 86.5222C445.688 86.3792 445.72 86.2362 445.72 86.109C445.72 85.9024 445.657 85.7276 445.482 85.521C445.193 85.1977 444.887 84.922 444.586 84.6509L444.586 84.6509C444.31 84.4023 444.039 84.1577 443.789 83.884C443.345 83.5184 443.187 83.0098 443.219 82.4854Z" fill="#C5CFD6"/>
</g>
<path d="M524 93.5121H530.772V100.284H524V93.5121Z" fill="#C5CFD6"/>
<path d="M539.53 104.101C539.53 106.16 539.834 107.495 540.436 108.111C540.95 108.635 541.821 108.957 543.043 109.08C543.406 109.111 544.024 109.125 544.898 109.125V110.927H529.222V109.125C530.48 109.125 531.412 109.063 532.011 108.944C533.225 108.688 533.992 107.984 534.307 106.827C534.468 106.226 534.554 105.318 534.554 104.102V80.5323C531.891 80.6084 529.812 81.4867 528.309 83.1684C526.883 84.776 526.013 87.2412 525.699 90.5608L524 90.2714L524.317 79H549.805L550.122 90.2714L548.426 90.5608C548.11 87.2412 547.235 84.776 545.802 83.1684C544.292 81.4863 542.203 80.6084 539.531 80.5323V104.101H539.53Z" fill="#C5CFD6"/>
<path d="M543.349 93.5121H550.122V100.284H543.349V93.5121Z" fill="#C5CFD6"/>
<defs>
<clipPath id="clip0">
<rect width="54" height="28" fill="white" transform="translate(196 8)"/>
</clipPath>
<clipPath id="clip1">
<rect width="37" height="38" fill="white" transform="translate(309 3)"/>
</clipPath>
<clipPath id="clip2">
<rect width="29" height="29" fill="white" transform="translate(216 80)"/>
</clipPath>
<clipPath id="clip3">
<rect width="23" height="34" fill="white" transform="translate(442 77)"/>
</clipPath>
</defs>
</svg>
