<svg width="67" height="145" viewBox="0 0 67 145" fill="none" xmlns="http://www.w3.org/2000/svg">
<path d="M40.2999 12.6L49.8999 0L52.3999 22.4L64.9999 29.1C64.9999 29.1 67.9999 46.7 50.4999 51.8L53.4999 50.4L62.9999 140.5C63.1999 142.4 61.6999 144.1 59.7999 144.1L3.49988 144.5C1.49988 144.5 -0.100125 142.7 0.199875 140.7L20.5999 0.7L29.8999 13.1L40.2999 12.6Z" fill="#FABF44"/>
<path d="M55.4998 37C52.0998 37 49.2998 34.2 49.2998 30.8H61.6998C61.6998 34.2 58.8998 37 55.4998 37Z" fill="#211819"/>
<path d="M40.3001 143.7L40.4001 142.5L40.1001 141.2V139.9L40.2001 138.7L40.7001 137.4L40.9001 136.1L40.4001 134.9L40.8001 133.6L40.3001 132.3V131.1L40.9001 129.8L41.1001 128.5L41.0001 127.3L41.2001 126L41.1001 124.8V123.5V122.2L41.0001 120.9L41.3001 119.7L41.1001 118.4L41.2001 117.1L41.4001 115.9L41.8001 114.6L41.5001 113.3L41.9001 112.1L41.6001 110.8L42.1001 109.6V108.3L42.6001 107.1L42.1001 105.7L42.9001 104.6L43.4001 103.4L43.9001 102.9L45.0001 103.3L45.8001 104.3L46.5001 105.4L46.4001 106.8L46.6001 108.1L47.1001 109.3L47.6001 110.5L48.0001 111.8L48.1001 113.1L48.2001 114.4L48.1001 115.7L48.7001 116.9L49.1001 118.2L48.8001 119.5L48.9001 120.8L49.0001 122.1L49.1001 123.4L49.6001 124.7L49.8001 126L50.0001 127.3L49.8001 128.6L50.0001 129.9L49.7001 131.2L49.6001 132.5L49.7001 133.8L49.9001 135.1L49.8001 136.4L50.3001 137.7L50.1001 139L50.6001 140.3L50.0001 141.6L50.5001 142.9L50.4001 144.2" stroke="#211819" stroke-width="2" stroke-miterlimit="10" stroke-linecap="round" stroke-linejoin="round"/>
<path d="M10.3999 143.7L10.8999 142.5L11.2999 141.3L11.4999 140L11.2999 138.7L11.8999 137.5L11.7999 136.2L12.3999 135.1L12.2999 133.8L12.8999 132.6L12.6999 131.3L12.9999 130L13.6999 128.9L13.4999 127.5L14.1999 126.4L14.2999 125.1L14.5999 123.9L14.7999 122.6L14.9999 121.4L15.4999 120.2L15.7999 118.9L16.2999 117.8L16.9999 116.7L17.3999 115.4L18.3999 114.7L19.5999 114.4L20.3999 115.5L20.6999 116.8L21.1999 118L21.6999 119.2L22.2999 120.4L22.4999 121.7L22.9999 122.9V124.3V125.6L23.5999 126.8L23.7999 128.1V129.4L23.6999 130.8L23.8999 132.1L24.0999 133.4L24.1999 134.7L24.4999 136L24.2999 137.3L24.1999 138.6L24.2999 140V141.3L24.4999 142.6V143.9" stroke="#211819" stroke-width="2" stroke-miterlimit="10" stroke-linecap="round" stroke-linejoin="round"/>
<path d="M64.8998 29.1V30.4L65.0998 31.6V32.9L64.7998 34.2V35.4L64.4998 36.7L64.2998 37.9L63.9998 39.2L63.3998 40.3L62.7998 41.4L62.4998 42.7L61.8998 43.8L61.1998 44.9L60.4998 45.9L59.5998 46.8L58.4998 47.5L57.4998 48.3L56.4998 49L55.3998 49.8L54.2998 50.3L52.9998 50.5L51.7998 51L50.5998 51.3L49.2998 51.6L48.0998 51.5L46.7998 51.6L45.4998 51.4L44.2998 51.5" stroke="#211819" stroke-width="2" stroke-miterlimit="10" stroke-linecap="round" stroke-linejoin="round"/>
</svg>
