<svg width="805" height="742" viewBox="0 0 805 742" fill="none" xmlns="http://www.w3.org/2000/svg">
<g clip-path="url(#clip0)">
<path d="M410.6 738.5L411.7 736.2L411 733.1L410.6 730.1V727.1L411 724L411.3 721L411.8 718L411.4 715L410.7 711.9L410.4 708.9L410.8 705.9L412.1 702.9L410.5 699.8L411.6 696.8L411.9 693.8L412.1 690.8L412 687.8L412.1 684.8L410.5 681.7L412.1 678.7L411.1 675.7L412 672.7L411.5 669.6L412 666.6L411.5 663.6L412.1 660.6L411.3 657.6V654.5L410.7 651.5L411.7 648.5L411.2 645.5L411.5 642.5L410.9 639.4L410.7 636.4L411.7 633.4L411.4 630.4L412.2 627.4L411.6 624.3V621.3L411.2 618.4M278.9 738.9L277.9 736.1L279 733.1L278.5 730.1L279.4 727.1L278.8 724.1L278.3 721.1L278.5 718L279 715L277.6 712L279.5 709L278.1 706L277.8 702.9L279.2 699.9L279.1 696.9L278.7 693.9L279 690.9L277.6 687.8L278.4 684.8L279.3 681.8L279.2 678.8L278.6 675.7L279.5 672.7L278.6 669.7L279.3 666.7L278 663.7L278.8 660.6V657.6L278.4 654.6L277.8 651.6L279.2 648.6L278 645.5L278.4 642.5L278.7 639.5L279.3 636.5L277.8 633.4V630.4L278.8 627.4L277.8 624.4L278.4 621.3L278.3 618" stroke="#1A1C28" opacity="0.2" stroke-width="2" stroke-miterlimit="10"/>
<path d="M663.2 617.9H660.9L657.9 618.5L654.9 619.1L651.9 619.3H648.9L645.9 617.7L642.9 618.3L639.9 618.4L637 618.3L634 617.7L631 619.1L628 617.7L625 618.5L622 619.5L619 619.3L616 618.8L613.1 618.5H610.1L607.1 618.8L604.1 618L601.1 619.2L598.1 618.2L595.1 617.9L592.1 618.9L589.1 618.4H586.1L583.1 618L580.1 618.6L577.1 619.5L574.2 617.6L571.2 617.8L568.2 619L565.2 619.1L562.2 619.4L559.2 618.4L556.2 619L553.2 618.1L550.2 619.3L547.2 617.7L544.2 619.5L541.3 617.9L538.3 618.7L535.3 618.6L532.3 618.1L529.3 619.3L526.3 618.1L523.3 618.7L520.3 617.7L517.3 618.4L514.3 618.8L511.3 618.6L508.4 618.1L505.4 619.5L502.4 617.7L499.4 619.1L496.4 619.3L493.4 618L490.4 618.1L487.4 618.5L484.4 618.1L481.4 619.6L478.4 618.8L475.4 617.8L472.4 618L469.4 618.6L466.5 617.7L463.5 618.5L460.5 617.9L457.5 619.2L454.5 618.3H451.5L448.5 618.8L445.5 619.3L442.5 618L439.5 619.2L436.5 618.7L433.5 618.4L430.5 617.9L427.6 619.4H424.6L421.6 618.4L418.6 619.4L415.6 618.7L412.6 619L409.6 618L406.6 617.6L403.6 618.9H400.6L397.6 619.5H394.6L391.6 618.8L388.6 618.3L385.6 617.6L382.6 618.4L379.7 618.2L376.7 618.4L373.7 619.5L370.7 618L367.7 617.7L364.7 618.4L361.7 618.5L358.7 619.4L355.7 618.9L352.7 619.3L349.7 617.8L346.7 619L343.7 619.1L340.7 619.2L337.7 618.9L334.7 617.6L331.7 618.9L328.8 617.7L325.8 617.6L322.8 617.7L319.8 619L316.8 618.8L313.8 618L310.8 618.9L307.8 619L304.8 617.9L301.8 619.3L298.8 618L295.8 617.9L292.8 619.4L289.8 619.1L286.8 618.9L283.8 618.3L280.8 618.4L277.8 618.8H274.8L271.8 619.4L268.9 618.6L265.9 618.9L262.9 617.9L259.9 618.1L256.9 618.7L253.9 618.4L250.9 618.9L247.9 617.9L244.9 618.5H241.9L238.9 619.3L235.9 618.7L232.9 619.2L229.9 618.7L226.9 619.2L223.9 618.4L220.9 619.3L217.9 617.7L214.9 619.4L211.9 619.2L208.9 619.3L206 619.1L203 618.8L200 617.7L197 619.3L194 618L191 617.6L188 617.9L185 618.7L182 619L179 618.5L176 618.2L173 617.8H170L167 618.2L164 618.9L161 619L158 617.9L155 619L152.1 618.2L149.1 619.3L146.1 619.5L143.1 617.7L140.1 618.5L137.1 618.7L134.1 618.2L131.1 619.3L128.1 619.1L125.1 617.6L122.1 618L119.1 617.9L116.1 619.5L113.1 618.3L110.1 618.6L107.1 618.9L104.1 619.5L101.1 619.1L98.0999 619L95.0999 618.8L92.0999 618.6L89.0999 618.3L86.0999 618.4L83.0999 619.4L80.0999 617.8L77.0999 618.9L74.0999 619.5L71.0999 617.6L68.0999 618.4L65.0999 618.6L62.0999 618.8L59.0999 618.1L56.0999 617.7L53.0999 619.5L50.0999 619.1L47.0999 618.7L44.0999 618.3L41.0999 619.5L38.0999 618.2L35.0999 619.4L32.0999 618.5L29.0999 618.2L26.2 618.4L26.4 615.6V612.6L26.2 609.6L25.5999 606.6L25.0999 603.6L26.9 600.6L27.0999 597.6L27 594.6L26.8 591.6L26 588.6L25.8 585.6L25.5999 582.6L26.5999 579.6L25.3 576.6L26.5 573.6L25.9 570.6L26.3 567.6L26.7 564.6L26.0999 561.6L25.5 558.6L25.0999 555.6L27 552.6L26.2 549.6L25.7 546.6V543.6L26.4 540.6L25.2 537.6L26.2 534.6L26 531.6L25.4 528.6L25.5 525.6L25.7 522.6L25.5 519.6L27 516.6L26.7 513.6L25.2 510.6L27.0999 507.7L26.5999 504.7L25.8 501.7L26.5999 498.7L25.8 495.7L26.5 492.7L26.3 489.7L26.2 486.7L26.3 483.7L25.8 480.7L25.4 477.7L25.5999 474.7L25.2 471.7L25.5 468.7L26.7 465.7L25.8 462.7L26.5999 459.7L26.4 456.7L25.7 453.7L27 450.7L26.5 447.7L26.0999 444.7L26 441.7L26.2 438.7L26.4 435.7L25.5999 432.7L26.8 429.7L25.9 426.7L26.4 423.7L26.0999 420.7L25.2 417.7L26.3 414.7L26.5999 411.7L25.4 408.7L26.3 405.7L25.7 402.7V399.7L25.0999 396.7L25.5 393.7L26.7 390.7L25.9 387.7L26.9 384.7L25.2 381.7L25.9 378.7L25.5 375.7L25.2 372.7L25.8 369.7L25.3 366.7L25.9 363.7L26 360.7L25.3 357.7L26.4 354.7L25.8 351.7L26.9 348.7L26.8 345.7L25.2 342.7V339.7L25.8 336.7L25.4 333.7L25.5 330.7L26.5999 327.7L25.0999 324.7L26.8 321.7L26.4 318.7L26.9 315.7L25.3 312.7L25.5 309.7L26.8 306.7L26.4 303.7L25.3 300.7L26.5999 297.7L26 294.7L25.4 291.7L26.0999 288.7L25.4 285.7L26 282.7L26.0999 279.7L25.7 276.7L25.4 273.7L26.9 270.7L26.3 267.7L26.9 264.7L25.3 261.7L26 258.7L26.0999 255.7L26.2 252.7L26.5999 249.7L26.5 246.7L25.3 243.7L25.9 240.7L27 237.6L26.0999 234.6L26.4 232L29.0999 232.5L32.0999 231.7L35.0999 231.1L38 230.7L41 230.8L44 232.5L47 231.2L50 232.6L53 231.8L56 231.7L59 230.9L62 232.4L64.9 231.1L67.9 231.5L70.9 231.8L73.9 230.7L76.9 232.5L79.9 232.4L82.9 231.1L85.9 232.6L88.9 231L91.8 232.2L94.8 230.8L97.8 232.5H100.8L103.8 231.5L106.8 230.9L109.8 231.3L112.8 232L115.8 231.5L118.8 232.3L121.8 231.4L124.8 232.1L127.8 230.8L130.8 231.6L133.7 232.1L136.7 232.2L139.7 232.4L142.7 231L145.7 231.1L148.7 230.6L151.7 232.2L154.7 232.1L157.7 231.6L160.7 232L163.6 230.9L166.6 231.9L169.6 231.2L172.6 232.4L175.6 232.5L178.6 232.4L181.6 230.8L184.6 232.3L187.6 232.2L190.6 232.6L193.6 232.4L196.6 231.9L199.6 232.4L202.6 231.3L205.5 231.2L208.5 232.6L211.5 232.5L214.5 231.4L217.5 232.5L220.5 232.1L223.5 231.4L226.5 232L229.5 231.9L232.5 231.7L235.5 231.5L238.5 232.2L241.4 230.7L244.4 232.1L247.4 231.3L250.4 231L253.4 230.8L256.4 232.2H259.4L262.4 230.8L265.4 231.3L268.4 232.4L271.4 231.8L274.4 232H277.4L280.4 232.1L283.4 231H286.4L289.3 231.1L292.3 232.5L295.3 232.4L298.3 231.1L301.3 231.6L304.3 231.5L307.3 231L310.3 230.7L313.3 231.3L316.3 230.8L319.3 230.7L322.3 231.2L325.3 231.6L328.3 232.4L331.3 230.9L334.3 232.5L337.2 231.5L340.2 230.9L343.2 232.4L346.2 231.8L349.2 232L352.2 232.4L355.2 231.2L358.2 231L361.2 232.3L364.2 231.9L367.2 232.3L370.2 232L373.2 231.4L376.2 231.1L379.2 231L382.2 231.4L385.2 231.2L388.2 231L391.1 230.9L394.1 230.8L397.1 231.6L400.1 231.8L403.1 230.9L406.1 231L409.1 232.5L412.1 230.7L415.1 231.7L418.1 232.4L421.1 232.6L424.1 232.4L427.1 232.6L430.1 231L433.1 230.9L436.1 231.6L439.1 230.6L442.1 231L445.1 231.5L448.1 232.2L451.1 232L454.1 232.1L457 232.4L460 232L463 231.6L466 230.8L469 230.7L472 230.8L475 231.3L478 232.5L481 230.7L484 231.8L487 232.3L490 231.1L493 232.6L496 231.5L499 230.7L502 230.9L505 231.7H507.9L510.9 232.6L513.9 231.2L516.9 232.3L519.9 230.7L522.9 230.9L525.9 232.1L528.9 231L531.9 232.3L534.9 232.4L537.9 231.5L540.9 231.6L543.9 231.8L546.9 231.5L549.9 230.9H552.9L555.9 231.8L558.9 230.9H561.9L564.9 231.2L567.9 231.5L570.9 231.7L573.9 232.4L576.9 232.3L579.9 230.9L582.9 231.2L585.9 231L588.9 231.7L591.8 231.2L594.8 231.5L597.8 231.7L600.8 232L603.8 231.8L606.8 231.4H609.8L612.8 232.4L615.8 230.8H618.8L621.8 231.5L624.8 231.4L627.8 231.3L630.8 231.8L633.8 232.5H636.8H639.8L642.8 230.9L645.8 231.9L648.8 232.3L651.8 232L654.8 231L657.8 231.6L660.8 232.6L663.5 232L663.1 234.6V237.6L663.6 240.6L662.9 243.6L664.1 246.6L663.6 249.6L663.2 252.6L662.9 255.6L664.6 258.6L663 261.6L664.3 264.6L664.8 267.6L663.9 270.6L664.3 273.6L663.1 276.6L664.1 279.6L663.7 282.6L663.4 285.6L663.1 288.6V291.6V294.6L664 297.6L662.9 300.6L663.4 303.6L663.3 306.6L663 309.6L663.5 312.5L664.1 315.5L663.5 318.5V321.5L663 324.5L664.7 327.5L663.4 330.5L664.4 333.5L663 336.5V339.5L663.3 342.5L664.2 345.5L663.5 348.5V351.5L664.4 354.5L663.9 357.5L663.2 360.5L663.5 363.5L663.2 366.5L664.5 369.5L663.4 372.5L663.8 375.5L663.5 378.5L663.1 381.5L664 384.5L664.1 387.5L663.9 390.5L663.3 393.5L663 396.5L664.1 399.5L663.7 402.5L663.8 405.5L663.1 408.5L663.3 411.5L663.6 414.5L663.8 417.5L664.8 420.5L663.4 423.5L663.3 426.5L664.8 429.5L663.4 432.5L663.2 435.5L664.7 438.5L664.3 441.5L663.5 444.5L663 447.5L664.7 450.5L663.1 453.5L664.1 456.5L664.6 459.5L663.4 462.5L663.9 465.5L664.4 468.5L663.7 471.5L663.6 474.5V477.5L664.2 480.5L663.7 483.5L663.5 486.5L664.7 489.5L663 492.4L663.5 495.4L664.7 498.4L663.8 501.5L664.3 504.5L664.6 507.4L663.5 510.4L664.7 513.4L664.5 516.5L663.9 519.5L664.8 522.5L663.3 525.5L663.6 528.5L664.1 531.5L663.9 534.5L663.6 537.5L663.4 540.5L663.3 543.5L664.1 546.5L663.7 549.5L664 552.5L662.9 555.5L664.3 558.5L663.4 561.5L664.1 564.5L664.9 567.5L664.6 570.5L664 573.5V576.5L664.6 579.5L663.5 582.5L663.8 585.5L664.2 588.5L663.1 591.5L664.7 594.5L663.5 597.5L664.4 600.5L664.2 603.5L664.1 606.5L664 609.5L664.4 612.5L663.9 615.5L663.2 617.9Z" stroke="#1A1C28" stroke-width="2" stroke-miterlimit="10"/>
<path d="M661.6 738.2L658.6 738.5L655.7 739.1L652.7 739.7L649.7 739.9H646.7L643.7 738.3L640.7 738.9L637.7 739L634.7 738.9L631.7 738.3L628.7 739.7L625.7 738.3L622.7 739.1L619.7 740.1L616.7 739.9L613.7 739.4L610.7 739.1H607.7L604.7 739.4L601.7 738.6L598.7 739.8L595.7 738.8L592.7 738.5L589.7 739.5L586.7 739H583.7L580.7 738.6L577.7 739.2L574.7 740.1L571.7 738.2L568.7 738.4L565.7 739.6L562.7 739.7L559.7 740L556.7 739L553.7 739.6L550.7 738.7L547.7 739.9L544.7 738.3L541.7 740.1L538.7 738.6L535.7 739.3L532.7 739.2L529.7 738.7L526.7 739.9L523.7 738.7L520.7 739.3L517.8 738.4L514.8 739L511.8 739.5L508.8 739.2L505.8 738.7L502.8 740.1L499.7 738.3L496.7 739.7L493.7 739.9L490.7 738.6L487.7 738.7L484.7 739.1L481.7 738.7L478.7 740.2L475.7 739.4L472.7 738.4L469.7 738.6L466.7 739.2L463.7 738.3L460.7 739.2L457.7 738.5L454.8 739.8L451.8 738.9H448.8L445.8 739.4L442.8 739.9L439.8 738.6L436.8 739.8L433.8 739.3L430.7 739.1L427.7 738.5L424.7 740H421.7L418.7 739L415.7 740L412.7 739.3L409.7 739.6L406.7 738.6L403.7 738.2L400.7 739.5H397.7L394.7 740.2L391.7 740.1L388.7 739.4L385.7 738.9L382.7 738.2L379.7 739L376.7 738.8L373.7 739L370.7 740.1L367.7 738.6L364.7 738.3L361.7 739L358.7 739.1L355.7 740L352.7 739.5L349.7 739.9L346.7 738.4L343.7 739.6L340.7 739.7L337.7 739.8L334.7 739.5L331.7 738.2L328.7 739.5L325.7 738.3L322.7 738.2L319.7 738.3L316.7 739.6L313.7 739.4L310.7 738.6L307.7 739.5L304.7 739.6L301.7 738.5L298.7 739.9L295.7 738.6L292.7 738.5L289.7 740L286.7 739.7L283.7 739.5L280.7 738.9L277.7 739L274.7 739.4H271.7L268.7 740L265.7 739.2L262.7 739.5L259.6 738.5L256.6 738.7L253.6 739.3L250.6 739L247.6 739.6L244.6 738.5L241.6 739.1H238.6L235.6 739.9L232.6 739.3L229.6 739.8L226.6 739.3L223.6 739.8L220.6 739L217.6 739.9L214.6 738.3L211.6 740L208.6 739.8L205.6 739.9L202.6 739.7L199.6 739.4L196.6 738.3L193.6 739.9L190.6 738.6L187.6 738.2L184.6 738.5L181.6 739.3L178.6 739.6L175.6 739.1L172.6 738.8L169.6 738.4H166.6L163.6 738.8L160.6 739.5L157.6 739.6L154.6 738.5L151.6 739.6L148.6 738.8L145.6 739.9L142.6 740.1L139.6 738.4L136.6 739.1L133.6 739.3L130.5 738.8L127.5 739.9L124.5 739.7L121.5 738.2L118.5 738.6L115.5 738.5L112.5 740.1L109.5 738.9L106.5 739.2L103.5 739.5L100.5 740.1L97.5 739.7L94.5 739.6L91.5 739.4L88.5 739.2L85.5 738.9L82.5 739L79.5 740L76.4 738.4L73.4 739.5L70.4 740.1L67.4 738.2L64.4 739L61.4 739.3L58.4 739.4L55.4 738.7L52.4 738.3L49.4 740.1L46.4 739.7L43.4 739.3L40.4 738.9L37.4 740.1L34.3 738.8L31.3 740L28.3 739.1V739.5L31.3 739.3L34.3 739.4L37.3 739.5L40.3 739.3L43.3 738.7L46.3 738.2L49.3 740L52.3 740.1L55.3 740L58.3 739.8L61.3 739.1L64.3 738.8L67.2 738.7L70.2 739.7L73.2 738.4L76.2 739.6L79.2 739L82.2 739.4L85.2 739.7L88.2 739.2L91.2 738.5L94.2 738.2L97.2 740L100.2 739.3L103.2 738.7H106.2L109.2 739.5L112.2 738.3L115.2 739.3L118.2 739.1L121.2 738.5L124.2 738.6L127.2 738.7L130.2 738.5L133.2 740L136.2 739.7L139.2 738.3L142.2 740.1L145.2 739.7L148.2 738.9L151.2 739.7L154.2 738.8L157.2 739.6L160.2 739.4L163.2 739.3L166.2 739.4L169.2 738.9L172.2 738.5L175.2 738.7L178.2 738.3L181.2 738.6L184.2 739.7L187.2 738.9L190.2 739.6L193.2 739.5L196.2 738.8L199.2 740.1L202.2 739.6L205.2 739.2L208.2 739L211.2 739.3L214.2 739.5L217.2 738.7L220.2 739.8L223.2 739L226.2 739.5L229.2 739.2L232.2 738.3L235.2 739.4L238.2 739.7L241.2 738.5L244.2 739.4L247.2 738.8L250.2 738.7L253.2 738.2L256.2 738.6L259.2 739.7L262.2 739L265.2 740L268.2 738.3L271.2 739L274.2 738.5L277.2 738.2L280.2 738.9L283.2 738.4L286.2 739H289.2L292.2 738.4L295.2 739.4L298.2 738.9L301.2 740L304.2 739.9L307.2 738.3L310.2 738.2L313.2 738.9L316.2 738.5L319.2 738.6L322.2 739.7L325.2 738.2L328.2 739.9L331.2 739.5L334.2 740L337.2 738.4L340.2 738.6L343.2 739.8L346.2 739.5L349.2 738.4L352.2 739.6L355.2 739L358.2 738.5L361.2 739.1L364.2 738.5L367.3 739.1L370.3 739.2L373.3 738.8L376.3 738.5L379.3 740L382.3 739.4L385.3 740L388.3 738.4L391.3 739.1L394.3 739.2H397.3L400.3 739.7L403.3 739.6L406.3 738.4L409.3 739L412.3 740.1L415.3 739.1L418.3 739.6L421.3 740.1L424.3 739.2L427.3 738.6L430.3 738.2L433.3 738.3L436.3 740.1L439.3 738.7L442.3 740.1L445.3 739.4L448.3 739.3L451.3 738.5L454.3 739.9L457.3 738.6L460.3 739L463.3 739.3L466.3 738.2L469.3 740.1L472.3 739.9L475.3 738.7L478.3 740.1L481.3 738.6L484.3 739.7L487.3 738.4L490.3 740L493.3 740.1L496.4 739L499.4 738.5L502.4 738.9L505.4 739.5L508.4 739L511.4 739.8L514.4 738.9L517.4 739.7L520.4 738.3L523.4 739.1L526.4 739.6L529.4 739.7L532.4 740L535.4 738.5L538.4 738.6L541.4 738.2L544.4 739.7H547.4L550.4 739.1L553.4 739.5L556.4 738.4L559.4 739.4L562.4 738.7L565.4 740H568.4H571.4L574.4 738.4L577.4 739.9L580.4 739.8L583.4 740.2L586.5 739.9L589.5 739.4L592.5 739.9L595.5 738.8H598.5L601.5 740.1H604.5L607.5 738.9L610.5 740.1L613.5 739.6L616.5 738.9L619.5 739.5L622.5 739.4L625.5 739.2L628.5 739L631.5 739.7L634.5 738.2L637.6 739.7L640.6 738.8L643.6 738.5L646.6 738.3L649.6 739.7L652.6 739.8L655.6 738.4L658.6 738.9L661.9 739.9L661.6 738.2Z" stroke="#1A1C28" stroke-width="2" stroke-miterlimit="10"/>
<path d="M668.7 338.9L656.8 371.9L676.7 379.7L682.2 365.6L690.1 384.4L725.1 398L707.3 339L668.7 338.9Z" fill="#252831"/>
<path d="M717 294.8L730.5 327.3L750.4 319.6L745 305.5L763.5 314.1L798.5 300.5L745.6 268.9L717 294.8Z" fill="#252831"/>
<path d="M654.2 355.2L621.6 243.7C621.6 243.7 548.1 236.2 530.9 227C513.7 217.8 680.6 199.5 680.6 199.5L721.5 335.3L654.2 355.2Z" fill="#FABF44"/>
<path d="M512.6 153.2C512.6 153.2 486.2 196.4 516.7 224.4C547.1 252.4 675 205.6 675 205.6L713.8 306.6L769.3 268.9C769.3 268.9 699.6 166.3 684.8 163.4C670 160.4 584.9 168.2 584.9 168.2L568.5 143.2L512.6 153.2Z" fill="#FABF44"/>
<path d="M580.9 231L583.7 230.6L586.4 229.9L589 228.7L591.8 228.6L594.6 228.3L597.3 227.6L600 227.1L602.8 226.7L605.5 226L608.2 225.2L610.9 224.5L613.7 224.2L616.4 223.6L619 222.6L621.8 222.1L624.4 221.2L627.2 220.7L629.7 219.4L632.3 218.5L635.2 218.3L637.8 217.5L640.6 216.8L643.1 215.7L645.9 215.3L648.4 213.8L651.2 213.5L654 213L656.5 211.7L659 210.5L661.7 209.9L664.4 209L667.1 208.4L669.8 207.5L672.2 206.2L675.3 205.2L676 208L676.9 210.7L677.8 213.3L678.8 215.9L679.9 218.4L681.2 220.9L681.9 223.6L682.8 226.2L683.8 228.8L685.3 231.2L685.6 234L686.5 236.7L687.6 239.2L689.1 241.6L689.6 244.4L691.2 246.7L691.4 249.6L693 252L693.7 254.7L694.8 257.2L695.6 259.9L697.1 262.3L697.8 265L699.1 267.5L699.6 270.2L701.1 272.6L701.9 275.3L702.9 277.9L703.5 280.6L704.4 283.3L705.8 285.7L706.4 288.4L707.6 290.9L708.7 293.5L709.9 296L711.1 298.5L712.1 301.1L712.8 303.8L713.8 306L716.2 305.2L718.2 303.1L720.7 301.8L722.9 300.2L725.2 298.5L727.6 297.2L729.7 295.2L732.3 294.1L734.6 292.5L736.6 290.5L739.2 289.3L741.2 287.3L743.8 286.2L746.3 284.9L748.2 282.6L750.5 281.1L753 279.8L755.4 278.3L757.8 276.9L759.7 274.7L762.4 273.7L764.3 271.6L766.9 270.5L769.4 269.1" stroke="#1A1C28" stroke-width="1.5" stroke-miterlimit="10" stroke-linecap="round" stroke-linejoin="round"/>
<path d="M755.1 249L752.8 250.5L750.6 252.1L748.7 254.1L746.2 255.3L743.8 256.5L741.6 258.1L739.2 259.5L736.8 260.7L734.6 262.3L732.3 263.9L730.1 265.4L727.6 266.5L725.2 268" stroke="#1A1C28" stroke-width="1.5" stroke-miterlimit="10" stroke-linecap="round" stroke-linejoin="round"/>
<path d="M656.1 248.8V251.6V254.3L655.8 257.1V259.9L656.1 262.7L656.3 265.5L656.2 268.2L655.9 271L655.4 273.8L656 276.6L655.7 279.3L655.6 282.1L655.8 284.9L656.4 287.7L655.6 290.5L655.9 293.2L655.6 296L656.2 298.8L655.7 301.6L655.8 304.4L656.2 307.1L655.6 309.9L656 312.7" stroke="#1A1C28" stroke-width="1.5" stroke-miterlimit="10" stroke-linecap="round" stroke-linejoin="round"/>
<path d="M646.2 261.4L645.8 264.1L646.3 266.9L645.8 269.7L646.1 272.4L646 275.2L646.2 278L646 280.7V283.5L646.2 286.3L646.5 289L645.6 291.8L646.1 294.6L646 297.4L645.6 300.1" stroke="#1A1C28" stroke-width="1.5" stroke-miterlimit="10" stroke-linecap="round" stroke-linejoin="round"/>
<path d="M654.2 355.2L653.5 352.5L652.4 349.8L651.6 347.1L651 344.3L650.3 341.5L649 339L648.1 335.9L651 334.9L653.8 334.7L656.3 333.4L658.7 332.1L661.5 331.6L664 330.5L666.7 329.9L669.2 328.7L671.7 327.5L674.4 326.8L676.8 325.5L679.4 324.6L682.1 323.9L684.5 322.6L687.2 321.9L689.7 320.7L692.6 320.6L695 319.2L697.7 318.3L700.1 317" stroke="#1A1C28" stroke-width="1.5" stroke-miterlimit="10" stroke-linecap="round" stroke-linejoin="round"/>
<path d="M565.9 86.7C565.9 86.7 612.6 113.8 626.5 152.8C628.9 159.6 627.5 167.1 622.8 172.6C611.2 186 578.4 209.4 572.9 213.3L557.8 207L598.9 159.4L560.9 116.9L552.8 87.1" fill="#7C4214"/>
<path d="M356.6 144.9C356.6 144.9 338.2 148.9 338.4 150.2C338.6 151.5 348 152.5 348 152.5C348 152.5 328.2 160.3 328.6 161.9C329 163.5 329.5 163.9 331.6 163.1C333.7 162.3 350.6 156.9 350.6 156.9C350.6 156.9 328.7 165 329.2 168.9C329.7 172.8 350.3 162.2 350.3 162.2C350.3 162.2 330.2 174 331.2 176.9C332.2 179.7 353.2 168.5 353.2 168.5C353.2 168.5 342 175.1 344 178.1C346 181 362 167.6 364.7 167.9C367.1 168.1 420.3 191.2 439.2 189.3C441.5 189.1 449.7 170.3 446.5 165.7C443.2 161.2 356.6 144.9 356.6 144.9Z" fill="#7C4214"/>
<path d="M548 46.7C545.6 57 535.2 63.3 524.9 60.9C514.6 58.5 508.3 48.1 510.7 37.8C513.1 27.5 523.5 21.2 533.8 23.6C544.1 26.1 550.5 36.4 548 46.7Z" fill="#252831"/>
<path d="M558.5 21.9C556.2 31.5 546.6 37.4 537 35.1C527.4 32.8 521.5 23.2 523.8 13.6C526.1 3.99999 535.7 -1.90001 545.3 0.399985C554.9 2.79999 560.8 12.4 558.5 21.9Z" fill="#252831"/>
<path d="M426.2 185.9C438.3 193.3 445.7 187.5 449.4 183.3C453.1 179.1 485.4 151.5 485.4 151.5L494.9 112.6L470.2 116.3C470.2 116.2 414.1 178.5 426.2 185.9Z" fill="#7C4214"/>
<path d="M515.8 43.4C515.8 43.4 513.2 64.1 518.3 65.4C523.4 66.7 524.5 66.4 521.7 70.3C518.8 74.2 517.8 74.9 517.8 74.9C517.8 74.9 522.9 85.8 539.8 77.2C540.5 76.9 533.3 71.5 534.7 63.8C536.1 56.1 538.2 57.8 538.4 52.8C538.6 47.8 533.1 48.4 531 44.5C529 40.6 526.9 35.2 525.1 36.7C523.2 38.3 515.8 43.4 515.8 43.4Z" fill="#7C4214"/>
<path d="M515.8 53.5C512.597 53.5 510 50.9032 510 47.7C510 44.4967 512.597 41.9 515.8 41.9C519.003 41.9 521.6 44.4967 521.6 47.7C521.6 50.9032 519.003 53.5 515.8 53.5Z" stroke="#FABF44" stroke-width="1.2" stroke-miterlimit="10" stroke-linecap="round" stroke-linejoin="round"/>
<path d="M529.2 54.5C525.997 54.5 523.4 51.9032 523.4 48.7C523.4 45.4967 525.997 42.9 529.2 42.9C532.403 42.9 535 45.4967 535 48.7C535 51.9032 532.403 54.5 529.2 54.5Z" stroke="#FABF44" stroke-width="1.2" stroke-miterlimit="10" stroke-linecap="round" stroke-linejoin="round"/>
<path d="M522 48.3H523" stroke="#FABF44" stroke-width="1.25" stroke-miterlimit="10" stroke-linecap="round" stroke-linejoin="round"/>
<path class="talking" d="M493.4 2.79999L493.9 5.49999L494.5 8.09999L495.5 10.7L496.4 13.2V16L497.3 18.6L498.2 21.1" stroke="#1A1C28" stroke-width="2" stroke-miterlimit="10" stroke-linecap="round" stroke-linejoin="round"/>
<path class="talking" d="M476.2 15.1L477.8 17.2L479.8 19L481.3 21.4L483.3 23.1L485.6 24.6" stroke="#1A1C28" stroke-width="2" stroke-miterlimit="10" stroke-linecap="round" stroke-linejoin="round"/>
<path class="talking" d="M461.8 37L464.4 37.5L467.1 37.6L469.8 37.5L472.4 37.9L475.1 38.1L477.7 38.3L480.4 38L483.1 38.2L485.8 38.5" stroke="#1A1C28" stroke-width="2" stroke-miterlimit="10" stroke-linecap="round" stroke-linejoin="round"/>
<path d="M447.4 131.2L473.1 170.9L504.2 140L512.6 150.2L567.4 140.3L566.5 132.8L586.2 155.5L622.9 121.2C622.9 121.2 579.9 75.6 536.7 73C536.7 73 531.9 77.1 524.2 77.6C520.5 77.8 517.8 75 517.8 75C477.1 85.1 447.4 131.2 447.4 131.2Z" fill="#E4E5F0"/>
<path d="M496.8 130.6L498.2 133.1L499.9 135.3L501.8 137.3L503.9 139.2L505.3 141.7L507.1 143.8L508.6 146.1L511.1 147.7L512.4 150.3" stroke="#1A1C28" stroke-width="2" stroke-miterlimit="10" stroke-linecap="round" stroke-linejoin="round"/>
<path d="M491.7 96.3C491.7 96.9 491.2 97.5 490.5 97.5C489.9 97.5 489.3 97 489.3 96.3C489.3 95.7 489.8 95.1 490.5 95.1C491.2 95.2 491.7 95.7 491.7 96.3Z" fill="white"/>
<path d="M506.4 82.2C506.4 82.8 505.9 83.4 505.2 83.4C504.6 83.4 504 82.9 504 82.2C504 81.6 504.5 81 505.2 81C505.9 81 506.4 81.5 506.4 82.2Z" fill="white"/>
<path d="M522.8 97.2C522.8 97.8 522.3 98.4 521.6 98.4C521 98.4 520.4 97.9 520.4 97.2C520.4 96.6 520.9 96 521.6 96C522.2 96 522.8 96.5 522.8 97.2Z" fill="white"/>
<path d="M540.6 79.3C540.6 79.9 540.1 80.5 539.4 80.5C538.8 80.5 538.2 80 538.2 79.3C538.2 78.7 538.7 78.1 539.4 78.1C540.1 78.2 540.6 78.7 540.6 79.3Z" fill="white"/>
<path d="M509.8 111.8C509.8 112.4 509.3 113 508.6 113C508 113 507.4 112.5 507.4 111.8C507.4 111.2 507.9 110.6 508.6 110.6C509.2 110.7 509.8 111.2 509.8 111.8Z" fill="white"/>
<path d="M542.3 106.2C542.3 106.8 541.8 107.4 541.1 107.4C540.5 107.4 539.9 106.9 539.9 106.2C539.9 105.6 540.4 105 541.1 105C541.7 105 542.3 105.5 542.3 106.2Z" fill="white"/>
<path d="M559.8 93.3C559.8 93.9 559.3 94.5 558.6 94.5C558 94.5 557.4 94 557.4 93.3C557.4 92.7 557.9 92.1 558.6 92.1C559.3 92.1 559.8 92.6 559.8 93.3Z" fill="white"/>
<path d="M581.2 115.5C581.2 116.1 580.7 116.7 580 116.7C579.4 116.7 578.8 116.2 578.8 115.5C578.8 114.9 579.3 114.3 580 114.3C580.7 114.4 581.2 114.9 581.2 115.5Z" fill="white"/>
<path d="M594.3 96.2C594.3 96.8 593.8 97.4 593.1 97.4C592.5 97.4 591.9 96.9 591.9 96.2C591.9 95.6 592.4 95 593.1 95C593.8 95 594.3 95.6 594.3 96.2Z" fill="white"/>
<path d="M582.6 135.7C582.6 136.3 582.1 136.9 581.4 136.9C580.8 136.9 580.2 136.4 580.2 135.7C580.2 135.1 580.7 134.5 581.4 134.5C582.1 134.5 582.6 135.1 582.6 135.7Z" fill="white"/>
<path d="M607.8 118.6C607.8 119.2 607.3 119.8 606.6 119.8C606 119.8 605.4 119.3 605.4 118.6C605.4 118 605.9 117.4 606.6 117.4C607.3 117.5 607.8 118 607.8 118.6Z" fill="white"/>
<path d="M573.2 83.8C573.2 84.4 572.7 85 572 85C571.4 85 570.8 84.5 570.8 83.8C570.8 83.2 571.3 82.6 572 82.6C572.7 82.6 573.2 83.1 573.2 83.8Z" fill="white"/>
<path d="M527.7 125.4C527.7 126 527.2 126.6 526.5 126.6C525.9 126.6 525.3 126.1 525.3 125.4C525.3 124.8 525.8 124.2 526.5 124.2C527.2 124.2 527.7 124.8 527.7 125.4Z" fill="white"/>
<path d="M562.9 116.9C562.9 117.5 562.4 118.1 561.7 118.1C561.1 118.1 560.5 117.6 560.5 116.9C560.5 116.3 561 115.7 561.7 115.7C562.4 115.7 562.9 116.3 562.9 116.9Z" fill="white"/>
<path d="M549.1 131.3C549.1 131.9 548.6 132.5 547.9 132.5C547.3 132.5 546.7 132 546.7 131.3C546.7 130.7 547.2 130.1 547.9 130.1C548.6 130.2 549.1 130.7 549.1 131.3Z" fill="white"/>
<path d="M491.6 142.5C491.6 143.1 491.1 143.7 490.4 143.7C489.8 143.7 489.2 143.2 489.2 142.5C489.2 141.9 489.7 141.3 490.4 141.3C491.1 141.3 491.6 141.9 491.6 142.5Z" fill="white"/>
<path d="M458.6 134.2C458.6 134.8 458.1 135.4 457.4 135.4C456.8 135.4 456.2 134.9 456.2 134.2C456.2 133.6 456.7 133 457.4 133C458.1 133 458.6 133.5 458.6 134.2Z" fill="white"/>
<path d="M517.3 138.5C517.3 139.1 516.8 139.7 516.1 139.7C515.5 139.7 514.9 139.2 514.9 138.5C514.9 137.9 515.4 137.3 516.1 137.3C516.8 137.3 517.3 137.9 517.3 138.5Z" fill="white"/>
<path d="M477.9 117.7C477.9 118.3 477.4 118.9 476.7 118.9C476.1 118.9 475.5 118.4 475.5 117.7C475.5 117.1 476 116.5 476.7 116.5C477.4 116.5 477.9 117 477.9 117.7Z" fill="white"/>
<path d="M588.2 167.1L585.7 166.3L583.3 166.7L580.9 167.2L578.5 167.8L576.1 167.9L573.6 167.4L571.4 169.6L568.8 168.2L566.4 168.5L564 169.1L561.7 169.8L559.3 170.2L556.8 169.9L554.4 170.1L552 170.7L549.6 171.6" stroke="#1A1C28" stroke-width="1.5" stroke-miterlimit="10" stroke-linecap="round" stroke-linejoin="round"/>
<path d="M580 181.3C580 181.3 559.2 199.3 555.9 212.5C552.6 225.7 550 239.9 552.6 238.9C555.2 237.9 557.3 219.4 559.3 219.8C561.3 220.2 554.9 238.8 557.1 241.5C559.3 244.2 563.3 222.6 564.2 222.8C565.1 223.1 560.3 241.3 562.3 242.1C564.4 242.9 567.3 224.8 568.3 225C569.3 225.2 567.3 234.5 567.7 236.7C568.1 238.9 569.3 238.3 570.4 233.3C571.5 228.4 575.4 209.8 594.7 197C603.2 191.5 580 181.3 580 181.3Z" fill="#7C4214"/>
</g>
<defs>
<clipPath id="clip0">
<rect width="804.5" height="741.3" fill="white" transform="matrix(-1 0 0 1 804.5 0)"/>
</clipPath>
</defs>
<style>
.talking, .talking-2 {
  stroke-width:2px;
  stroke-dasharray: 2, 4;
  stroke-dashoffset: 11;
  animation: dash 1s linear infinite reverse;
}
.talking-2 {
  animation: dash 1s linear infinite;
}
@keyframes dash {
  to {
    stroke-dashoffset: 0;
  }
}</style>
</svg>
